<svg width="99" height="42" viewBox="0 0 99 42" fill="none" xmlns="http://www.w3.org/2000/svg">
<g clip-path="url(#clip0_1383_72920)">
<path fill-rule="evenodd" clip-rule="evenodd" d="M15.5475 20.615C17.2484 19.0062 19.9333 19.0484 21.582 20.7099L31.0494 30.2511C32.7187 31.9332 32.6992 34.6412 31.0059 36.2995C29.3127 37.9579 26.5869 37.9385 24.9177 36.2563L18.4206 29.7086L8.99153 38.6277C7.26954 40.2565 4.54452 40.1901 2.90499 38.4794C1.26547 36.7686 1.33231 34.0613 3.05427 32.4325L15.5475 20.615Z" fill="#DB1010"/>
<path fill-rule="evenodd" clip-rule="evenodd" d="M20.8602 0.549643C23.189 1.02596 24.6881 3.28765 24.2087 5.60129L23.843 7.36621C23.3636 9.67982 21.087 11.1692 18.7582 10.693C16.4294 10.2166 14.9301 7.95495 15.4096 5.64129L15.7753 3.87639C16.2548 1.56276 18.5313 0.0733298 20.8602 0.549643Z" fill="#DB1010"/>
<path fill-rule="evenodd" clip-rule="evenodd" d="M1.87177 6.17386C3.61207 4.56437 6.33619 4.66121 7.95621 6.39016L12.3023 11.0284C13.9223 12.7574 13.8249 15.4637 12.0846 17.0732C10.3443 18.6826 7.6202 18.5858 6.00013 16.8569L1.65404 12.2187C0.0339867 10.4897 0.131466 7.78337 1.87177 6.17386Z" fill="#DB1010"/>
<path fill-rule="evenodd" clip-rule="evenodd" d="M42.4592 1.54068C44.0987 3.25142 44.0318 5.95866 42.3099 7.58754L31.2864 18.0147C29.5645 19.6436 26.8395 19.5771 25.1999 17.8664C23.5604 16.1557 23.6272 13.4484 25.3492 11.8196L36.3726 1.39237C38.0946 -0.236462 40.8197 -0.170061 42.4592 1.54068Z" fill="#DB1010"/>
<path d="M55.3844 37.1242C54.8102 37.1242 54.3123 36.9924 53.8901 36.7287C53.4682 36.4484 53.1305 36.0199 52.8773 35.4431L49.4334 27.3093C49.2139 26.7983 49.138 26.3369 49.2055 25.9248C49.273 25.4963 49.4756 25.1584 49.8132 24.9112C50.1678 24.6475 50.6489 24.5156 51.2566 24.5156C51.78 24.5156 52.2104 24.6392 52.5481 24.8864C52.8857 25.1172 53.1897 25.5787 53.4598 26.2709L55.8909 32.5011H55.359L57.9165 25.8012C58.0855 25.3562 58.3133 25.0348 58.6004 24.837C58.904 24.6227 59.2838 24.5156 59.7399 24.5156C60.2293 24.5156 60.6176 24.6227 60.9047 24.837C61.1919 25.0513 61.4196 25.3727 61.5886 25.8012L64.1462 32.5011H63.6901L66.1464 26.1226C66.3827 25.4963 66.6867 25.076 67.0581 24.8617C67.4294 24.631 67.8262 24.5156 68.2484 24.5156C68.8226 24.5156 69.2612 24.6475 69.5653 24.9112C69.8688 25.1749 70.0378 25.521 70.0717 25.9495C70.122 26.3781 70.0378 26.8396 69.8185 27.334L66.3996 35.4184C66.1634 35.9952 65.8344 36.4238 65.4122 36.704C64.99 36.9841 64.4921 37.1242 63.9184 37.1242C63.3272 37.1242 62.8208 36.9841 62.3986 36.704C61.9933 36.4238 61.6644 35.9952 61.4112 35.4184L58.6258 28.6196H60.4741L57.8408 35.3689C57.6045 35.9623 57.2835 36.4072 56.8783 36.704C56.473 36.9841 55.9751 37.1242 55.3844 37.1242Z" fill="#323232"/>
<path d="M76.0328 37.1743C75.0703 37.1743 74.2179 37.0013 73.4753 36.6551C72.749 36.309 72.1753 35.8393 71.7531 35.2459C71.3479 34.6361 71.1455 33.9439 71.1455 33.1692C71.1455 32.2792 71.3818 31.5787 71.8543 31.0678C72.3268 30.5569 73.087 30.1943 74.1332 29.98C75.1799 29.7492 76.5731 29.6339 78.3117 29.6339H79.7043V31.7106H78.3117C77.6532 31.7106 77.1044 31.76 76.6658 31.8589C76.2436 31.9413 75.9316 32.0814 75.7287 32.2792C75.5264 32.4605 75.4247 32.6995 75.4247 32.9961C75.4247 33.3753 75.5597 33.6884 75.8299 33.9356C76.117 34.1828 76.5223 34.3065 77.0456 34.3065C77.4678 34.3065 77.8392 34.2158 78.1597 34.0345C78.4976 33.8532 78.7678 33.606 78.9701 33.2929C79.1725 32.9632 79.2742 32.5841 79.2742 32.1556V29.2877C79.2742 28.6944 79.1137 28.2741 78.7927 28.0269C78.4892 27.7796 77.9573 27.656 77.1977 27.656C76.7924 27.656 76.3363 27.7055 75.8299 27.8044C75.3235 27.8868 74.7583 28.0434 74.1332 28.2741C73.6776 28.4389 73.2893 28.4636 72.9688 28.3483C72.6478 28.2329 72.3946 28.0351 72.2087 27.7549C72.0402 27.4747 71.9555 27.1699 71.9555 26.8402C71.9724 26.5105 72.0821 26.1974 72.285 25.9007C72.5043 25.6041 72.8338 25.3733 73.2724 25.2085C74.0829 24.9118 74.8255 24.714 75.5009 24.6152C76.1928 24.5163 76.8263 24.4668 77.4 24.4668C78.7842 24.4668 79.9242 24.6646 80.8189 25.0602C81.7306 25.4392 82.4054 26.0326 82.8446 26.8402C83.3002 27.6313 83.5285 28.6532 83.5285 29.9058V34.8998C83.5285 35.625 83.351 36.1772 82.9966 36.5562C82.6417 36.9353 82.1268 37.1249 81.4519 37.1249C80.7596 37.1249 80.2277 36.9353 79.8564 36.5562C79.502 36.1772 79.3245 35.625 79.3245 34.8998V34.257L79.4766 34.6031C79.3923 35.1306 79.1979 35.5838 78.8944 35.9629C78.5903 36.342 78.1936 36.6387 77.7041 36.8529C77.2146 37.0672 76.6573 37.1743 76.0328 37.1743Z" fill="#323232"/>
<path d="M89.5927 41.5743C89.0699 41.5743 88.6477 41.4425 88.3267 41.1788C88.0062 40.9151 87.8033 40.5689 87.7191 40.1404C87.6518 39.7119 87.7275 39.2587 87.9468 38.7806L89.6436 35.1959V36.9759L85.3136 27.3093C85.0937 26.8148 85.018 26.3533 85.0852 25.9248C85.17 25.4963 85.3978 25.1584 85.7691 24.9112C86.1405 24.6475 86.6469 24.5156 87.2884 24.5156C87.8287 24.5156 88.2594 24.6392 88.5799 24.8864C88.9178 25.1172 89.2214 25.5787 89.4915 26.2709L92.0242 32.6988H91.1628L93.847 26.2462C94.1171 25.5704 94.4212 25.1172 94.7586 24.8864C95.1136 24.6392 95.5861 24.5156 96.1767 24.5156C96.6831 24.5156 97.0884 24.6475 97.3925 24.9112C97.6965 25.1584 97.8819 25.4963 97.9497 25.9248C98.017 26.3533 97.9413 26.8148 97.7214 27.3093L91.9733 39.9179C91.6693 40.5772 91.3318 41.0139 90.9605 41.2282C90.6061 41.459 90.15 41.5743 89.5927 41.5743Z" fill="#323232"/>
<path d="M55.3643 21.5652C54.7922 21.5652 54.2958 21.4321 53.8752 21.1658C53.4545 20.8829 53.118 20.4502 52.8656 19.8677L49.4326 11.6548C49.2138 11.1389 49.1381 10.6729 49.2054 10.2569C49.2727 9.82417 49.4747 9.48299 49.8112 9.23337C50.1646 8.96708 50.6442 8.83398 51.2501 8.83398C51.7717 8.83398 52.2008 8.95876 52.5374 9.20843C52.8739 9.44141 53.1769 9.90738 53.4461 10.6064L55.8691 16.8971H55.3394L57.889 10.132C58.0569 9.68271 58.2842 9.35821 58.5702 9.15849C58.8732 8.94213 59.252 8.83398 59.706 8.83398C60.1944 8.83398 60.5811 8.94213 60.8671 9.15849C61.1532 9.37484 61.3804 9.69934 61.5489 10.132L64.0985 16.8971H63.644L66.0924 10.4566C66.3281 9.82417 66.6311 9.39978 67.0014 9.18343C67.3717 8.95045 67.7669 8.83398 68.1875 8.83398C68.7596 8.83398 69.1971 8.96708 69.5001 9.23337C69.8031 9.49967 69.9716 9.84912 70.005 10.2818C70.0558 10.7145 69.9716 11.1805 69.7528 11.6798L66.3451 19.8428C66.1093 20.4253 65.7814 20.858 65.3603 21.1408C64.9397 21.4238 64.4433 21.5652 63.8712 21.5652C63.2822 21.5652 62.7773 21.4238 62.3567 21.1408C61.9526 20.858 61.6247 20.4253 61.372 19.8428L58.5957 12.9779H60.4381L57.8132 19.7928C57.5775 20.3919 57.2576 20.8413 56.8539 21.1408C56.4497 21.4238 55.9534 21.5652 55.3643 21.5652Z" fill="#323232"/>
<path d="M78.3223 21.6143C76.8078 21.6143 75.4952 21.3563 74.3843 20.8404C73.2904 20.3079 72.4492 19.559 71.8602 18.5938C71.2711 17.6285 70.9766 16.4885 70.9766 15.1738C70.9766 13.909 71.2541 12.8023 71.8098 11.8537C72.3819 10.8884 73.1559 10.1395 74.1322 9.60698C75.1249 9.05781 76.2521 8.7832 77.5145 8.7832C78.4399 8.7832 79.2817 8.93298 80.0386 9.23254C80.7962 9.51546 81.444 9.93985 81.9822 10.5056C82.521 11.0549 82.9246 11.7206 83.1942 12.5027C83.4803 13.2849 83.6233 14.1586 83.6233 15.1239C83.6233 15.4567 83.5306 15.7064 83.3457 15.8728C83.1603 16.0225 82.8658 16.0974 82.4622 16.0974H74.7376V14.0005H80.3416L79.938 14.325C79.938 13.7093 79.8538 13.21 79.6853 12.8273C79.5169 12.4445 79.2647 12.1533 78.9283 11.9535C78.6084 11.7538 78.2047 11.654 77.7163 11.654C77.1945 11.654 76.7405 11.7788 76.3533 12.0284C75.983 12.2614 75.697 12.6109 75.4952 13.0769C75.2933 13.5428 75.1921 14.1253 75.1921 14.8243V15.049C75.1921 16.2306 75.4533 17.0793 75.9746 17.5952C76.5133 18.0945 77.3376 18.3442 78.4484 18.3442C78.8187 18.3442 79.2393 18.3025 79.7107 18.2193C80.1986 18.1194 80.6616 17.9863 81.0992 17.8199C81.5362 17.6535 81.9149 17.6285 82.2349 17.745C82.5543 17.8449 82.7985 18.0279 82.967 18.2942C83.1519 18.5438 83.253 18.8351 83.27 19.1679C83.2864 19.4841 83.2107 19.8003 83.0427 20.1165C82.8743 20.4161 82.5967 20.6491 82.2095 20.8155C81.6204 21.0818 80.9895 21.2815 80.3162 21.4146C79.6599 21.5478 78.9956 21.6143 78.3223 21.6143Z" fill="#323232"/>
</g>
<defs>
<clipPath id="clip0_1383_72920">
<rect width="98" height="41.5758" fill="white" transform="translate(0.5 0.212891)"/>
</clipPath>
</defs>
</svg>
