<svg width="24" height="25" viewBox="0 0 24 25" fill="none" xmlns="http://www.w3.org/2000/svg">
<path fill-rule="evenodd" clip-rule="evenodd" d="M18.0022 6.90893H3.00037C2.6025 6.90893 2.22092 7.06066 1.93958 7.33075C1.65824 7.60083 1.50018 7.96715 1.50018 8.3491V19.8705C1.50018 20.2525 1.65824 20.6188 1.93958 20.8889C2.22092 21.159 2.6025 21.3107 3.00037 21.3107H18.0022C18.4001 21.3107 18.7817 21.159 19.063 20.8889C19.3443 20.6188 19.5024 20.2525 19.5024 19.8705V8.3491C19.5024 7.96715 19.3443 7.60083 19.063 7.33075C18.7817 7.06066 18.4001 6.90893 18.0022 6.90893ZM3.00037 5.46875C2.20462 5.46875 1.44147 5.77221 0.878788 6.31239C0.31611 6.85256 0 7.58519 0 8.3491V19.8705C0 20.6344 0.31611 21.3671 0.878788 21.9072C1.44147 22.4474 2.20462 22.7509 3.00037 22.7509H18.0022C18.798 22.7509 19.5611 22.4474 20.1238 21.9072C20.6865 21.3671 21.0026 20.6344 21.0026 19.8705V8.3491C21.0026 7.58519 20.6865 6.85256 20.1238 6.31239C19.5611 5.77221 18.798 5.46875 18.0022 5.46875H3.00037Z" fill="#707A94"/>
<path d="M15.9708 13.5989C16.0822 13.4922 16.2257 13.4219 16.3811 13.3978C16.5364 13.3738 16.6957 13.3973 16.8364 13.4649L19.5022 16.269V21.3096H1.5V19.8694L5.46949 16.4792C5.5921 16.3619 5.7532 16.289 5.92545 16.2727C6.09771 16.2564 6.27053 16.2978 6.41461 16.3899L10.4051 18.9434L15.9708 13.6003V13.5989Z" fill="#707A94"/>
<path fill-rule="evenodd" clip-rule="evenodd" d="M6.75102 14.1093C7.34783 14.1093 7.9202 13.8817 8.34221 13.4766C8.76422 13.0715 9.0013 12.522 9.0013 11.949C9.0013 11.3761 8.76422 10.8266 8.34221 10.4215C7.9202 10.0164 7.34783 9.78878 6.75102 9.78878C6.15421 9.78878 5.58184 10.0164 5.15983 10.4215C4.73783 10.8266 4.50074 11.3761 4.50074 11.949C4.50074 12.522 4.73783 13.0715 5.15983 13.4766C5.58184 13.8817 6.15421 14.1093 6.75102 14.1093ZM5.99793 4.02807H20.9998C21.3977 4.02807 21.7792 4.1798 22.0606 4.44989C22.3419 4.71997 22.5 5.08629 22.5 5.46825V16.9897C22.5 17.3716 22.3419 17.7379 22.0606 18.008C21.7792 18.2781 21.3977 18.4298 20.9998 18.4298V19.87C21.7955 19.87 22.5587 19.5666 23.1214 19.0264C23.684 18.4862 24.0001 17.7536 24.0001 16.9897V5.46825C24.0001 4.70433 23.684 3.9717 23.1214 3.43153C22.5587 2.89136 21.7955 2.58789 20.9998 2.58789H5.99793C5.20218 2.58789 4.43902 2.89136 3.87635 3.43153C3.31367 3.9717 2.99756 4.70433 2.99756 5.46825H4.49774C4.49774 5.08629 4.6558 4.71997 4.93714 4.44989C5.21848 4.1798 5.60005 4.02807 5.99793 4.02807Z" fill="#707A94"/>
</svg>
