<svg width="49" height="20" viewBox="0 0 49 20" fill="none" xmlns="http://www.w3.org/2000/svg">
<path d="M17.8333 16.6663C17.5972 16.6663 17.3992 16.5863 17.2392 16.4263C17.0792 16.2663 16.9994 16.0686 17 15.833V9.16634L18.75 4.16634C18.8333 3.91634 18.9825 3.71495 19.1975 3.56217C19.4125 3.4094 19.6522 3.33301 19.9167 3.33301H23.9167C23.8333 3.5969 23.7708 3.86773 23.7292 4.14551C23.6875 4.42329 23.6667 4.70801 23.6667 4.99967H20.2083L19.3333 7.49967H24.2292C24.5347 8.16634 24.9619 8.74606 25.5108 9.23884C26.0597 9.73162 26.6672 10.1172 27.3333 10.3955C27.2222 10.5205 27.1389 10.6561 27.0833 10.8022C27.0278 10.9483 27 11.0975 27 11.2497C27 11.5969 27.1217 11.8922 27.365 12.1355C27.6083 12.3788 27.9033 12.5002 28.25 12.4997C28.5972 12.4997 28.8925 12.378 29.1358 12.1347C29.3792 11.8913 29.5006 11.5963 29.5 11.2497C29.5 11.1802 29.4964 11.1108 29.4892 11.0413C29.4819 10.9719 29.4647 10.9025 29.4375 10.833C29.8819 10.833 30.3194 10.7877 30.75 10.6972C31.1806 10.6066 31.5972 10.4644 32 10.2705V15.833C32 16.0691 31.92 16.2672 31.76 16.4272C31.6 16.5872 31.4022 16.6669 31.1667 16.6663H30.3333C30.0972 16.6663 29.8992 16.5863 29.7392 16.4263C29.5792 16.2663 29.4994 16.0686 29.5 15.833V14.9997H19.5V15.833C19.5 16.0691 19.42 16.2672 19.26 16.4272C19.1 16.5872 18.9022 16.6669 18.6667 16.6663H17.8333ZM20.75 12.4997C21.0972 12.4997 21.3925 12.378 21.6358 12.1347C21.8792 11.8913 22.0006 11.5963 22 11.2497C22 10.9025 21.8783 10.6072 21.635 10.3638C21.3917 10.1205 21.0967 9.99912 20.75 9.99967C20.4028 9.99967 20.1075 10.1213 19.8642 10.3647C19.6208 10.608 19.4994 10.903 19.5 11.2497C19.5 11.5969 19.6217 11.8922 19.865 12.1355C20.1083 12.3788 20.4033 12.5002 20.75 12.4997Z" fill="#22A599"/>
<path fill-rule="evenodd" clip-rule="evenodd" d="M33.6668 4.99967C33.6668 7.30086 31.8013 9.16634 29.5002 9.16634C27.199 9.16634 25.3335 7.30086 25.3335 4.99967C25.3335 2.69849 27.199 0.833008 29.5002 0.833008C31.8013 0.833008 33.6668 2.69849 33.6668 4.99967ZM30.021 2.91634C30.021 3.20399 29.7878 3.43717 29.5002 3.43717C29.2125 3.43717 28.9793 3.20399 28.9793 2.91634C28.9793 2.62869 29.2125 2.39551 29.5002 2.39551C29.7878 2.39551 30.021 2.62869 30.021 2.91634ZM28.9793 4.47884C28.6917 4.47884 28.4585 4.71203 28.4585 4.99967C28.4585 5.28732 28.6917 5.52051 28.9793 5.52051V7.08301C28.9793 7.37066 29.2125 7.60384 29.5002 7.60384H30.021C30.3086 7.60384 30.5418 7.37066 30.5418 7.08301C30.5418 6.79536 30.3086 6.56217 30.021 6.56217V4.99967C30.021 4.71203 29.7878 4.47884 29.5002 4.47884H28.9793Z" fill="#22A599"/>
</svg>
