<svg width="161" height="161" viewBox="0 0 161 161" fill="none" xmlns="http://www.w3.org/2000/svg">
<path d="M144.627 98.4484H105.83C105.497 98.4478 105.177 98.3151 104.941 98.0793C104.706 97.8435 104.573 97.5239 104.572 97.1904V40.673C104.573 40.3395 104.706 40.0199 104.941 39.7841C105.177 39.5483 105.497 39.4156 105.83 39.415H144.627C144.961 39.415 145.281 39.5475 145.517 39.7834C145.753 40.0192 145.886 40.3392 145.887 40.673V97.1904C145.886 97.5243 145.753 97.8442 145.517 98.0801C145.281 98.3159 144.961 98.4484 144.627 98.4484ZM105.83 39.4687C105.511 39.4687 105.205 39.5956 104.979 39.8214C104.753 40.0473 104.626 40.3536 104.626 40.673V97.1904C104.626 97.5098 104.753 97.8161 104.979 98.042C105.205 98.2678 105.511 98.3947 105.83 98.3947H144.627C144.947 98.3947 145.253 98.2679 145.479 98.0421C145.705 97.8163 145.833 97.51 145.833 97.1904V40.673C145.833 40.3534 145.705 40.0471 145.479 39.8213C145.253 39.5955 144.947 39.4687 144.627 39.4687H105.83Z" fill="#E0E0E0"/>
<path d="M99.8861 98.4484H61.0851C60.7516 98.4478 60.432 98.3151 60.1962 98.0793C59.9604 97.8435 59.8277 97.5239 59.8271 97.1904V40.673C59.8277 40.3395 59.9604 40.0199 60.1962 39.7841C60.432 39.5483 60.7516 39.4156 61.0851 39.415H99.8861C100.22 39.4156 100.539 39.5483 100.775 39.7841C101.011 40.0199 101.143 40.3395 101.144 40.673V97.1904C101.143 97.5239 101.011 97.8435 100.775 98.0793C100.539 98.3151 100.22 98.4478 99.8861 98.4484ZM61.0851 39.4687C60.7677 39.4721 60.4645 39.6004 60.2411 39.8258C60.0177 40.0512 59.8921 40.3556 59.8915 40.673V97.1904C59.8921 97.5096 60.0192 97.8156 60.2449 98.0414C60.4706 98.2671 60.7766 98.3941 61.0958 98.3947H99.8861C100.205 98.3941 100.511 98.2671 100.737 98.0414C100.963 97.8156 101.09 97.5096 101.09 97.1904V40.673C101.09 40.3538 100.963 40.0478 100.737 39.8221C100.511 39.5963 100.205 39.4693 99.8861 39.4687H61.0851Z" fill="#E0E0E0"/>
<path d="M55.1691 98.4484H16.3724C16.0386 98.4484 15.7184 98.3159 15.4821 98.0801C15.2459 97.8442 15.1129 97.5243 15.1123 97.1904V40.673C15.1129 40.3392 15.2459 40.0192 15.4821 39.7834C15.7184 39.5475 16.0386 39.415 16.3724 39.415H55.1691C55.5026 39.4156 55.8222 39.5483 56.058 39.7841C56.2938 40.0199 56.4265 40.3395 56.427 40.673V97.1904C56.4265 97.5239 56.2938 97.8435 56.058 98.0793C55.8222 98.3151 55.5026 98.4478 55.1691 98.4484ZM16.3724 39.4687C16.0528 39.4687 15.7463 39.5955 15.5201 39.8213C15.2939 40.0471 15.1665 40.3534 15.166 40.673V97.1904C15.1665 97.51 15.2939 97.8163 15.5201 98.0421C15.7463 98.2679 16.0528 98.3947 16.3724 98.3947H55.1691C55.4885 98.3947 55.7948 98.2678 56.0207 98.042C56.2465 97.8161 56.3734 97.5098 56.3734 97.1904V40.673C56.3734 40.3536 56.2465 40.0473 56.0207 39.8214C55.7948 39.5956 55.4885 39.4687 55.1691 39.4687H16.3724Z" fill="#E0E0E0"/>
<path d="M161 111.558H0V111.583H161V111.558Z" fill="#E0E0E0"/>
<path d="M152.276 117.864H140.312V117.954H152.276V117.864Z" fill="#EBEBEB"/>
<path d="M109.409 118.844H106.269V118.934H109.409V118.844Z" fill="#EBEBEB"/>
<path d="M24.3235 115.117H8.72363V115.207H24.3235V115.117Z" fill="#EBEBEB"/>
<path d="M29.8303 115.117H27.542V115.207H29.8303V115.117Z" fill="#EBEBEB"/>
<path d="M71.0973 116.641H37.2637V116.731H71.0973V116.641Z" fill="#EBEBEB"/>
<path d="M65.7548 64.1337C65.4022 63.9207 64.994 63.8183 64.5827 63.8396C64.3315 63.5326 64.5355 63.0732 64.778 62.7662C65.0206 62.4593 65.3211 62.1008 65.2288 61.7144C65.085 61.1348 64.2714 61.1112 63.6854 61.2249C63.4707 60.875 63.4707 60.4414 63.3677 60.0357C63.2646 59.63 62.919 59.2071 62.5348 59.265C62.1505 59.323 61.9144 59.7459 61.5366 59.836C61.0965 59.9391 60.7144 59.5505 60.3709 59.2586C60.3277 59.2226 60.2825 59.1889 60.2357 59.1577C60.3087 57.9513 61.4571 58.1445 62.4339 57.9792C63.1981 57.8525 61.1738 55.9205 62.7172 55.298C63.0168 55.2157 63.2794 55.034 63.4621 54.7828C63.5403 54.5925 63.5492 54.3808 63.4872 54.1846C63.4252 53.9884 63.2963 53.8203 63.123 53.7095C62.7714 53.4981 62.3648 53.3964 61.9552 53.4175C61.704 53.1105 61.9058 52.649 62.1505 52.3442C62.3952 52.0393 62.6915 51.6787 62.6013 51.2923C62.4553 50.7127 61.6439 50.6891 61.0579 50.8029C60.8432 50.453 60.8432 50.0172 60.7402 49.6136C60.6371 49.21 60.2936 48.785 59.9072 48.8408C59.5208 48.8966 59.2869 49.3238 58.9069 49.414C58.4668 49.517 58.0869 49.1263 57.7413 48.8365C57.3956 48.5467 56.7946 48.3621 56.5584 48.7464C56.4168 48.9739 56.5005 49.2916 56.3438 49.5192C56.0883 49.9056 55.4851 49.6673 55.103 49.3904C54.7209 49.1134 54.1198 48.8601 53.8622 49.2465C53.7956 49.3731 53.7465 49.5082 53.7163 49.648C53.6788 49.747 53.6275 49.8402 53.5638 49.9249C53.4887 49.6565 53.4651 49.3667 53.3964 49.0963C53.2912 48.6948 52.9478 48.2677 52.5614 48.3235C52.175 48.3793 51.941 48.8086 51.5632 48.8966C51.1231 49.0018 50.7431 48.609 50.3975 48.3192C50.0519 48.0294 49.4508 47.8448 49.2126 48.2312C49.0709 48.4587 49.1567 48.7764 48.9979 49.004C48.9675 49.0551 48.9256 49.0984 48.8755 49.1306C48.7472 49.1093 48.617 49.1007 48.487 49.1049C48.2337 48.8 48.4376 48.3428 48.6823 48.0315C48.927 47.7203 49.2254 47.3639 49.1331 46.9797C48.9893 46.3979 48.1757 46.3764 47.5875 46.4902C47.3729 46.1382 47.3729 45.7024 47.272 45.301C47.1711 44.8995 46.8233 44.4702 46.4369 44.5303C46.0505 44.5904 45.8165 45.0133 45.4387 45.1035C44.9986 45.2065 44.6187 44.8201 44.2731 44.526C43.9275 44.2319 43.3264 44.0537 43.0881 44.4359C42.9486 44.6505 43.0323 44.9833 42.8734 45.2087C42.618 45.5929 42.0148 45.3546 41.6348 45.0777C41.2549 44.8008 40.6495 44.5475 40.3919 44.9339C40.3234 45.0606 40.2736 45.1965 40.2438 45.3375C40.0678 45.8527 39.5075 46.1103 39.076 46.4387C38.6445 46.7671 38.301 47.4262 38.666 47.8276C38.8463 48.0272 39.1662 48.1024 39.2563 48.36C39.3658 48.6626 39.0416 48.9589 38.7883 49.1778C38.6227 49.3616 38.511 49.5875 38.4656 49.8307C38.4201 50.0738 38.4427 50.3248 38.5307 50.556C38.402 50.6723 38.2497 50.7594 38.0842 50.8115C37.6549 50.9145 37.2642 50.5259 36.9186 50.2361C36.573 49.9463 35.9719 49.7617 35.7358 50.146C35.5941 50.3607 35.6778 50.6912 35.5211 50.9188C35.2657 51.303 34.6624 51.0669 34.2825 50.79C33.9025 50.5131 33.2972 50.2598 33.0396 50.6462C32.9725 50.7728 32.9227 50.9078 32.8914 51.0476C32.7154 51.5606 32.1551 51.8182 31.7237 52.1488C31.2922 52.4794 30.9487 53.1341 31.3136 53.5377C31.4875 53.7395 31.7859 53.8211 31.889 54.0529C31.5841 53.9327 31.2342 53.9628 31.0925 54.1903C30.9509 54.4179 31.0367 54.7356 30.8779 54.961C30.6246 55.3474 30.0192 55.1112 29.6414 54.8322C29.2636 54.5531 28.6539 54.3019 28.3963 54.6883C28.33 54.8158 28.281 54.9515 28.2504 55.0919C28.0722 55.6071 27.514 55.8604 27.0826 56.191C26.6511 56.5216 26.3076 57.1806 26.6726 57.582C26.8529 57.7795 27.1727 57.8568 27.2629 58.1144C27.3745 58.4192 27.0482 58.7155 26.7971 58.9323C26.3677 59.2929 26.2926 60.377 26.855 60.6754C27.0933 60.7999 27.4454 60.8643 27.499 61.1047C27.5527 61.3451 27.3123 61.519 27.1556 61.6993C27.1194 61.746 27.0871 61.7956 27.059 61.8475C26.988 61.976 26.9432 62.1172 26.9269 62.2631C26.9107 62.409 26.9233 62.5566 26.9642 62.6976C27.0051 62.8386 27.0734 62.9701 27.1651 63.0846C27.2569 63.1992 27.3704 63.2945 27.499 63.3652C27.6343 63.4253 27.7996 63.4811 27.8511 63.6228C27.871 63.7283 27.859 63.8374 27.8167 63.9362C27.7635 64.1333 27.7454 64.3382 27.7631 64.5415C27.7587 64.5752 27.7624 64.6094 27.7739 64.6414C27.7853 64.6733 27.8042 64.7021 27.8289 64.7253C27.8536 64.7486 27.8835 64.7657 27.9161 64.7751C27.9487 64.7846 27.983 64.7862 28.0164 64.7798C28.83 64.8163 29.2206 64.5287 29.7165 65.2349C29.7605 65.3064 29.819 65.3678 29.8883 65.4152C29.9549 65.4489 30.0283 65.4672 30.1029 65.4689C30.6611 65.5161 31.0217 65.1684 31.5369 65.1018C32.2496 65.0117 32.3956 65.3766 33.0224 65.6707C34.0013 66.1344 34.4778 65.8489 34.6646 65.1791C34.7125 64.9893 34.7413 64.7951 34.7505 64.5995C34.7488 64.4536 34.7786 64.309 34.8379 64.1756C34.8972 64.0423 34.9845 63.9233 35.0939 63.8267H35.109C35.6306 63.8718 35.9848 63.5734 36.442 63.4811L36.734 63.4489C37.2771 63.4489 37.4574 63.7709 38.022 64.0285C38.2821 64.1621 38.569 64.2355 38.8613 64.2431C38.9429 64.548 38.6467 64.8206 38.3869 65.031C37.9576 65.3938 37.8867 66.4778 38.4492 66.7741C38.6832 66.8986 39.0395 66.9673 39.0932 67.2034C39.1468 67.4395 38.9064 67.6177 38.7497 67.7959C38.7131 67.8415 38.6808 67.8903 38.6531 67.9419C38.5103 68.2022 38.4764 68.5085 38.5589 68.7937C38.6414 69.079 38.8335 69.3199 39.0932 69.4638C39.2263 69.5282 39.3937 69.5798 39.4431 69.7193C39.4648 69.826 39.4536 69.9368 39.4109 70.037C39.3555 70.233 39.3373 70.4376 39.3572 70.6402C39.3529 70.6739 39.3566 70.7081 39.368 70.74C39.3795 70.772 39.3983 70.8008 39.423 70.824C39.4477 70.8473 39.4776 70.8643 39.5102 70.8738C39.5428 70.8833 39.5772 70.8849 39.6105 70.8785C40.4241 70.915 40.8148 70.6273 41.3107 71.3336C41.3526 71.4059 41.4107 71.4676 41.4803 71.5139C41.5508 71.5479 41.6274 71.5676 41.7057 71.5719C42.2638 71.6169 42.6244 71.267 43.1396 71.2026C43.8502 71.1125 43.9983 71.4774 44.6208 71.7715C45.604 72.233 46.0806 71.9497 46.2652 71.2799C46.3149 71.0896 46.3444 70.8946 46.3532 70.6982C46.4262 69.4939 47.5746 69.6849 48.5535 69.5218C48.5877 69.5197 48.6207 69.5084 48.649 69.4891C48.6773 69.4698 48.7 69.4433 48.7145 69.4123H48.7768C49.3349 69.4574 49.6956 69.1096 50.2086 69.0431C50.9234 68.9529 51.0673 69.3179 51.6941 69.612C52.6751 70.0756 53.1517 69.7901 53.3363 69.1204C53.386 68.9301 53.4155 68.7351 53.4243 68.5386C53.4887 67.6027 54.1971 67.5104 54.9678 67.4374C54.9796 67.6199 55.0379 67.7963 55.1371 67.95C55.2362 68.1037 55.373 68.2294 55.5345 68.3154C55.6719 68.3776 55.8372 68.4313 55.8887 68.573C55.9075 68.6786 55.8956 68.7874 55.8543 68.8864C55.8 69.0825 55.7818 69.2869 55.8007 69.4896C55.799 69.5594 55.8244 69.627 55.8715 69.6785C55.9246 69.7145 55.9878 69.7325 56.0518 69.73C56.8654 69.7665 57.2561 69.4789 57.7541 70.1873C57.7974 70.258 57.8552 70.3188 57.9237 70.3654C57.9903 70.3997 58.0636 70.4188 58.1384 70.4213C58.6965 70.4663 59.0572 70.1186 59.5724 70.052C60.2851 69.9619 60.431 70.3268 61.0579 70.6209C62.0389 71.0846 62.5154 70.7991 62.7001 70.1293C62.7487 69.9395 62.7782 69.7454 62.7881 69.5497C62.8589 68.3433 64.0095 68.5365 64.9884 68.3712C65.7526 68.2445 63.724 66.3125 65.2696 65.69C65.5685 65.6076 65.8305 65.4259 66.0124 65.1748C66.0913 64.9973 66.1088 64.7986 66.0621 64.6101C66.0155 64.4215 65.9073 64.2539 65.7548 64.1337Z" fill="#E0E0E0"/>
<path d="M37.324 71.3269C37.0314 71.1485 36.6916 71.0631 36.3494 71.0822C36.1348 70.8246 36.3108 70.4382 36.5126 70.1827C36.7144 69.9273 36.9655 69.6375 36.8861 69.3047C36.7702 68.8196 36.094 68.8046 35.5981 68.899C35.4156 68.6049 35.4221 68.24 35.3276 67.9073C35.2332 67.5745 34.9734 67.2268 34.6321 67.2633C34.2908 67.2997 34.1147 67.6668 33.7992 67.7398C33.4342 67.8278 33.1144 67.5037 32.8289 67.2611C32.5434 67.0185 32.0389 66.8661 31.8393 67.1838C31.7234 67.3749 31.7942 67.6454 31.6718 67.8278C31.4572 68.1563 30.9527 67.9523 30.6371 67.7205C30.3216 67.4887 29.8193 67.2783 29.6003 67.6003C29.5466 67.7067 29.5055 67.8191 29.4779 67.9352C29.332 68.3645 28.8683 68.5792 28.5055 68.8518C28.1427 69.1244 27.8615 69.6697 28.1663 70.011C28.3166 70.1763 28.5806 70.245 28.6558 70.4553C28.7481 70.7258 28.4797 70.9555 28.2672 71.1358C27.913 71.4385 27.8379 72.3423 28.3166 72.587C28.5141 72.69 28.8039 72.7244 28.8597 72.9412C28.9155 73.158 28.7073 73.2868 28.5871 73.4371C28.4362 73.6325 28.3688 73.8798 28.3998 74.1249C28.4308 74.3699 28.5575 74.5926 28.7524 74.7444C28.791 74.7741 28.8319 74.8006 28.8747 74.8238C28.9864 74.8775 29.1237 74.9226 29.1645 75.0385C29.1859 75.1297 29.1769 75.2255 29.1388 75.3111C29.0927 75.4743 29.0774 75.6446 29.0937 75.8134C29.0937 75.8713 29.1151 75.9271 29.1538 75.9701C29.1974 76.0017 29.2503 76.0176 29.3041 76.0152C29.9803 76.0453 30.3066 75.8005 30.7209 76.393C30.7571 76.4525 30.8053 76.5037 30.8625 76.5433C30.9206 76.5722 30.9844 76.5876 31.0493 76.5884C31.5151 76.627 31.8178 76.3394 32.245 76.2835C32.8353 76.2084 32.9598 76.5132 33.4793 76.758C34.2972 77.1422 34.6965 76.9061 34.8425 76.3458C34.8829 76.1884 34.9074 76.0273 34.9154 75.8649C34.9756 74.8603 35.933 75.0063 36.7487 74.8818C37.3927 74.7744 35.699 73.1644 36.9827 72.6471C37.233 72.5803 37.4524 72.4285 37.6031 72.2178C37.6688 72.0602 37.6769 71.8844 37.6258 71.7215C37.5748 71.5585 37.4679 71.4188 37.324 71.3269Z" fill="#E0E0E0"/>
<path d="M49.7797 65.7737L50.8294 62.4443L52.873 59.8167L52.5231 59.5248L50.5911 61.6264L50.2498 58.2969H49.6917C49.6917 58.2969 50.1489 62.2532 49.4899 63.7001C49.4899 63.7001 47.0942 69.7966 45.6259 71.1147C45.544 71.1922 45.4719 71.2794 45.4112 71.3744C44.9749 70.2518 44.4063 69.1853 43.7175 68.1973C44.2949 66.7247 45.5293 63.4854 45.95 61.7573C46.2783 60.4139 46.5249 59.0519 46.6885 57.6787L46.2119 57.625C46.2119 57.625 44.8552 64.0264 42.6141 66.9415C41.9512 66.3304 41.1991 65.8237 40.3837 65.4389C40.2013 64.5394 40.124 62.9745 40.7186 60.5294L40.2463 60.4092C39.6713 61.8563 39.3904 63.4033 39.4199 64.9602C39.0829 64.7902 38.7579 64.5973 38.4474 64.3827C36.3029 62.8543 34.7766 60.1065 34.7766 60.1065L34.3473 60.5359C34.3473 60.5359 36.1913 64.5823 38.7587 65.9347C41.3261 67.2871 42.9919 70.5801 43.125 71.4431C43.1615 71.69 43.4577 73.6456 43.0456 77.0717C40.3129 75.906 34.8883 72.6967 34.5383 72.4005L33.9072 73.2592L42.6699 79.5274C42.8073 87.8823 42.1762 96.5741 42.1977 98.4546H47.3003C47.1758 95.8614 46.1003 86.1048 46.5769 75.9146C46.6176 75.6634 46.6606 75.3758 46.7014 75.0409C47.1006 71.9154 49.4727 67.6413 50.6019 66.4263C51.3953 65.5873 52.2491 64.8074 53.1564 64.0929L52.8473 63.4274L49.7797 65.7737Z" fill="#E6E6E6"/>
<path d="M90.1599 39.9493C90.1593 39.6289 90.0318 39.3218 89.8053 39.0953C89.5788 38.8688 89.2717 38.7413 88.9513 38.7407C88.8342 38.7405 88.7177 38.7579 88.6057 38.7922C88.6229 38.6692 88.6315 38.5451 88.6315 38.4208C88.6315 37.7437 88.3631 37.0941 87.8851 36.6145C87.407 36.1349 86.7584 35.8643 86.0812 35.862C85.9236 35.8623 85.7662 35.8766 85.6111 35.905C85.3588 35.4904 84.9786 35.1692 84.5277 34.9897C84.0769 34.8102 83.5799 34.7822 83.1117 34.9099C82.6436 35.0376 82.2296 35.3141 81.9324 35.6976C81.6351 36.0812 81.4706 36.551 81.4638 37.0362H81.4251C80.8898 37.0535 80.3822 37.2783 80.0096 37.6631C79.637 38.0479 79.4287 38.5625 79.4287 39.0981C79.4287 39.6337 79.637 40.1483 80.0096 40.5331C80.3822 40.9179 80.8898 41.1427 81.4251 41.16H88.9943C89.3079 41.1494 89.605 41.017 89.8226 40.791C90.0402 40.565 90.1612 40.263 90.1599 39.9493Z" fill="#F0F0F0"/>
<path d="M109.604 51.949C109.604 51.6518 109.486 51.3668 109.276 51.1566C109.066 50.9465 108.781 50.8284 108.483 50.8284C108.375 50.8268 108.267 50.8428 108.164 50.8757C108.179 50.7611 108.187 50.6456 108.187 50.5301C108.184 49.9026 107.932 49.302 107.487 48.8595C107.042 48.4171 106.44 48.1687 105.813 48.1687C105.669 48.1691 105.525 48.182 105.384 48.2074C105.149 47.8239 104.797 47.5268 104.379 47.3608C103.962 47.1947 103.502 47.1687 103.068 47.2865C102.634 47.4044 102.251 47.6598 101.975 48.0143C101.698 48.3689 101.545 48.8035 101.537 49.2528H101.503C100.995 49.2528 100.509 49.4543 100.15 49.813C99.7914 50.1717 99.5898 50.6582 99.5898 51.1655C99.5898 51.6727 99.7914 52.1592 100.15 52.5179C100.509 52.8766 100.995 53.0781 101.503 53.0781H108.524C108.816 53.0681 109.092 52.9443 109.294 52.7334C109.496 52.5224 109.607 52.2409 109.604 51.949Z" fill="#E0E0E0"/>
<path d="M45.2114 36.1324C45.2114 35.9536 45.1403 35.7822 45.0139 35.6558C44.8875 35.5294 44.7161 35.4583 44.5373 35.4583C44.4718 35.4568 44.4065 35.4662 44.3441 35.4862C44.353 35.415 44.3573 35.3433 44.357 35.2716C44.3553 34.895 44.2047 34.5345 43.938 34.2686C43.6713 34.0027 43.3103 33.8532 42.9337 33.8526C42.8452 33.852 42.7567 33.8599 42.6697 33.8762C42.5289 33.6453 42.3169 33.4665 42.0656 33.3665C41.8143 33.2666 41.5373 33.2511 41.2764 33.3223C41.0155 33.3936 40.7848 33.5477 40.6191 33.7614C40.4534 33.9751 40.3617 34.237 40.3577 34.5074H40.3363C40.04 34.5202 39.7601 34.6469 39.555 34.8611C39.3499 35.0752 39.2354 35.3603 39.2354 35.6569C39.2354 35.9535 39.3499 36.2386 39.555 36.4528C39.7601 36.6669 40.04 36.7936 40.3363 36.8064H44.5566C44.732 36.8014 44.8986 36.7282 45.0208 36.6023C45.1431 36.4764 45.2114 36.3079 45.2114 36.1324Z" fill="#F0F0F0"/>
<path d="M143.183 39.8959C143.183 39.7415 143.152 39.5886 143.093 39.446C143.034 39.3034 142.947 39.1739 142.838 39.0648C142.729 38.9557 142.599 38.8693 142.456 38.8104C142.313 38.7515 142.161 38.7214 142.006 38.7217C141.893 38.7209 141.78 38.7375 141.671 38.771C141.688 38.6516 141.697 38.5311 141.697 38.4104C141.696 38.0453 141.614 37.6849 141.459 37.3546C141.303 37.0243 141.077 36.7322 140.796 36.4989C140.515 36.2656 140.187 36.0967 139.833 36.0041C139.48 35.9115 139.111 35.8976 138.752 35.9632C138.506 35.5609 138.136 35.2493 137.698 35.0754C137.259 34.9014 136.776 34.8745 136.321 34.9987C135.866 35.1229 135.464 35.3915 135.175 35.764C134.886 36.1366 134.726 36.5929 134.718 37.0644H134.682C134.15 37.0644 133.64 37.2757 133.264 37.6517C132.888 38.0277 132.677 38.5377 132.677 39.0694C132.677 39.6012 132.888 40.1111 133.264 40.4872C133.64 40.8632 134.15 41.0744 134.682 41.0744H142.041C142.347 41.066 142.638 40.938 142.852 40.7178C143.065 40.4975 143.184 40.2025 143.183 39.8959Z" fill="#F0F0F0"/>
<path d="M79.9939 54.1747C79.9939 53.8223 79.8539 53.4843 79.6047 53.2351C79.3555 52.9859 79.0175 52.8459 78.6651 52.8459C78.5364 52.8463 78.4085 52.8651 78.2851 52.9017C78.3052 52.7667 78.3145 52.6304 78.313 52.4939C78.3124 52.0809 78.2209 51.6732 78.0452 51.2995C77.8694 50.9258 77.6136 50.5954 77.2959 50.3315C76.9782 50.0677 76.6064 49.877 76.2068 49.7729C75.8072 49.6687 75.3896 49.6537 74.9835 49.729C74.7063 49.2735 74.2885 48.9204 73.7931 48.7232C73.2977 48.5259 72.7516 48.4951 72.2371 48.6354C71.7227 48.7757 71.2678 49.0795 70.9412 49.501C70.6145 49.9225 70.4337 50.4387 70.4262 50.9719H70.3832C69.7991 50.9973 69.2473 51.2473 68.843 51.6696C68.4386 52.0919 68.2129 52.6541 68.2129 53.2388C68.2129 53.8235 68.4386 54.3856 68.843 54.8079C69.2473 55.2303 69.7991 55.4802 70.3832 55.5057H78.7037C79.0499 55.4961 79.3787 55.3516 79.6198 55.1029C79.8609 54.8542 79.9951 54.5211 79.9939 54.1747Z" fill="#E0E0E0"/>
<path d="M131.574 98.3778H132.958V48.9572C132.958 47.7616 132.483 46.615 131.638 45.7696C130.792 44.9242 129.646 44.4492 128.45 44.4492H127.227V45.8338H128.45C129.275 45.835 130.066 46.1633 130.65 46.7468C131.233 47.3302 131.562 48.1213 131.563 48.9465L131.574 98.3778Z" fill="#E0E0E0"/>
<path d="M118.374 46.1534H128.343L128.116 44.6508C128.078 44.4049 127.963 44.1776 127.787 44.0021C127.611 43.8267 127.383 43.7124 127.137 43.6762C126.48 43.5796 125.621 43.4615 125.218 43.4615C124.039 43.4357 121.139 43.7384 119.709 43.8908C119.473 43.9165 119.25 44.0147 119.071 44.1718C118.892 44.329 118.767 44.5375 118.711 44.7688L118.374 46.1534Z" fill="#EBEBEB"/>
<path d="M119.428 47.2071H127.298C127.577 47.2071 127.845 47.0964 128.042 46.8992C128.24 46.702 128.351 46.4344 128.352 46.1553H118.374C118.374 46.2936 118.401 46.4305 118.454 46.5583C118.507 46.6861 118.585 46.8021 118.683 46.8998C118.781 46.9975 118.897 47.075 119.025 47.1277C119.153 47.1804 119.29 47.2074 119.428 47.2071Z" fill="#F5F5F5"/>
<path d="M126.836 53.8595C126.826 53.8591 126.815 53.8556 126.807 53.8495C126.798 53.8435 126.791 53.835 126.787 53.8251L124.917 49.4159C124.914 49.4093 124.913 49.4022 124.913 49.395C124.913 49.3878 124.915 49.3807 124.917 49.3741C124.92 49.3675 124.924 49.3615 124.929 49.3566C124.935 49.3516 124.941 49.3476 124.947 49.3451C124.954 49.3419 124.96 49.3402 124.967 49.3399C124.975 49.3396 124.981 49.3408 124.988 49.3435C124.994 49.3461 125 49.3501 125.005 49.3552C125.01 49.3603 125.014 49.3663 125.016 49.373L126.886 53.7844C126.889 53.7908 126.89 53.7978 126.89 53.8049C126.89 53.812 126.889 53.819 126.887 53.8256C126.884 53.8322 126.88 53.8382 126.875 53.8433C126.87 53.8483 126.864 53.8524 126.858 53.8552L126.836 53.8595Z" fill="#E0E0E0"/>
<path d="M122.978 56.6588C122.964 56.6588 122.951 56.6532 122.941 56.6431C122.93 56.633 122.925 56.6194 122.925 56.6051C122.925 55.3322 122.966 54.1451 123.004 52.9987C123.043 51.8524 123.082 50.6675 123.082 49.3945C123.082 49.3803 123.087 49.3666 123.097 49.3565C123.107 49.3465 123.121 49.3408 123.135 49.3408C123.149 49.3408 123.163 49.3465 123.173 49.3565C123.183 49.3666 123.189 49.3803 123.189 49.3945C123.189 50.6675 123.148 51.8546 123.112 53.0009C123.075 54.1472 123.032 55.3322 123.032 56.6051C123.032 56.6194 123.026 56.633 123.016 56.6431C123.006 56.6532 122.993 56.6588 122.978 56.6588Z" fill="#E0E0E0"/>
<path d="M118.848 52.8407C118.836 52.8405 118.824 52.8367 118.814 52.83C118.809 52.8251 118.805 52.8193 118.802 52.8129C118.799 52.8064 118.798 52.7994 118.798 52.7924C118.798 52.7854 118.799 52.7784 118.802 52.7719C118.805 52.7655 118.809 52.7596 118.814 52.7548L121.534 49.1592C121.538 49.1535 121.543 49.1488 121.55 49.1452C121.556 49.1416 121.562 49.1392 121.569 49.1382C121.576 49.1372 121.583 49.1376 121.59 49.1394C121.597 49.1411 121.603 49.1442 121.609 49.1484C121.614 49.1532 121.618 49.1591 121.621 49.1655C121.624 49.172 121.625 49.179 121.625 49.186C121.625 49.193 121.624 49.2 121.621 49.2065C121.618 49.2129 121.614 49.2187 121.609 49.2236L118.881 52.8106C118.878 52.8177 118.874 52.8241 118.868 52.8293C118.862 52.8345 118.856 52.8384 118.848 52.8407Z" fill="#E0E0E0"/>
<path d="M136.872 123.784C136.872 124.511 111.633 125.1 80.5004 125.1C49.3673 125.1 24.1289 124.507 24.1289 123.784C24.1289 123.06 49.3737 122.468 80.5004 122.468C111.627 122.468 136.872 123.058 136.872 123.784Z" fill="#F5F5F5"/>
<path d="M13.284 42.6738H34.4566C35.2047 42.6738 35.9221 42.971 36.4511 43.5C36.9801 44.029 37.2773 44.7464 37.2773 45.4945V90.845C37.2773 91.8129 36.8928 92.7411 36.2084 93.4255C35.5241 94.1099 34.5958 94.4944 33.628 94.4944H14.1191C13.1512 94.4944 12.223 94.1099 11.5386 93.4255C10.8542 92.7411 10.4697 91.8129 10.4697 90.845V45.4945C10.4697 44.7476 10.766 44.0311 11.2936 43.5023C11.8212 42.9735 12.537 42.6755 13.284 42.6738Z" fill="#263238"/>
<path d="M29.4291 43.8369L28.9998 44.6956H18.5069L17.8844 43.8369H12.9234C12.736 43.8358 12.5501 43.8716 12.3765 43.9423C12.2028 44.013 12.0448 44.1172 11.9115 44.249C11.7781 44.3807 11.672 44.5375 11.5992 44.7102C11.5265 44.883 11.4884 45.0684 11.4873 45.2559V90.9799C11.4907 91.5523 11.7212 92.0999 12.1282 92.5024C12.5351 92.9049 13.0852 93.1294 13.6576 93.1266H34.0831C34.3666 93.1283 34.6477 93.0741 34.9102 92.9671C35.1727 92.8601 35.4116 92.7024 35.6132 92.503C35.8147 92.3037 35.975 92.0665 36.0849 91.8052C36.1947 91.5438 36.252 91.2634 36.2534 90.9799V45.2559C36.2523 45.0684 36.2142 44.883 36.1415 44.7102C36.0687 44.5375 35.9626 44.3807 35.8292 44.249C35.6959 44.1172 35.5379 44.013 35.3642 43.9423C35.1906 43.8716 35.0047 43.8358 34.8173 43.8369H29.4291Z" fill="#22A599"/>
<path d="M23.4266 44.1872C23.6649 44.1872 23.8581 43.994 23.8581 43.7557C23.8581 43.5174 23.6649 43.3242 23.4266 43.3242C23.1883 43.3242 22.9951 43.5174 22.9951 43.7557C22.9951 43.994 23.1883 44.1872 23.4266 44.1872Z" fill="white"/>
<path d="M24.4957 43.7557C24.4957 43.7981 24.4831 43.8396 24.4596 43.8749C24.436 43.9102 24.4024 43.9378 24.3632 43.954C24.324 43.9703 24.2808 43.9745 24.2392 43.9662C24.1976 43.9579 24.1593 43.9375 24.1293 43.9075C24.0993 43.8775 24.0788 43.8392 24.0705 43.7976C24.0622 43.7559 24.0665 43.7128 24.0827 43.6735C24.099 43.6343 24.1265 43.6008 24.1618 43.5772C24.1971 43.5536 24.2386 43.541 24.2811 43.541C24.338 43.541 24.3926 43.5636 24.4329 43.6039C24.4731 43.6441 24.4957 43.6987 24.4957 43.7557Z" fill="white"/>
<path d="M34.8173 43.8369H29.4291L28.9998 44.6956H18.5069L17.8844 43.8369H12.9234C12.736 43.8358 12.5501 43.8716 12.3765 43.9423C12.2028 44.013 12.0448 44.1172 11.9115 44.249C11.7781 44.3807 11.672 44.5375 11.5992 44.7102C11.5265 44.883 11.4884 45.0684 11.4873 45.2559V56.9531H36.2534V45.2559C36.2523 45.0684 36.2142 44.883 36.1415 44.7102C36.0687 44.5375 35.9626 44.3807 35.8292 44.249C35.6959 44.1172 35.5379 44.013 35.3642 43.9423C35.1906 43.8716 35.0047 43.8358 34.8173 43.8369Z" fill="#22A599"/>
<path opacity="0.6" d="M33.0448 44.7373H32.8516V45.1731H33.0448V44.7373Z" fill="white"/>
<path opacity="0.6" d="M34.7233 44.5781H33.1777V45.3338H34.7233V44.5781Z" fill="white"/>
<path opacity="0.4" d="M36.2452 54.9961H11.5156V91.6139H36.2452V54.9961Z" fill="white"/>
<path opacity="0.2" d="M36.245 60.6291V58.7959L30.4276 64.1626L24.2838 62.1168L28.1328 54.9984H26.585L24.945 58.0252L13.0417 54.9941H11.5197V55.9795L15.9998 57.115L12.3634 63.5186L20.8921 65.5235L19.8788 67.4062L11.5068 65.3089V66.6806L19.2155 68.6126L16.7297 73.2193L12.7884 72.1117L11.5154 72.9145V74.5052L13.0181 73.5585L16.0857 74.4172L11.5154 82.8622V85.728L14.5014 80.2067L18.5629 81.3595V86.3977L26.834 91.6141H29.5388L19.9368 85.5605V81.7438L36.2515 86.3655V84.9831L31.385 83.5985L32.8726 75.688L36.26 76.5467V75.1771L27.1131 72.863L31.1682 65.3196L36.245 60.6291ZM14.4284 62.6363L17.3737 57.4693L24.2988 59.2338L21.5511 64.3128L14.4284 62.6363ZM31.5245 75.3488L30.054 83.2271L15.1497 78.9982L19.3228 71.2702L20.92 72.9875L25.9389 73.9342L31.5245 75.3488ZM25.7285 72.5453L21.6498 71.7703L20.0141 70.0208L23.6484 63.2974L29.6247 65.2917L25.7285 72.5453Z" fill="#323232"/>
<path opacity="0.6" d="M31.9513 52.9504H17.6029C17.3583 52.9504 17.1236 52.8535 16.9502 52.681C16.7768 52.5084 16.6789 52.2741 16.6777 52.0295C16.6783 51.7849 16.7757 51.5504 16.9487 51.3774C17.1217 51.2044 17.3562 51.107 17.6008 51.1064H31.9513C32.0725 51.107 32.1924 51.1314 32.3042 51.1784C32.416 51.2253 32.5174 51.2937 32.6027 51.3798C32.688 51.466 32.7556 51.568 32.8014 51.6802C32.8473 51.7924 32.8706 51.9126 32.87 52.0338C32.8683 52.2768 32.7709 52.5092 32.5989 52.6808C32.4269 52.8524 32.1942 52.9493 31.9513 52.9504Z" fill="white"/>
<path d="M15.5573 51.3746C15.4917 51.3088 15.4138 51.2566 15.3279 51.221C15.2421 51.1853 15.1501 51.167 15.0572 51.167C14.9642 51.167 14.8722 51.1853 14.7864 51.221C14.7006 51.2566 14.6226 51.3088 14.557 51.3746C14.4272 51.507 14.3545 51.6851 14.3545 51.8705C14.3545 52.0559 14.4272 52.234 14.557 52.3664L15.0529 52.8623L15.5488 52.3664C15.6797 52.2351 15.754 52.0577 15.7556 51.8723C15.7572 51.6868 15.686 51.5082 15.5573 51.3746ZM15.2804 52.0981C15.2363 52.1422 15.18 52.1722 15.1188 52.1843C15.0576 52.1965 14.9942 52.1902 14.9366 52.1663C14.8789 52.1424 14.8297 52.102 14.795 52.0501C14.7603 51.9982 14.7418 51.9372 14.7418 51.8748C14.7418 51.8124 14.7603 51.7514 14.795 51.6995C14.8297 51.6476 14.8789 51.6072 14.9366 51.5833C14.9942 51.5594 15.0576 51.5531 15.1188 51.5653C15.18 51.5774 15.2363 51.6074 15.2804 51.6515C15.31 51.6807 15.3335 51.7155 15.3496 51.7538C15.3656 51.7921 15.3739 51.8333 15.3739 51.8748C15.3739 51.9163 15.3656 51.9575 15.3496 51.9958C15.3335 52.0341 15.31 52.0689 15.2804 52.0981Z" fill="white"/>
<path d="M30.5626 82.9543C30.3862 82.9606 30.2156 83.0187 30.0719 83.1213C29.9283 83.2238 29.8181 83.3664 29.7549 83.5312C29.6917 83.696 29.6784 83.8758 29.7167 84.0481C29.755 84.2204 29.8431 84.3776 29.97 84.5002C30.097 84.6228 30.2573 84.7053 30.4308 84.7375C30.6043 84.7697 30.7835 84.7501 30.946 84.6812C31.1085 84.6123 31.2471 84.4971 31.3446 84.3499C31.4421 84.2028 31.4941 84.0302 31.4942 83.8537C31.4923 83.7334 31.4666 83.6147 31.4187 83.5044C31.3708 83.394 31.3016 83.2942 31.215 83.2107C31.1285 83.1271 31.0263 83.0615 30.9143 83.0175C30.8024 82.9735 30.6828 82.952 30.5626 82.9543ZM30.5626 84.4376C30.4475 84.4338 30.336 84.3962 30.2422 84.3294C30.1484 84.2627 30.0763 84.1698 30.0349 84.0623C29.9936 83.9548 29.9848 83.8375 30.0097 83.7251C30.0347 83.6126 30.0922 83.51 30.175 83.4301C30.2579 83.3501 30.3625 83.2964 30.4758 83.2755C30.5891 83.2547 30.7059 83.2677 30.8119 83.3129C30.9178 83.3581 31.0081 83.4335 31.0714 83.5296C31.1347 83.6258 31.1683 83.7386 31.1679 83.8537C31.1665 83.9318 31.1498 84.0089 31.1186 84.0805C31.0874 84.1521 31.0424 84.2168 30.9862 84.2711C30.93 84.3253 30.8636 84.3679 30.791 84.3965C30.7183 84.4251 30.6407 84.439 30.5626 84.4376Z" fill="white"/>
<path d="M30.9316 83.8534C30.9342 83.927 30.9147 83.9996 30.8757 84.062C30.8367 84.1244 30.78 84.1737 30.7128 84.2036C30.6456 84.2335 30.571 84.2427 30.4985 84.23C30.4261 84.2172 30.3591 84.1831 30.3062 84.132C30.2532 84.0809 30.2168 84.0152 30.2015 83.9432C30.1861 83.8713 30.1927 83.7964 30.2202 83.7282C30.2477 83.6599 30.295 83.6015 30.356 83.5603C30.4169 83.5192 30.4888 83.4971 30.5624 83.4971C30.6584 83.4959 30.7511 83.5327 30.8202 83.5994C30.8893 83.6661 30.9293 83.7574 30.9316 83.8534Z" fill="white"/>
<path opacity="0.4" d="M27.3705 58.1514L25.4062 61.8114L30.4295 63.2991L33.2029 60.5363C31.2134 59.8573 29.2658 59.0609 27.3705 58.1514Z" fill="white"/>
<path opacity="0.4" d="M36.2451 54.9941V57.4929L33.7872 59.9572C32.1342 59.3884 30.5028 58.7744 28.9142 58.0617C28.5128 57.8836 28.1135 57.6968 27.7207 57.5036L29.0581 54.9941H36.2451Z" fill="white"/>
<path opacity="0.4" d="M23.8806 64.1084L28.5453 65.6261L26.2119 70.3359L21.4785 68.8676L23.8806 64.1084Z" fill="white"/>
<path opacity="0.4" d="M28.5518 72.2167C28.5925 72.09 30.8444 67.5928 30.8444 67.5928L34.1803 68.5953L34.7685 73.6807L28.5518 72.2167Z" fill="white"/>
<path opacity="0.4" d="M31.6553 66.6907L35.15 67.5923L35.4313 63.7627L32.2757 65.4285L31.6553 66.6907Z" fill="white"/>
<path opacity="0.4" d="M21.7168 79.1911C21.7876 79.1353 23.3375 74.5264 23.3375 74.5264L30.5632 75.7543L29.3589 81.9066L21.7168 79.1911Z" fill="white"/>
<path opacity="0.4" d="M17.8285 76.5566L20.0074 77.25L18.9169 79.182C18.9169 79.182 16.6221 78.6733 16.6221 78.5251C16.6221 78.377 17.8285 76.5566 17.8285 76.5566Z" fill="white"/>
<path opacity="0.4" d="M17.9492 82.3916C17.8955 82.5183 16.571 91.6223 16.571 91.6223H11.5156L11.6659 88.5247L14.727 81.7197L17.9492 82.3916Z" fill="white"/>
<path opacity="0.4" d="M36.245 86.8828V90.7232L30.7173 90.9378L25.9131 87.4838C25.9131 87.4838 26.7396 85.1869 26.9864 84.457L36.245 86.8828Z" fill="white"/>
<path opacity="0.4" d="M26.2477 84.2507L22.0981 83.1602L21.5078 85.1286L25.2645 87.0886C25.2645 87.0886 26.2477 84.4374 26.2477 84.2507Z" fill="white"/>
<path opacity="0.4" d="M36.2447 79.0025V83.197L32.4258 82.392L33.2029 78.4229L36.2447 79.0025Z" fill="white"/>
<path opacity="0.4" d="M13.3955 70.9624L14.6062 68.292L17.9786 69.2516L16.6219 72.0422L13.3955 70.9624Z" fill="white"/>
<path opacity="0.4" d="M16.4678 61.6722L18.1314 58.7656L22.6416 60.0279L21.1282 63.1319L16.4678 61.6722Z" fill="white"/>
<path opacity="0.4" d="M25.4817 54.9941C25.0524 55.8099 24.5243 56.8467 24.4384 56.9133C24.3525 56.9798 18.7755 55.6145 16.3154 54.9941H25.4817Z" fill="white"/>
<path opacity="0.4" d="M14.6047 57.9136L11.5156 64.1432V57.1387L14.6047 57.9136Z" fill="white"/>
<path d="M30.9323 82.7718H30.898C30.849 82.7633 30.8051 82.7363 30.7755 82.6963C30.7459 82.6563 30.7329 82.6065 30.7391 82.5571L32.0808 75.0781C28.588 74.0502 25.0395 73.2217 21.4527 72.5966C21.4102 72.5896 21.3711 72.5693 21.341 72.5386L19.0763 70.1773C19.0493 70.1492 19.0318 70.1134 19.0264 70.0748C19.021 70.0363 19.028 69.997 19.0462 69.9626L21.6823 65.0704L13.3726 63.2564C13.3477 63.2516 13.3241 63.2418 13.3031 63.2277C13.2821 63.2135 13.2641 63.1953 13.2503 63.174C13.2365 63.1528 13.2271 63.129 13.2226 63.1041C13.2182 63.0791 13.2188 63.0536 13.2245 63.0289C13.2287 63.0116 13.2352 62.995 13.2438 62.9795L16.0345 58.0551C16.0633 58.0125 16.1065 57.9817 16.1562 57.9683C16.2058 57.955 16.2586 57.9598 16.3049 57.9821C16.3274 57.9939 16.3473 58.0103 16.3634 58.03C16.3794 58.0498 16.3913 58.0725 16.3983 58.097C16.4053 58.1215 16.4073 58.1471 16.4042 58.1723C16.4011 58.1976 16.3929 58.222 16.3801 58.244L13.6946 62.9495L22.0001 64.7634C22.0248 64.7685 22.0482 64.7784 22.0691 64.7927C22.09 64.8069 22.1078 64.8251 22.1216 64.8463C22.1353 64.8674 22.1448 64.8911 22.1493 64.9159C22.1539 64.9408 22.1535 64.9663 22.1482 64.9909C22.1453 65.0069 22.1395 65.0222 22.131 65.036L19.4498 70.0141L21.575 72.2316C25.2142 72.8681 28.8137 73.7139 32.3556 74.7647C32.4007 74.7773 32.4396 74.8063 32.4646 74.846C32.4896 74.8856 32.4989 74.9332 32.4908 74.9794L31.1277 82.6129C31.1191 82.6582 31.0948 82.6989 31.059 82.728C31.0233 82.7571 30.9784 82.7726 30.9323 82.7718Z" fill="white"/>
<path d="M17.0898 55.5988C16.8891 55.4021 16.6194 55.292 16.3384 55.292C16.0575 55.292 15.7877 55.4021 15.5871 55.5988C15.3904 55.7995 15.2803 56.0692 15.2803 56.3501C15.2803 56.6311 15.3904 56.9008 15.5871 57.1015L16.3384 57.8528L17.0898 57.1015C17.2864 56.9008 17.3966 56.6311 17.3966 56.3501C17.3966 56.0692 17.2864 55.7995 17.0898 55.5988ZM16.6604 56.6893C16.5935 56.7564 16.5082 56.8021 16.4153 56.8206C16.3224 56.8392 16.2261 56.8298 16.1386 56.7936C16.0511 56.7574 15.9762 56.696 15.9236 56.6173C15.8709 56.5385 15.8428 56.4459 15.8428 56.3512C15.8428 56.2565 15.8709 56.1639 15.9236 56.0851C15.9762 56.0064 16.0511 55.945 16.1386 55.9088C16.2261 55.8726 16.3224 55.8632 16.4153 55.8818C16.5082 55.9004 16.5935 55.9461 16.6604 56.0131C16.7063 56.0571 16.7429 56.1098 16.7682 56.1681C16.7936 56.2264 16.807 56.2891 16.8078 56.3526C16.8086 56.4162 16.7967 56.4792 16.7729 56.5382C16.7491 56.5971 16.7138 56.6506 16.669 56.6958L16.6604 56.6893Z" fill="white"/>
<path d="M29.0579 55.9531H20.0398C19.5928 55.9531 19.2305 56.3155 19.2305 56.7624V59.83C19.2305 60.277 19.5928 60.6393 20.0398 60.6393H29.0579C29.5049 60.6393 29.8672 60.277 29.8672 59.83V56.7624C29.8672 56.3155 29.5049 55.9531 29.0579 55.9531Z" fill="white"/>
<path d="M21.7223 58.222C22.0792 58.222 22.3685 57.9327 22.3685 57.5758C22.3685 57.219 22.0792 56.9297 21.7223 56.9297C21.3655 56.9297 21.0762 57.219 21.0762 57.5758C21.0762 57.9327 21.3655 58.222 21.7223 58.222Z" fill="#22A599"/>
<path d="M21.7228 58.2969C21.4493 58.2974 21.1872 58.4065 20.994 58.6001C20.8009 58.7936 20.6924 59.0559 20.6924 59.3294H22.7553C22.7553 59.1938 22.7286 59.0596 22.6767 58.9343C22.6248 58.809 22.5488 58.6952 22.4529 58.5993C22.357 58.5034 22.2432 58.4274 22.1179 58.3755C21.9926 58.3236 21.8584 58.2969 21.7228 58.2969Z" fill="#22A599"/>
<path d="M24.6098 58.2226C24.7372 58.2226 24.8617 58.1848 24.9676 58.114C25.0735 58.0433 25.1561 57.9427 25.2048 57.825C25.2535 57.7073 25.2663 57.5779 25.2414 57.4529C25.2166 57.328 25.1553 57.2133 25.0652 57.1232C24.9751 57.0331 24.8604 56.9718 24.7355 56.9469C24.6105 56.9221 24.481 56.9348 24.3634 56.9836C24.2457 57.0323 24.1451 57.1149 24.0744 57.2208C24.0036 57.3267 23.9658 57.4512 23.9658 57.5786C23.9658 57.7494 24.0337 57.9132 24.1544 58.0339C24.2752 58.1547 24.439 58.2226 24.6098 58.2226Z" fill="#22A599"/>
<path d="M24.6097 58.2969C24.336 58.2974 24.0737 58.4064 23.8802 58.5999C23.6867 58.7934 23.5777 59.0557 23.5771 59.3294H25.6422C25.6422 59.0556 25.5335 58.7929 25.3398 58.5993C25.1462 58.4057 24.8835 58.2969 24.6097 58.2969Z" fill="#22A599"/>
<path d="M27.4967 58.2756C27.3583 58.2756 27.223 58.2346 27.1079 58.1577C26.9928 58.0808 26.9031 57.9715 26.8501 57.8436C26.7972 57.7157 26.7833 57.575 26.8103 57.4393C26.8373 57.3035 26.904 57.1788 27.0018 57.0809C27.0997 56.9831 27.2244 56.9164 27.3602 56.8894C27.4959 56.8624 27.6366 56.8763 27.7645 56.9292C27.8924 56.9822 28.0017 57.0719 28.0786 57.187C28.1555 57.3021 28.1965 57.4374 28.1965 57.5758C28.1965 57.7614 28.1228 57.9394 27.9915 58.0706C27.8603 58.2019 27.6823 58.2756 27.4967 58.2756ZM27.4967 56.9876C27.3795 56.9876 27.265 57.0224 27.1675 57.0875C27.0701 57.1526 26.9942 57.2451 26.9493 57.3534C26.9045 57.4616 26.8927 57.5807 26.9156 57.6957C26.9385 57.8106 26.9949 57.9162 27.0777 57.999C27.1606 58.0819 27.2662 58.1383 27.3811 58.1612C27.496 58.184 27.6152 58.1723 27.7234 58.1275C27.8317 58.0826 27.9242 58.0067 27.9893 57.9092C28.0544 57.8118 28.0892 57.6973 28.0892 57.5801C28.0895 57.502 28.0743 57.4246 28.0447 57.3524C28.0151 57.2801 27.9715 57.2144 27.9165 57.159C27.8615 57.1036 27.7961 57.0595 27.7241 57.0294C27.652 56.9993 27.5748 56.9836 27.4967 56.9833V56.9876Z" fill="#22A599"/>
<path d="M28.5832 59.383H26.4043V59.3294C26.4043 59.0413 26.5187 58.765 26.7224 58.5613C26.9261 58.3576 27.2024 58.2432 27.4905 58.2432C27.7786 58.2432 28.0549 58.3576 28.2586 58.5613C28.4623 58.765 28.5767 59.0413 28.5767 59.3294L28.5832 59.383ZM26.5202 59.2757H28.4737C28.4572 59.0279 28.3472 58.7955 28.1658 58.6258C27.9845 58.4561 27.7453 58.3616 27.4969 58.3616C27.2486 58.3616 27.0094 58.4561 26.8281 58.6258C26.6467 58.7955 26.5367 59.0279 26.5202 59.2757Z" fill="#22A599"/>
<path d="M19.7244 55.9531H17.874C17.874 55.9531 19.4239 57.1982 19.4604 57.1982C19.4969 57.1982 19.7244 55.9531 19.7244 55.9531Z" fill="white"/>
<path opacity="0.4" d="M17.949 91.6136C17.7901 91.6136 19.2026 88.5803 19.1941 88.5224C19.1554 88.2798 24.4126 91.6136 24.4126 91.6136H17.949Z" fill="white"/>
<path d="M79.9974 49.2764C81.5154 47.8042 83.5515 46.9881 85.6661 47.0041C87.7806 47.0202 89.8041 47.8673 91.2995 49.3624C92.7949 50.8576 93.6424 52.8808 93.6588 54.9954C93.6753 57.11 92.8595 59.1462 91.3876 60.6645L86.8388 65.2154C86.5353 65.5188 86.1238 65.6892 85.6946 65.6892C85.2655 65.6892 84.854 65.5188 84.5505 65.2154L79.9974 60.6624C78.4883 59.1521 77.6406 57.1044 77.6406 54.9694C77.6406 52.8344 78.4883 50.7867 79.9974 49.2764ZM85.6925 58.7218C86.4321 58.7218 87.1551 58.5025 87.7701 58.0916C88.385 57.6807 88.8643 57.0966 89.1473 56.4133C89.4304 55.73 89.5044 54.9781 89.3601 54.2528C89.2158 53.5274 88.8597 52.861 88.3367 52.3381C87.8137 51.8151 87.1474 51.4589 86.422 51.3147C85.6966 51.1704 84.9448 51.2444 84.2615 51.5274C83.5782 51.8105 82.9941 52.2898 82.5832 52.9047C82.1723 53.5197 81.953 54.2427 81.953 54.9823C81.9553 55.9728 82.3502 56.9219 83.0512 57.6217C83.7522 58.3215 84.702 58.7148 85.6925 58.7153V58.7218Z" fill="#22A599"/>
<path d="M128.064 64.6619H127.849V56.8631H93.5518V56.6484H128.064V64.6619Z" fill="#22A599"/>
<path d="M127.956 65.0783C128.429 65.0783 128.813 64.6948 128.813 64.2218C128.813 63.7487 128.429 63.3652 127.956 63.3652C127.483 63.3652 127.1 63.7487 127.1 64.2218C127.1 64.6948 127.483 65.0783 127.956 65.0783Z" fill="#22A599"/>
<path d="M152.581 59.9998C154.647 58.8154 155.362 56.18 154.178 54.1136C152.993 52.0471 150.358 51.3321 148.291 52.5165C146.225 53.701 145.51 56.3363 146.694 58.4028C147.879 60.4692 150.514 61.1842 152.581 59.9998Z" fill="#22A599"/>
<path d="M147.549 58.0464L146.446 57.9219L145.993 59.2485L147.367 59.1777L147.549 58.0464Z" fill="#22A599"/>
<path d="M155.681 56.1012C155.667 56.1001 155.654 56.0936 155.645 56.0832C155.636 56.0728 155.631 56.0592 155.631 56.0454C155.661 55.3519 155.52 54.6619 155.22 54.0357C154.921 53.4095 154.472 52.8664 153.914 52.454C153.907 52.4504 153.901 52.4455 153.896 52.4394C153.891 52.4333 153.888 52.4262 153.886 52.4187C153.884 52.4112 153.884 52.4033 153.886 52.3958C153.887 52.3882 153.89 52.381 153.895 52.3747C153.9 52.3684 153.905 52.3632 153.912 52.3594C153.919 52.3556 153.926 52.3533 153.934 52.3527C153.942 52.3521 153.95 52.3531 153.957 52.3558C153.964 52.3585 153.971 52.3627 153.976 52.3681C154.55 52.7905 155.011 53.3473 155.318 53.9897C155.626 54.632 155.771 55.3402 155.741 56.0518C155.74 56.059 155.738 56.0661 155.735 56.0726C155.732 56.079 155.727 56.0848 155.721 56.0894C155.716 56.094 155.709 56.0974 155.702 56.0994C155.695 56.1015 155.688 56.1021 155.681 56.1012Z" fill="#22A599"/>
<path d="M155.505 57.3675C155.498 57.3698 155.49 57.3698 155.483 57.3675C155.477 57.3652 155.471 57.3615 155.466 57.3567C155.46 57.3519 155.456 57.346 155.454 57.3395C155.451 57.333 155.45 57.326 155.45 57.319C155.451 57.312 155.452 57.3051 155.455 57.2989C155.534 57.1068 155.572 56.9009 155.569 56.6935C155.569 56.6865 155.569 56.6794 155.572 56.6728C155.574 56.6661 155.578 56.66 155.583 56.655C155.588 56.6499 155.594 56.6459 155.6 56.6433C155.607 56.6407 155.614 56.6395 155.621 56.6398C155.628 56.6392 155.635 56.6401 155.642 56.6424C155.648 56.6448 155.655 56.6485 155.66 56.6533C155.665 56.6582 155.669 56.664 155.672 56.6706C155.675 56.6771 155.677 56.6842 155.677 56.6913C155.68 56.9121 155.638 57.1311 155.554 57.3353C155.55 57.3449 155.543 57.3531 155.534 57.3588C155.525 57.3646 155.515 57.3676 155.505 57.3675Z" fill="#22A599"/>
<path d="M150.541 56.273C150.711 56.273 150.877 56.2226 151.018 56.1283C151.16 56.0339 151.27 55.8998 151.335 55.7429C151.4 55.586 151.417 55.4134 151.383 55.2468C151.35 55.0802 151.269 54.9272 151.148 54.8072C151.028 54.6871 150.875 54.6053 150.709 54.5722C150.542 54.539 150.37 54.556 150.213 54.621C150.056 54.686 149.922 54.7961 149.827 54.9373C149.733 55.0785 149.683 55.2445 149.683 55.4143C149.683 55.6421 149.773 55.8605 149.934 56.0215C150.095 56.1825 150.314 56.273 150.541 56.273Z" fill="white"/>
<path d="M150.541 56.374C150.36 56.374 150.18 56.4098 150.013 56.4793C149.845 56.5488 149.693 56.6507 149.565 56.7791C149.436 56.9075 149.335 57.0599 149.266 57.2276C149.196 57.3953 149.161 57.575 149.161 57.7565H151.924C151.924 57.3898 151.778 57.0382 151.519 56.7789C151.26 56.5197 150.908 56.374 150.541 56.374Z" fill="white"/>
<path d="M63.7653 65.8102C64.6444 63.5966 63.5626 61.0894 61.3489 60.2103C59.1353 59.3312 56.6281 60.413 55.749 62.6266C54.8699 64.8403 55.9517 67.3474 58.1654 68.2266C60.379 69.1057 62.8862 68.0238 63.7653 65.8102Z" fill="#22A599"/>
<path d="M61.4527 67.1455L61.1543 68.2167L62.3908 68.8736L62.541 67.5061L61.4527 67.1455Z" fill="#22A599"/>
<path d="M65.0055 64.0693C64.9911 64.0682 64.9776 64.0616 64.968 64.0507C64.9584 64.0399 64.9534 64.0258 64.954 64.0114C64.9838 63.3182 64.8427 62.6283 64.5433 62.0024C64.2438 61.3765 63.7951 60.8338 63.2366 60.4221C63.225 60.4139 63.2171 60.4013 63.2146 60.3872C63.2122 60.3731 63.2155 60.3587 63.2238 60.347C63.232 60.3353 63.2446 60.3274 63.2587 60.325C63.2728 60.3226 63.2872 60.3259 63.2989 60.3341C63.8726 60.7563 64.3336 61.3132 64.6413 61.9556C64.949 62.5979 65.094 63.3062 65.0635 64.0178C65.0624 64.0322 65.0557 64.0457 65.0449 64.0553C65.0341 64.0649 65.02 64.0699 65.0055 64.0693Z" fill="#22A599"/>
<path d="M64.8296 65.3361H64.8082C64.7954 65.33 64.7854 65.3193 64.7803 65.3062C64.7751 65.293 64.7751 65.2784 64.7803 65.2653C64.8593 65.0742 64.898 64.8688 64.894 64.6621C64.894 64.6478 64.8997 64.6342 64.9097 64.6241C64.9198 64.6141 64.9335 64.6084 64.9477 64.6084C64.9619 64.6084 64.9756 64.6141 64.9856 64.6241C64.9957 64.6342 65.0014 64.6478 65.0014 64.6621C65.0047 64.8828 64.9631 65.1019 64.879 65.3061C64.8745 65.3153 64.8675 65.323 64.8587 65.3283C64.85 65.3336 64.8399 65.3363 64.8296 65.3361Z" fill="#22A599"/>
<path d="M59.7587 64.3464C60.2364 64.3464 60.6238 63.9591 60.6238 63.4813C60.6238 63.0035 60.2364 62.6162 59.7587 62.6162C59.2809 62.6162 58.8936 63.0035 58.8936 63.4813C58.8936 63.9591 59.2809 64.3464 59.7587 64.3464Z" fill="white"/>
<path d="M59.7592 64.4473C59.3931 64.4473 59.042 64.5927 58.7832 64.8515C58.5243 65.1104 58.3789 65.4615 58.3789 65.8276H61.1417C61.1417 65.6461 61.1059 65.4665 61.0364 65.2989C60.9669 65.1312 60.865 64.979 60.7366 64.8508C60.6082 64.7226 60.4558 64.621 60.2881 64.5517C60.1204 64.4825 59.9407 64.447 59.7592 64.4473Z" fill="white"/>
<path d="M151.512 111.275L153.624 109.611C154.972 111.146 156.061 112.675 156.881 113.587L156.372 114.783L154.989 114.508C153.895 113.363 152.733 112.283 151.512 111.275Z" fill="#B97964"/>
<path d="M153.536 113.479L154.359 112.956C155.2 113.385 155.367 113.041 155.471 112.286C155.685 112.105 155.93 112.339 155.996 112.4L157.48 113.741C157.54 113.795 157.577 113.87 157.581 113.951C157.586 114.031 157.559 114.11 157.506 114.171C157.485 114.193 157.462 114.212 157.437 114.229L155.464 115.491L152.699 117.251C151.946 117.732 151.306 117.073 151.572 116.805C152.772 115.607 153.504 114.568 153.672 113.885C153.702 113.756 153.59 113.754 153.536 113.479Z" fill="#22A599"/>
<path d="M154.13 114.263C154.122 114.265 154.114 114.265 154.107 114.263C154.002 114.215 153.887 114.19 153.772 114.19C153.656 114.19 153.542 114.215 153.437 114.263C153.43 114.266 153.423 114.267 153.416 114.267C153.409 114.267 153.402 114.266 153.396 114.264C153.389 114.261 153.383 114.257 153.378 114.252C153.373 114.247 153.369 114.241 153.366 114.235C153.363 114.229 153.361 114.222 153.36 114.215C153.36 114.208 153.361 114.2 153.363 114.194C153.366 114.187 153.37 114.181 153.374 114.176C153.379 114.171 153.385 114.167 153.392 114.164C153.511 114.109 153.641 114.081 153.773 114.081C153.904 114.081 154.034 114.109 154.154 114.164C154.167 114.17 154.176 114.181 154.181 114.194C154.186 114.207 154.185 114.222 154.18 114.235C154.174 114.243 154.167 114.25 154.158 114.255C154.15 114.26 154.14 114.263 154.13 114.263Z" fill="#263238"/>
<path d="M153.938 114.778H153.914C153.809 114.73 153.695 114.705 153.579 114.705C153.464 114.705 153.349 114.73 153.244 114.778C153.238 114.781 153.231 114.783 153.224 114.784C153.217 114.784 153.21 114.783 153.203 114.781C153.197 114.778 153.191 114.774 153.186 114.77C153.18 114.765 153.176 114.759 153.174 114.752C153.17 114.746 153.169 114.739 153.168 114.732C153.168 114.725 153.169 114.718 153.171 114.711C153.173 114.705 153.177 114.699 153.182 114.693C153.187 114.688 153.193 114.684 153.199 114.681C153.319 114.626 153.449 114.598 153.58 114.598C153.712 114.598 153.842 114.626 153.961 114.681C153.974 114.688 153.984 114.698 153.989 114.712C153.994 114.725 153.993 114.739 153.987 114.752C153.982 114.76 153.974 114.767 153.966 114.772C153.957 114.776 153.948 114.778 153.938 114.778Z" fill="#263238"/>
<path d="M153.624 115.308C153.617 115.31 153.609 115.31 153.602 115.308C153.497 115.26 153.382 115.235 153.266 115.235C153.15 115.235 153.036 115.26 152.93 115.308C152.924 115.311 152.917 115.312 152.91 115.313C152.903 115.313 152.895 115.312 152.889 115.309C152.882 115.307 152.876 115.303 152.871 115.298C152.866 115.293 152.861 115.287 152.858 115.281C152.855 115.274 152.854 115.267 152.854 115.26C152.853 115.253 152.854 115.246 152.857 115.239C152.859 115.233 152.863 115.227 152.868 115.221C152.873 115.216 152.879 115.212 152.885 115.209C153.005 115.154 153.135 115.126 153.266 115.126C153.398 115.126 153.528 115.154 153.647 115.209C153.654 115.212 153.66 115.216 153.665 115.221C153.669 115.226 153.673 115.232 153.676 115.239C153.678 115.245 153.679 115.252 153.679 115.26C153.678 115.267 153.676 115.273 153.673 115.28C153.668 115.289 153.661 115.296 153.653 115.301C153.644 115.306 153.634 115.308 153.624 115.308Z" fill="#263238"/>
<path opacity="0.7" d="M157.506 114.168C157.485 114.19 157.462 114.209 157.437 114.226L155.464 115.49L152.699 117.25C152.556 117.357 152.383 117.416 152.205 117.42C152.026 117.424 151.851 117.372 151.703 117.272C151.819 117.199 157.338 113.743 157.394 113.672L157.501 113.775C157.549 113.829 157.576 113.898 157.577 113.971C157.578 114.043 157.553 114.113 157.506 114.168Z" fill="white"/>
<path d="M139.046 111.215L142.324 113.235C142.079 115.693 141.465 117.925 141.703 119.132L140.647 119.89L139.207 118.387C139.207 118.387 139.329 113.988 139.046 111.215Z" fill="#B97964"/>
<path d="M139.076 117.303L140.051 117.283C140.549 118.082 140.869 117.88 141.339 117.283C141.622 117.245 141.704 117.567 141.73 117.655L142.301 119.57C142.324 119.647 142.316 119.73 142.279 119.801C142.242 119.872 142.178 119.925 142.101 119.95C142.072 119.958 142.043 119.962 142.013 119.963L139.673 120.012L136.397 120.083C135.504 120.1 135.3 119.205 135.667 119.115C137.314 118.713 138.473 118.202 138.975 117.709C139.076 117.638 138.978 117.567 139.076 117.303Z" fill="#22A599"/>
<path d="M139.205 118.281C139.196 118.282 139.187 118.28 139.179 118.276C139.171 118.271 139.165 118.265 139.16 118.258C139.096 118.162 139.011 118.08 138.913 118.02C138.814 117.959 138.704 117.921 138.589 117.908C138.582 117.907 138.575 117.905 138.569 117.901C138.562 117.898 138.557 117.893 138.552 117.888C138.548 117.882 138.545 117.876 138.543 117.869C138.541 117.862 138.541 117.855 138.541 117.848C138.542 117.841 138.544 117.834 138.547 117.827C138.551 117.821 138.555 117.815 138.561 117.811C138.567 117.806 138.573 117.803 138.58 117.801C138.587 117.8 138.594 117.799 138.602 117.801C138.731 117.817 138.856 117.861 138.967 117.93C139.078 117.999 139.173 118.091 139.246 118.2C139.253 118.212 139.256 118.226 139.253 118.239C139.25 118.253 139.242 118.265 139.231 118.273C139.223 118.278 139.214 118.281 139.205 118.281Z" fill="#263238"/>
<path d="M138.771 118.629C138.762 118.629 138.753 118.627 138.746 118.623C138.738 118.619 138.731 118.613 138.726 118.605C138.661 118.509 138.577 118.428 138.479 118.367C138.38 118.307 138.27 118.268 138.155 118.253C138.141 118.252 138.128 118.245 138.119 118.234C138.111 118.223 138.106 118.209 138.108 118.195C138.108 118.188 138.11 118.181 138.113 118.175C138.117 118.169 138.122 118.163 138.127 118.158C138.133 118.154 138.139 118.151 138.146 118.149C138.153 118.147 138.161 118.147 138.168 118.148C138.297 118.165 138.422 118.209 138.533 118.277C138.644 118.346 138.739 118.437 138.812 118.545C138.819 118.557 138.822 118.572 138.819 118.586C138.816 118.6 138.808 118.612 138.797 118.62C138.789 118.626 138.78 118.629 138.771 118.629Z" fill="#263238"/>
<path d="M138.23 118.925C138.221 118.926 138.212 118.924 138.204 118.919C138.196 118.914 138.189 118.908 138.185 118.899C138.121 118.803 138.036 118.722 137.938 118.662C137.839 118.601 137.729 118.563 137.614 118.549C137.607 118.549 137.6 118.547 137.594 118.543C137.588 118.54 137.582 118.535 137.578 118.529C137.573 118.524 137.57 118.517 137.568 118.51C137.566 118.504 137.566 118.496 137.567 118.489C137.567 118.482 137.569 118.475 137.572 118.469C137.575 118.463 137.579 118.457 137.585 118.453C137.59 118.448 137.597 118.445 137.604 118.443C137.611 118.441 137.618 118.441 137.625 118.442C137.755 118.459 137.879 118.503 137.99 118.572C138.101 118.64 138.196 118.733 138.269 118.841C138.274 118.85 138.276 118.859 138.276 118.868C138.277 118.877 138.275 118.887 138.27 118.895C138.266 118.903 138.26 118.911 138.252 118.916C138.244 118.921 138.235 118.924 138.226 118.925H138.23Z" fill="#263238"/>
<path opacity="0.7" d="M142.109 119.953C142.081 119.962 142.051 119.966 142.021 119.966L139.681 120.016L136.406 120.086C136.228 120.102 136.05 120.062 135.896 119.972C135.742 119.882 135.62 119.747 135.547 119.584C135.682 119.584 142.202 119.496 142.279 119.464L142.317 119.608C142.331 119.681 142.317 119.756 142.279 119.82C142.24 119.884 142.18 119.931 142.109 119.953Z" fill="white"/>
<path d="M143.472 64.2866C143.472 64.2866 143.105 63.0759 143.491 60.8176L143.369 60.7747C143.423 60.4591 143.483 60.165 143.543 59.916C143.543 59.9124 143.543 59.9088 143.543 59.9053L140.752 62.0927C140.902 62.784 140.804 64.1643 140.72 64.7524C140.72 64.7524 140.458 65.8258 141.838 65.7184C142.856 65.6326 143.472 64.2866 143.472 64.2866Z" fill="#B97964"/>
<path opacity="0.2" d="M140.821 63.078L142.5 62.4941C142.403 63.048 142.002 63.7371 140.811 63.9238C140.837 63.6426 140.841 63.3598 140.821 63.078Z" fill="#323232"/>
<path d="M143.398 58.4447C143.411 60.3638 143.456 61.45 142.554 62.4847C141.2 64.0453 138.834 63.3434 138.246 61.4672C137.718 59.7713 137.784 56.9184 139.609 56.0469C140.013 55.8541 140.46 55.7671 140.907 55.7938C141.354 55.8205 141.787 55.9601 142.165 56.1997C142.544 56.4392 142.855 56.7707 143.071 57.1633C143.286 57.556 143.399 57.9968 143.398 58.4447Z" fill="#B97964"/>
<path d="M143.49 56.1283C143.155 55.0936 140.514 55.2697 139.815 55.8493C139.709 55.9373 141.317 56.6178 141.229 56.5899L141.983 56.7938C142.094 56.7616 142.326 56.8775 142.466 57.2231C142.466 57.2231 142.582 60.1598 143.47 60.9519C144.114 60.5805 144.076 59.4149 144.239 58.7108C144.481 57.6568 144.756 56.1219 143.49 56.1283Z" fill="#263238"/>
<path d="M144.267 59.9868C144.21 60.2184 144.107 60.4363 143.966 60.628C143.824 60.8196 143.645 60.9811 143.44 61.1031C142.889 61.4251 142.633 60.8155 142.646 60.2101C142.659 59.6648 142.773 58.9929 143.393 58.9221C144.013 58.8513 144.404 59.4115 144.267 59.9868Z" fill="#B97964"/>
<path d="M140.706 59.1833C140.719 59.3787 140.626 59.5418 140.491 59.5504C140.356 59.559 140.248 59.4044 140.236 59.2091C140.223 59.0137 140.315 58.8484 140.45 58.842C140.585 58.8356 140.693 58.988 140.706 59.1833Z" fill="#263238"/>
<path d="M138.789 59.3511C138.802 59.5464 138.709 59.7117 138.574 59.7203C138.439 59.7289 138.331 59.5743 138.319 59.379C138.306 59.1837 138.398 59.0184 138.533 59.0119C138.668 59.0055 138.776 59.1557 138.789 59.3511Z" fill="#263238"/>
<path d="M139.406 59.2012C139.406 59.2012 138.852 60.2144 138.681 60.6244C138.97 60.852 139.432 60.706 139.432 60.706L139.406 59.2012Z" fill="#A24E3F"/>
<path d="M141.12 58.2287C141.106 58.237 141.09 58.2414 141.073 58.2414C141.057 58.2414 141.041 58.237 141.027 58.2287C140.934 58.1612 140.825 58.1167 140.711 58.0988C140.597 58.0809 140.48 58.0901 140.37 58.1257C140.348 58.135 140.323 58.135 140.3 58.1257C140.278 58.1165 140.26 58.0987 140.25 58.0763C140.245 58.0653 140.243 58.0535 140.242 58.0414C140.242 58.0294 140.244 58.0174 140.248 58.0062C140.253 57.995 140.259 57.9848 140.268 57.9762C140.276 57.9676 140.286 57.9608 140.297 57.9561C140.436 57.9092 140.584 57.8958 140.729 57.9171C140.873 57.9383 141.011 57.9936 141.13 58.0785C141.14 58.085 141.149 58.0934 141.156 58.1034C141.163 58.1133 141.168 58.1245 141.17 58.1363C141.172 58.1481 141.172 58.1603 141.17 58.1721C141.168 58.1839 141.163 58.1951 141.156 58.2051C141.146 58.2156 141.133 58.2237 141.12 58.2287Z" fill="#263238"/>
<path d="M140.115 61.3663C140.096 61.3632 140.079 61.3533 140.066 61.3386C140.054 61.3239 140.047 61.3051 140.047 61.2858C140.047 61.2664 140.054 61.2477 140.066 61.233C140.079 61.2182 140.096 61.2084 140.115 61.2053C140.26 61.1874 140.399 61.1401 140.524 61.0662C140.649 60.9924 140.758 60.8936 140.843 60.7759C140.85 60.7684 140.859 60.7623 140.869 60.7582C140.879 60.7541 140.889 60.752 140.9 60.752C140.91 60.752 140.921 60.7541 140.931 60.7582C140.941 60.7623 140.949 60.7684 140.957 60.7759C140.972 60.7912 140.98 60.8116 140.98 60.8328C140.98 60.8541 140.972 60.8745 140.957 60.8897C140.856 61.021 140.73 61.1307 140.586 61.2122C140.443 61.2937 140.284 61.3454 140.12 61.3641L140.115 61.3663Z" fill="#263238"/>
<path opacity="0.2" d="M142.968 60.1729C142.961 60.1729 142.954 60.1715 142.947 60.1686C142.94 60.1658 142.935 60.1616 142.93 60.1563C142.925 60.1511 142.921 60.1449 142.919 60.1381C142.916 60.1314 142.916 60.1242 142.916 60.1171C142.923 59.9417 142.976 59.7712 143.071 59.6234C143.148 59.4926 143.268 59.3919 143.41 59.3378C143.485 59.313 143.566 59.3107 143.642 59.3313C143.718 59.3519 143.787 59.3945 143.839 59.4538C143.849 59.4638 143.855 59.4773 143.855 59.4913C143.855 59.5054 143.849 59.5189 143.839 59.5289C143.834 59.534 143.829 59.5381 143.822 59.5409C143.816 59.5437 143.809 59.5452 143.802 59.5452C143.795 59.5452 143.788 59.5437 143.781 59.5409C143.775 59.5381 143.769 59.534 143.764 59.5289C143.725 59.4857 143.674 59.455 143.617 59.4409C143.561 59.4267 143.501 59.4297 143.446 59.4495C143.329 59.4944 143.23 59.5786 143.167 59.6878C143.082 59.82 143.034 59.9727 143.028 60.13C143.025 60.1435 143.018 60.1554 143.006 60.1634C142.995 60.1714 142.981 60.1748 142.968 60.1729Z" fill="#323232"/>
<path d="M137.887 58.585C137.869 58.5812 137.852 58.5731 137.838 58.5614C137.821 58.5442 137.812 58.5211 137.812 58.497C137.812 58.4729 137.821 58.4498 137.838 58.4326C137.931 58.3219 138.05 58.2355 138.184 58.1805C138.319 58.1256 138.464 58.1038 138.608 58.117C138.62 58.1186 138.632 58.1226 138.643 58.1288C138.653 58.135 138.662 58.1433 138.67 58.1531C138.677 58.1629 138.682 58.1741 138.685 58.186C138.687 58.1979 138.688 58.2102 138.686 58.2222C138.684 58.2341 138.68 58.2454 138.674 58.2557C138.668 58.266 138.66 58.2749 138.65 58.2819C138.641 58.2889 138.63 58.2939 138.618 58.2966C138.606 58.2992 138.594 58.2995 138.583 58.2974C138.468 58.2878 138.353 58.3062 138.247 58.3511C138.141 58.396 138.048 58.466 137.975 58.555C137.964 58.5671 137.95 58.5763 137.935 58.5816C137.92 58.5868 137.903 58.588 137.887 58.585Z" fill="#263238"/>
<path d="M143.827 55.2723C143.649 54.8558 143.086 54.8086 142.674 54.931C142.648 54.4072 141.942 54.1625 141.515 54.214C141.295 54.2171 141.084 54.3047 140.927 54.4587C140.961 54.4587 140.768 54.2118 140.654 54.1152C140.447 53.9402 140.192 53.8312 139.922 53.8025C139.652 53.7738 139.38 53.8267 139.141 53.9542C138.903 54.0978 138.71 54.3054 138.585 54.5533C138.46 54.8012 138.407 55.0794 138.432 55.356C138.357 55.2947 138.271 55.2489 138.179 55.2213C138.086 55.1937 137.989 55.1848 137.893 55.1952C137.796 55.2056 137.703 55.235 137.619 55.2818C137.534 55.3286 137.46 55.3918 137.4 55.4676C137.287 55.6345 137.24 55.8365 137.265 56.0359C137.291 56.2354 137.388 56.4187 137.539 56.5517C137.373 56.5863 137.227 56.6855 137.133 56.8274C137.039 56.9694 137.005 57.1427 137.039 57.3095C137.075 57.4743 137.174 57.6186 137.314 57.7114C137.455 57.8041 137.627 57.8378 137.793 57.8054C137.846 58.1896 137.928 58.664 137.981 59.0547L138.374 57.5885C138.632 57.4726 138.673 57.346 138.701 57.0519C138.928 57.3996 139.233 57.3438 139.626 57.2944C139.827 57.264 140.015 57.1788 140.171 57.0481C140.327 56.9175 140.443 56.7465 140.508 56.5538C140.618 56.7382 140.776 56.8892 140.965 56.9906C141.154 57.0919 141.367 57.1398 141.581 57.1292C141.793 57.1005 141.987 56.9937 142.124 56.8297C142.262 56.6657 142.333 56.4563 142.324 56.2426C142.461 56.4137 142.655 56.5296 142.87 56.5691C143.085 56.6085 143.308 56.5688 143.496 56.4572C143.676 56.3253 143.806 56.1368 143.866 55.9219C143.926 55.7071 143.912 55.4783 143.827 55.2723Z" fill="#263238"/>
<path d="M146.731 64.1641C146.731 64.1641 148.448 64.2113 149.124 66.1154C149.768 67.8692 151.365 71.7375 151.365 71.7375L147.521 72.8624L145.99 68.2835L146.731 64.1641Z" fill="#22A599"/>
<path d="M140.454 82.4318L142.771 87.3692C142.771 87.3692 139.091 98.4438 138.87 99.6052C138.649 100.767 138.546 115.302 138.546 115.302H142.64L144.256 101.108C144.256 101.108 149.226 89.0607 149.59 88.0819C150.273 86.2486 149.558 83.7885 149.558 83.7885L148.292 81.9639L140.454 82.4318Z" fill="#263238"/>
<path d="M138.204 84.9066C138.204 85.3552 139.801 100.695 140.063 100.751C140.325 100.807 151.896 113.459 151.896 113.459L155.18 110.574L146.692 99.0638L145.758 88.7212L145.421 82.2168L138.03 82.7685L138.204 84.9066Z" fill="#263238"/>
<path opacity="0.4" d="M143.82 104.753L144.024 101.149L146.403 95.8789L144.617 101.452L144.447 105.266L143.82 104.753Z" fill="#323232"/>
<path opacity="0.4" d="M139.531 97.2523L142.771 87.3712L141.641 86.3408L142 87.7576L139.39 96.0802L139.531 97.2523Z" fill="#323232"/>
<path d="M128.334 68.9678L133.347 73.5681L135.682 69.2189C135.682 69.2189 138.233 71.737 138.145 71.7735C138.057 71.81 135.139 78.1899 133.042 77.0457C130.945 75.9015 127.388 70.1441 127.388 70.1441L128.334 68.9678Z" fill="#B97964"/>
<path opacity="0.2" d="M133.347 73.568C133.347 73.568 133.776 74.2636 133.727 74.9204C133.857 74.6599 133.905 74.3652 133.862 74.0768C133.827 73.7618 133.72 73.4592 133.548 73.1924L133.347 73.568Z" fill="#323232"/>
<path d="M137.96 65.3055C139.329 66.0075 139.879 68.5019 136.938 74.5169L133.426 71.8056C133.988 70.303 134.559 69.5259 135.461 67.7034C136.888 64.8762 137.96 65.3055 137.96 65.3055Z" fill="#22A599"/>
<path d="M137.916 65.2157C138.882 65.001 142.721 63.9964 146.825 64.1681L148.995 79.4609C148.995 79.4609 149.425 81.4659 149.994 83.4516C146.082 85.7163 140.656 86.0813 137.745 84.8469C137.783 84.907 137.691 83.2133 137.567 80.7318C137.352 76.359 137.021 69.5369 137.122 65.5548C137.126 65.4582 137.816 65.2371 137.916 65.2157Z" fill="#22A599"/>
<path opacity="0.2" d="M137.255 73.8522L137.118 68.9062L136.493 74.1742L136.938 74.5176L137.255 73.8522Z" fill="#323232"/>
<path opacity="0.2" d="M147.735 72.8003L147.521 72.8625L146.121 69.1123L147.171 73.4035L147.886 73.4078L147.735 72.8003Z" fill="#323232"/>
<path d="M128.817 69.7666C128.817 69.7666 129.201 69.1591 129.064 68.5816C128.927 68.0042 128.972 67.5083 128.849 67.0789C128.727 66.6496 128.478 67.2035 128.42 67.5212C128.362 67.8389 128.272 68.1974 128.04 68.1093C127.808 68.0213 126.477 66.3663 126.145 66.2782C125.812 66.1902 125.943 66.5251 125.943 66.5251C125.943 66.5251 125.608 66.1323 125.417 66.2224C125.367 66.246 125.29 66.3813 125.417 66.5831C125.696 67.0403 126.333 67.9677 126.333 67.9677C126.297 67.914 125.43 66.8256 125.277 66.6797C125.08 66.4886 124.891 66.4993 124.784 66.6174C124.631 66.7849 125.662 68.1716 125.664 68.2618C125.664 68.2618 125.097 67.4417 124.805 67.4739C124.513 67.5061 124.844 68.0385 125.221 68.455C125.569 68.8371 126.151 69.6764 126.542 70.0285C127.025 70.4578 127.445 70.6489 128.004 70.4063C128.325 70.2665 128.605 70.0462 128.817 69.7666Z" fill="#B97964"/>
<path opacity="0.3" d="M126.716 67.5942C126.711 67.5943 126.707 67.5931 126.703 67.5909C126.699 67.5886 126.696 67.5853 126.694 67.5813C126.464 67.2379 126.217 66.903 125.96 66.5853C125.957 66.5829 125.955 66.5799 125.953 66.5766C125.952 66.5732 125.951 66.5696 125.951 66.566C125.951 66.5623 125.952 66.5587 125.953 66.5554C125.955 66.552 125.957 66.5491 125.96 66.5466C125.962 66.5442 125.965 66.5423 125.968 66.541C125.971 66.5397 125.975 66.5391 125.978 66.5391C125.982 66.5391 125.985 66.5397 125.988 66.541C125.991 66.5423 125.994 66.5442 125.996 66.5466C126.256 66.8665 126.503 67.2035 126.735 67.547C126.739 67.5524 126.742 67.5592 126.742 67.5663C126.742 67.5734 126.739 67.5802 126.735 67.5856L126.716 67.5942Z" fill="#323232"/>
<path opacity="0.3" d="M125.853 68.6133C125.848 68.615 125.843 68.615 125.838 68.6133C125.835 68.6109 125.833 68.6081 125.832 68.605C125.831 68.6018 125.83 68.5985 125.83 68.5951C125.83 68.5917 125.831 68.5883 125.832 68.5852C125.833 68.5821 125.835 68.5792 125.838 68.5768C126.157 68.1367 126.598 67.7995 127.106 67.6066C127.113 67.606 127.119 67.6076 127.124 67.611C127.129 67.6145 127.133 67.6196 127.135 67.6255C127.137 67.6315 127.137 67.6379 127.135 67.6438C127.133 67.6498 127.129 67.6548 127.124 67.6581C126.626 67.847 126.194 68.1767 125.881 68.6069C125.877 68.6109 125.873 68.6137 125.868 68.6148C125.863 68.616 125.857 68.6155 125.853 68.6133Z" fill="#323232"/>
<path opacity="0.3" d="M127.896 69.5972C127.892 69.597 127.888 69.5959 127.884 69.5941C127.881 69.5922 127.877 69.5896 127.875 69.5865C127.739 69.4053 127.671 69.1824 127.682 68.9563C127.693 68.7302 127.782 68.515 127.935 68.3479C127.94 68.3433 127.947 68.3408 127.954 68.3408C127.961 68.3408 127.968 68.3433 127.974 68.3479C127.979 68.353 127.981 68.36 127.981 68.3672C127.981 68.3744 127.979 68.3813 127.974 68.3865C127.829 68.5441 127.744 68.7473 127.733 68.961C127.723 69.1747 127.787 69.3853 127.916 69.5564C127.918 69.5588 127.92 69.5617 127.921 69.5648C127.922 69.5679 127.923 69.5713 127.923 69.5747C127.923 69.5781 127.922 69.5814 127.921 69.5846C127.92 69.5877 127.918 69.5905 127.916 69.5929C127.91 69.5967 127.903 69.5982 127.896 69.5972Z" fill="#323232"/>
<path d="M151.076 71.8213C151.076 71.8213 152.233 74.5604 152.722 77.0184C152.937 78.1346 152.053 78.8516 151.14 79.0706C148.264 79.7661 141.781 79.7682 141.781 79.7682L141.611 77.7912L149.077 76.1769L147.736 72.8002L151.076 71.8213Z" fill="#B97964"/>
<path d="M141.766 80.1912L139.319 80.466C139.277 80.4704 139.236 80.4656 139.196 80.4519C139.157 80.4381 139.121 80.4158 139.091 80.3866L135.367 76.705C135.332 76.6704 135.307 76.6273 135.294 76.5798C135.281 76.5324 135.281 76.4824 135.294 76.435C135.306 76.3875 135.331 76.3442 135.366 76.3094C135.401 76.2747 135.444 76.2497 135.491 76.237L137.638 75.6832C137.684 75.6707 137.733 75.6707 137.78 75.6831C137.826 75.6956 137.868 75.72 137.902 75.754L141.923 79.7146C141.96 79.7511 141.987 79.7974 141.999 79.8482C142.012 79.8989 142.01 79.9522 141.993 80.0019C141.977 80.0516 141.947 80.0957 141.907 80.1291C141.867 80.1626 141.818 80.1841 141.766 80.1912Z" fill="#263238"/>
<path d="M141.994 77.8013C141.994 77.8013 141.925 77.5136 140.843 77.183C140.021 76.9319 139.203 76.1633 139.07 76.1891C138.937 76.2149 138.793 76.6356 139.134 77.0048C139.476 77.3741 139.83 77.5844 139.74 77.7261C139.525 78.0674 136.846 77.7884 136.799 78.0803C136.752 78.3723 137.265 79.2095 138.697 79.7676C140.128 80.3257 142.095 79.7676 142.095 79.7676L141.994 77.8013Z" fill="#B97964"/>
<path d="M128.487 110.351L15.6045 112.996V93.6885H129.573L128.487 110.351Z" fill="#263238"/>
<path opacity="0.5" d="M128.487 110.351L15.6045 112.996V93.6885H129.573L128.487 110.351Z" fill="#323232"/>
<path d="M11.2617 98.6434V108.434C11.2619 109.456 11.5891 110.451 12.1956 111.273C12.8021 112.096 13.6559 112.702 14.632 113.005L15.4305 113.247C15.9214 113.401 16.434 113.473 16.9482 113.462L22.2205 113.337C21.6594 111.375 21.5555 109.311 21.9166 107.302C22.2777 105.293 23.0943 103.394 24.3036 101.75C25.513 100.107 27.0829 98.7617 28.893 97.8191C30.703 96.8764 32.705 96.3611 34.7452 96.3126C36.7854 96.2642 38.8095 96.6838 40.6623 97.5395C42.515 98.3951 44.1471 99.6639 45.4331 101.248C46.7192 102.833 47.625 104.691 48.0811 106.68C48.5372 108.67 48.5314 110.737 48.0642 112.723L101.709 111.448C101.623 110.822 101.581 110.19 101.583 109.557C101.569 107.79 101.907 106.037 102.576 104.401C103.245 102.765 104.231 101.278 105.479 100.027C106.727 98.7749 108.211 97.7832 109.844 97.1091C111.478 96.4349 113.229 96.0918 114.997 96.0994C116.764 96.1071 118.513 96.4655 120.14 97.1538C121.768 97.842 123.243 98.8466 124.48 100.109C125.717 101.372 126.691 102.867 127.345 104.509C128 106.15 128.322 107.906 128.294 109.673C128.294 109.933 128.274 110.188 128.274 110.446C128.347 110.419 128.419 110.388 128.489 110.353L130.324 109.536C131.21 109.135 131.962 108.488 132.49 107.671C133.017 106.855 133.297 105.903 133.298 104.931V84.9884C133.298 84.0682 133.047 83.1655 132.571 82.3777C132.096 81.59 131.414 80.9472 130.599 80.5191L116.811 73.2676C116.687 73.2016 116.585 73.1012 116.517 72.9785C116.449 72.8558 116.418 72.7161 116.428 72.5762C116.437 72.4363 116.487 72.3021 116.571 72.1898C116.655 72.0774 116.77 71.9918 116.901 71.9431L118.589 71.3378C118.673 71.3093 118.745 71.2531 118.793 71.1782C118.841 71.1034 118.863 71.0145 118.854 70.9259C118.845 70.8374 118.806 70.7545 118.744 70.6909C118.682 70.6273 118.6 70.5866 118.511 70.5757C111.958 69.6569 86.4766 66.3317 73.0814 67.9632C57.6254 69.8544 42.8242 83.2625 42.8242 83.2625C31.4468 82.8332 20.8401 86.7938 16.2699 88.7794C15.5407 89.0983 14.8861 89.5661 14.3483 90.1528C13.8104 90.7395 13.401 91.4321 13.1465 92.1862L11.5923 96.8144C11.3844 97.4023 11.2728 98.0199 11.2617 98.6434Z" fill="#22A599"/>
<path d="M101.725 111.444C101.645 110.855 101.607 110.262 101.609 109.668C101.609 109.366 101.609 109.067 101.637 108.769L91.9359 104.8C91.3678 104.57 90.7552 104.47 90.1434 104.508L56.4021 106.723C55.8507 106.755 55.312 106.902 54.82 107.153L48.4101 110.45C48.3647 111.214 48.2563 111.973 48.0859 112.719L101.725 111.444Z" fill="#263238"/>
<path d="M133.308 104.927V104.418L127.821 106.097C128.142 107.26 128.304 108.462 128.302 109.669C128.302 109.928 128.283 110.184 128.283 110.442C128.356 110.414 128.428 110.384 128.497 110.349L130.337 109.531C131.223 109.131 131.974 108.483 132.501 107.667C133.028 106.85 133.308 105.899 133.308 104.927Z" fill="#263238"/>
<path d="M12.8203 111.948C13.3437 112.433 13.9695 112.794 14.6514 113.004L15.4564 113.247C15.9479 113.401 16.4613 113.473 16.9763 113.462L22.2399 113.343C22.0491 112.678 21.9113 111.998 21.8277 111.311L12.8203 111.948Z" fill="#263238"/>
<path d="M114.974 95.0586C112.902 95.0565 110.853 95.4954 108.964 96.3461C107.075 97.1968 105.389 98.4399 104.018 99.9927C102.646 101.545 101.621 103.372 101.01 105.352C100.399 107.332 100.217 109.419 100.475 111.474L101.742 111.444C101.488 109.627 101.611 107.776 102.104 106.008C102.596 104.241 103.448 102.593 104.606 101.169C105.764 99.7455 107.202 98.5754 108.832 97.7321C110.462 96.8889 112.248 96.3905 114.08 96.2683C115.911 96.146 117.747 96.4024 119.475 97.0214C121.203 97.6404 122.784 98.6089 124.121 99.8662C125.458 101.124 126.521 102.643 127.244 104.33C127.968 106.016 128.336 107.834 128.326 109.669C128.326 109.929 128.304 110.184 128.304 110.442C128.377 110.414 128.449 110.384 128.519 110.349L129.573 109.873V109.669C129.569 105.795 128.028 102.081 125.289 99.3415C122.549 96.6023 118.835 95.062 114.961 95.0586H114.974Z" fill="#263238"/>
<path d="M35.0807 95.0586C32.8469 95.0579 30.6427 95.5694 28.6374 96.5538C26.6322 97.5382 24.8795 98.9694 23.5138 100.737C22.1482 102.505 21.2062 104.562 20.7601 106.751C20.314 108.94 20.3758 111.202 20.9406 113.363L22.2286 113.333C21.6735 111.373 21.5743 109.311 21.9387 107.306C22.3031 105.302 23.1214 103.407 24.331 101.767C25.5405 100.127 27.1093 98.7862 28.9171 97.8462C30.7249 96.9063 32.7238 96.3924 34.7608 96.344C36.7978 96.2957 38.8189 96.7141 40.6693 97.5672C42.5197 98.4203 44.1503 99.6856 45.4363 101.266C46.7223 102.847 47.6296 104.7 48.0888 106.685C48.5479 108.671 48.5467 110.735 48.0852 112.719L49.3732 112.687C49.8229 110.559 49.7918 108.358 49.2821 106.243C48.7725 104.129 47.7971 102.155 46.4273 100.466C45.0575 98.7767 43.3277 97.4146 41.3644 96.4791C39.401 95.5436 37.2535 95.0583 35.0786 95.0586H35.0807Z" fill="#263238"/>
<path d="M47.7955 83.8233C47.6677 83.9373 47.5711 84.082 47.5149 84.2437C47.4586 84.4055 47.4445 84.5789 47.474 84.7476C47.5034 84.9163 47.5754 85.0747 47.6831 85.2078C47.7909 85.341 47.9308 85.4444 48.0896 85.5084L53.6709 87.0712C54.1626 87.2106 54.6774 87.2493 55.1844 87.1849L96.5292 82.063C97.5634 81.9169 98.5066 81.3922 99.176 80.5904L104.605 74.2749C104.789 74.0572 104.902 73.7882 104.929 73.5042C105.004 72.7851 104.551 72.1368 103.922 72.0552C94.024 70.7393 81.5025 69.5522 73.5985 70.5096C63.2386 71.774 52.808 79.5621 47.7955 83.8233Z" fill="#22A599"/>
<path opacity="0.8" d="M47.983 83.8227C47.8552 83.9367 47.7586 84.0815 47.7024 84.2432C47.6461 84.405 47.632 84.5784 47.6615 84.7471C47.6909 84.9158 47.7629 85.0742 47.8706 85.2073C47.9784 85.3404 48.1183 85.4439 48.2771 85.5079L53.8584 87.0706C54.3501 87.21 54.8649 87.2487 55.3718 87.1844L95.7936 84.4152C96.8004 84.2864 98.3546 82.4381 99.4536 80.9355L104.79 74.2744C104.976 74.0574 105.09 73.7881 105.117 73.5037C105.19 72.7846 104.739 72.1363 104.11 72.0547C94.2072 70.7431 81.69 69.5495 73.786 70.5134C63.424 71.7735 52.9955 79.5616 47.983 83.8227Z" fill="white"/>
<g opacity="0.3">
<path d="M74.9919 87.7641C74.8671 87.7175 74.7654 87.6243 74.7081 87.5041C74.6508 87.384 74.6425 87.2463 74.6849 87.1201C74.7427 86.9598 74.8468 86.8204 74.984 86.7194C75.1212 86.6185 75.2854 86.5607 75.4555 86.5533L80.3757 86.3387C80.442 86.335 80.5084 86.3444 80.5711 86.3666C80.6989 86.4131 80.8032 86.5082 80.8615 86.6311C80.9197 86.7541 80.9272 86.895 80.8823 87.0235C80.8239 87.184 80.719 87.3234 80.581 87.424C80.4429 87.5245 80.2781 87.5817 80.1074 87.588L75.1872 87.8027C75.1202 87.803 75.0538 87.7898 74.9919 87.7641Z" fill="#323232"/>
</g>
<path d="M111.584 73.6645C111.376 73.8511 111.25 74.1126 111.234 74.3917C111.218 74.6708 111.313 74.945 111.499 75.1543L112.664 76.423C112.799 76.5648 112.97 76.6678 113.158 76.7214L127.45 80.6863C127.7 80.753 127.957 80.7869 128.215 80.7872H131.055C130.907 80.6884 130.754 80.5982 130.597 80.5145L116.809 73.2566C116.643 73.1741 116.515 73.0286 116.456 72.8523C116.396 72.676 116.409 72.4832 116.492 72.3164L112.014 73.437C111.855 73.479 111.708 73.5568 111.584 73.6645Z" fill="#22A599"/>
<path d="M22.5747 90.6466L17.6975 90.1143L14.9068 91.2606C14.616 91.379 14.3571 91.564 14.1509 91.8008C13.9447 92.0375 13.797 92.3194 13.7197 92.6237C13.6272 92.981 13.6788 93.3603 13.8635 93.6799L13.9129 93.7636C14.066 94.0274 14.2941 94.2397 14.5681 94.3735C14.8422 94.5073 15.1499 94.5565 15.4521 94.5149L18.2642 94.1285C18.5353 94.0857 18.7914 93.9758 19.0091 93.8087L22.2527 91.3464L22.5747 90.6466Z" fill="white"/>
<path d="M42.835 83.2561L43.6121 83.4708C43.9093 83.5555 44.2228 83.5658 44.5249 83.5006C44.8271 83.4355 45.1085 83.2969 45.3444 83.0973C49.8653 79.2741 57.7242 73.4072 66.2036 70.6745C66.2329 70.6649 66.2589 70.647 66.2782 70.6228C66.2975 70.5987 66.3094 70.5695 66.3124 70.5387C66.3153 70.508 66.3092 70.477 66.2949 70.4497C66.2805 70.4223 66.2585 70.3997 66.2315 70.3847L65.1775 69.8438C52.9436 74.092 42.835 83.2561 42.835 83.2561Z" fill="#22A599"/>
<path opacity="0.8" d="M42.835 83.2561L43.6121 83.4708C43.9093 83.5555 44.2228 83.5658 44.5249 83.5006C44.8271 83.4355 45.1085 83.2969 45.3444 83.0973C49.8653 79.2741 57.7242 73.4072 66.2036 70.6745C66.2329 70.6649 66.2589 70.647 66.2782 70.6228C66.2975 70.5987 66.3094 70.5695 66.3124 70.5387C66.3153 70.508 66.3092 70.477 66.2949 70.4497C66.2805 70.4223 66.2585 70.3997 66.2315 70.3847L65.1775 69.8438C52.9436 74.092 42.835 83.2561 42.835 83.2561Z" fill="white"/>
<path opacity="0.2" d="M89.186 88.4189L48.0859 91.3577L48.8609 96.4282C49.0975 97.9811 49.6728 99.463 50.546 100.769L53.9807 105.904L89.0615 101.159L105.649 88.4189H89.186Z" fill="white"/>
<path d="M114.96 120.795C121.106 120.795 126.089 115.812 126.089 109.666C126.089 103.52 121.106 98.5381 114.96 98.5381C108.814 98.5381 103.832 103.52 103.832 109.666C103.832 115.812 108.814 120.795 114.96 120.795Z" fill="#263238"/>
<path opacity="0.4" d="M114.961 116.489C118.729 116.489 121.783 113.435 121.783 109.667C121.783 105.899 118.729 102.845 114.961 102.845C111.193 102.845 108.139 105.899 108.139 109.667C108.139 113.435 111.193 116.489 114.961 116.489Z" fill="white"/>
<g opacity="0.3">
<path d="M114.962 103.531H114.96C114.659 103.531 114.415 103.775 114.415 104.076V107.573C114.415 107.875 114.659 108.119 114.96 108.119H114.962C115.264 108.119 115.508 107.875 115.508 107.573V104.076C115.508 103.775 115.264 103.531 114.962 103.531Z" fill="white"/>
</g>
<g opacity="0.3">
<path d="M114.962 111.219H114.96C114.659 111.219 114.415 111.463 114.415 111.764V115.261C114.415 115.562 114.659 115.806 114.96 115.806H114.962C115.264 115.806 115.508 115.562 115.508 115.261V111.764C115.508 111.463 115.264 111.219 114.962 111.219Z" fill="white"/>
</g>
<g opacity="0.3">
<path d="M117.045 109.095C116.92 109.166 116.771 109.185 116.632 109.147C116.493 109.108 116.374 109.016 116.303 108.891C116.231 108.766 116.212 108.618 116.249 108.479C116.287 108.339 116.378 108.221 116.502 108.148L119.529 106.39C119.655 106.318 119.805 106.298 119.945 106.336C120.086 106.374 120.205 106.466 120.278 106.592C120.349 106.718 120.368 106.866 120.33 107.006C120.292 107.145 120.201 107.264 120.076 107.337L117.052 109.093L117.045 109.095Z" fill="white"/>
</g>
<g opacity="0.3">
<path d="M110.388 112.915C110.263 112.986 110.115 113.005 109.975 112.968C109.836 112.931 109.717 112.84 109.645 112.715C109.609 112.653 109.586 112.585 109.577 112.514C109.568 112.443 109.572 112.371 109.591 112.302C109.609 112.233 109.641 112.168 109.685 112.112C109.729 112.055 109.783 112.008 109.845 111.972L112.872 110.214C112.933 110.178 113.002 110.154 113.073 110.145C113.144 110.135 113.216 110.139 113.285 110.158C113.354 110.176 113.419 110.208 113.476 110.252C113.533 110.295 113.581 110.349 113.617 110.412C113.653 110.474 113.676 110.542 113.686 110.613C113.696 110.684 113.691 110.757 113.673 110.826C113.655 110.895 113.623 110.961 113.579 111.018C113.536 111.075 113.481 111.123 113.419 111.159L110.39 112.915H110.388Z" fill="white"/>
</g>
<g opacity="0.3">
<path d="M119.529 112.936L116.502 111.18C116.377 111.107 116.285 110.987 116.248 110.847C116.211 110.706 116.23 110.557 116.303 110.431C116.377 110.306 116.497 110.215 116.637 110.178C116.777 110.141 116.926 110.161 117.052 110.233L120.077 111.991C120.201 112.064 120.293 112.183 120.33 112.322C120.368 112.462 120.349 112.611 120.278 112.736C120.242 112.799 120.195 112.853 120.137 112.897C120.08 112.941 120.015 112.973 119.945 112.992C119.876 113.01 119.803 113.015 119.732 113.005C119.66 112.996 119.592 112.972 119.529 112.936Z" fill="white"/>
</g>
<g opacity="0.3">
<path d="M113.617 108.894C113.544 109.019 113.425 109.11 113.285 109.147C113.145 109.184 112.997 109.164 112.872 109.091L109.845 107.333C109.783 107.297 109.729 107.25 109.685 107.193C109.641 107.137 109.609 107.072 109.591 107.003C109.572 106.934 109.568 106.862 109.577 106.791C109.586 106.72 109.609 106.652 109.645 106.59C109.718 106.465 109.837 106.374 109.977 106.337C110.116 106.3 110.265 106.319 110.39 106.391L113.419 108.149C113.481 108.185 113.535 108.233 113.578 108.289C113.622 108.346 113.653 108.411 113.672 108.481C113.69 108.55 113.694 108.622 113.684 108.693C113.674 108.764 113.651 108.832 113.614 108.894H113.617Z" fill="white"/>
</g>
<path d="M114.046 109.664C114.046 109.422 114.142 109.189 114.314 109.018C114.485 108.846 114.718 108.75 114.961 108.75C115.142 108.75 115.32 108.803 115.472 108.904C115.623 109.004 115.741 109.148 115.811 109.316C115.881 109.484 115.899 109.668 115.864 109.847C115.829 110.025 115.742 110.189 115.613 110.318C115.485 110.446 115.321 110.534 115.143 110.57C114.964 110.605 114.78 110.587 114.612 110.518C114.444 110.448 114.3 110.331 114.199 110.179C114.098 110.028 114.044 109.851 114.044 109.669L114.046 109.664Z" fill="#263238"/>
<path d="M35.0814 120.797C41.2274 120.797 46.2098 115.814 46.2098 109.668C46.2098 103.522 41.2274 98.54 35.0814 98.54C28.9354 98.54 23.9531 103.522 23.9531 109.668C23.9531 115.814 28.9354 120.797 35.0814 120.797Z" fill="#263238"/>
<path opacity="0.4" d="M35.0809 116.491C38.8486 116.491 41.903 113.437 41.903 109.669C41.903 105.901 38.8486 102.847 35.0809 102.847C31.3131 102.847 28.2588 105.901 28.2588 109.669C28.2588 113.437 31.3131 116.491 35.0809 116.491Z" fill="white"/>
<g opacity="0.3">
<path d="M35.0816 103.531H35.0794C34.7783 103.531 34.5342 103.775 34.5342 104.076V107.573C34.5342 107.875 34.7783 108.119 35.0794 108.119H35.0816C35.3827 108.119 35.6268 107.875 35.6268 107.573V104.076C35.6268 103.775 35.3827 103.531 35.0816 103.531Z" fill="white"/>
</g>
<g opacity="0.3">
<path d="M35.0816 111.219H35.0794C34.7783 111.219 34.5342 111.463 34.5342 111.764V115.261C34.5342 115.562 34.7783 115.806 35.0794 115.806H35.0816C35.3827 115.806 35.6268 115.562 35.6268 115.261V111.764C35.6268 111.463 35.3827 111.219 35.0816 111.219Z" fill="white"/>
</g>
<g opacity="0.3">
<path d="M37.1609 109.096C37.0992 109.131 37.0311 109.154 36.9607 109.162C36.8902 109.171 36.8187 109.166 36.7503 109.147C36.6819 109.128 36.6179 109.096 36.562 109.052C36.5061 109.008 36.4594 108.954 36.4245 108.892C36.3883 108.83 36.3646 108.762 36.3547 108.691C36.3449 108.62 36.3492 108.548 36.3674 108.479C36.3855 108.41 36.4172 108.345 36.4605 108.288C36.5039 108.231 36.558 108.183 36.6199 108.147L39.651 106.389C39.7131 106.353 39.7817 106.33 39.8528 106.321C39.9239 106.312 39.9961 106.317 40.0653 106.335C40.1345 106.354 40.1993 106.386 40.256 106.43C40.3127 106.474 40.3603 106.529 40.3959 106.591C40.4316 106.653 40.4547 106.721 40.4639 106.793C40.4731 106.864 40.4682 106.936 40.4494 107.005C40.4307 107.074 40.3985 107.139 40.3547 107.196C40.3109 107.252 40.2563 107.3 40.1941 107.336L37.1694 109.092L37.1609 109.096Z" fill="white"/>
</g>
<g opacity="0.3">
<path d="M29.7643 112.723C29.7286 112.661 29.7054 112.593 29.696 112.522C29.6867 112.451 29.6915 112.379 29.71 112.31C29.7286 112.241 29.7605 112.177 29.8041 112.12C29.8477 112.063 29.902 112.016 29.964 111.98L32.9908 110.222C33.0529 110.186 33.1216 110.162 33.1929 110.152C33.2642 110.143 33.3367 110.147 33.4063 110.166C33.4759 110.184 33.5412 110.216 33.5984 110.259C33.6557 110.303 33.7038 110.357 33.74 110.42C33.8122 110.545 33.8315 110.695 33.7937 110.835C33.7558 110.975 33.6639 111.094 33.5382 111.167L30.5135 112.914C30.3886 112.987 30.2399 113.008 30.0996 112.973C29.9594 112.937 29.8389 112.847 29.7643 112.723Z" fill="white"/>
</g>
<g opacity="0.3">
<path d="M40.3942 112.738C40.3586 112.8 40.3112 112.854 40.2545 112.898C40.1978 112.941 40.1331 112.973 40.064 112.992C39.995 113.01 39.9229 113.014 39.8521 113.005C39.7813 112.995 39.7131 112.972 39.6515 112.935L36.6204 111.179C36.4955 111.106 36.405 110.985 36.3684 110.845C36.3318 110.705 36.3521 110.556 36.425 110.43C36.4977 110.305 36.6169 110.214 36.7566 110.177C36.8963 110.14 37.0449 110.16 37.1699 110.233L40.1946 111.991C40.3194 112.064 40.4104 112.183 40.4478 112.322C40.4852 112.462 40.466 112.61 40.3942 112.736V112.738Z" fill="white"/>
</g>
<g opacity="0.3">
<path d="M33.7357 108.898C33.6995 108.959 33.6516 109.013 33.5945 109.056C33.5375 109.1 33.4725 109.131 33.4033 109.149C33.3341 109.167 33.2621 109.171 33.1913 109.161C33.1205 109.151 33.0523 109.127 32.9908 109.091L29.964 107.333C29.902 107.297 29.8477 107.25 29.8041 107.193C29.7605 107.136 29.7286 107.072 29.71 107.003C29.6915 106.934 29.6867 106.862 29.696 106.791C29.7054 106.72 29.7286 106.652 29.7643 106.59C29.8371 106.464 29.9568 106.372 30.0972 106.334C30.2377 106.297 30.3873 106.316 30.5135 106.388L33.5382 108.146C33.663 108.219 33.754 108.338 33.7914 108.478C33.8288 108.617 33.8095 108.766 33.7378 108.891L33.7357 108.898Z" fill="white"/>
</g>
<path d="M35.0807 108.75C35.2625 108.75 35.4403 108.803 35.5917 108.904C35.7431 109.004 35.8612 109.148 35.9311 109.316C36.0009 109.484 36.0194 109.668 35.9842 109.847C35.949 110.025 35.8617 110.189 35.7333 110.318C35.6049 110.446 35.4412 110.534 35.2629 110.57C35.0846 110.605 34.8997 110.587 34.7317 110.518C34.5637 110.448 34.4201 110.331 34.3191 110.179C34.218 110.028 34.1641 109.851 34.1641 109.669C34.1641 109.425 34.2606 109.192 34.4324 109.02C34.6042 108.848 34.8374 108.751 35.0807 108.75Z" fill="#263238"/>
<path opacity="0.3" d="M132.132 88.6762C132.22 88.6488 132.302 88.6043 132.373 88.5452C132.444 88.4861 132.502 88.4136 132.545 88.3319C132.588 88.2501 132.614 88.1607 132.623 88.0688C132.631 87.9768 132.621 87.8842 132.593 87.7961C132.465 85.4519 131.967 83.3675 130.53 81.9335C130.484 81.7805 130.386 81.6479 130.254 81.5578C130.121 81.4677 129.962 81.4253 129.803 81.4377L121.323 82.2384C121.175 82.2533 121.036 82.3158 120.926 82.4165C120.858 82.4782 120.802 82.5529 120.762 82.6363C120.723 82.7196 120.7 82.81 120.695 82.9021C120.691 82.9943 120.704 83.0865 120.735 83.1734C120.767 83.2602 120.815 83.3401 120.877 83.4083L123.305 86.0272C123.389 86.1176 123.496 86.1842 123.614 86.2204L131.733 88.6805C131.863 88.7167 132.002 88.7152 132.132 88.6762Z" fill="#323232"/>
<path d="M47.4826 84.3633C47.4215 84.5958 47.4501 84.8427 47.5626 85.0551C47.6752 85.2674 47.8635 85.4297 48.0901 85.5097L53.6715 87.0724C54.1747 87.2267 54.6955 87.3162 55.2214 87.3386L56.9773 87.2206L55.3201 78.2754C51.4969 80.787 51.2414 80.9029 47.8068 83.8267C47.6414 83.964 47.5272 84.1531 47.4826 84.3633Z" fill="#263238"/>
<path d="M83.808 70.2217L80.3047 85.4974L84.8878 85.1668L86.9787 70.3548C85.9082 70.3004 84.8513 70.256 83.808 70.2217Z" fill="#263238"/>
<path d="M98.3477 82.3095L104.788 74.2702C104.978 74.051 105.094 73.7777 105.12 73.4888C105.187 72.7718 104.736 72.1278 104.114 72.042C102.796 71.8638 101.392 71.692 99.9899 71.5225" fill="#263238"/>
<path d="M52.5531 85.9091C52.2884 85.9122 52.0257 85.8631 51.7799 85.7647C51.5342 85.6663 51.3102 85.5204 51.1209 85.3354C50.9315 85.1504 50.7804 84.93 50.6762 84.6866C50.5721 84.4432 50.5169 84.1817 50.5138 83.917C50.5085 83.4569 50.6603 83.0088 50.944 82.6466C51.2277 82.2844 51.6265 82.0299 52.0744 81.9249L54.7621 81.2959L55.4468 85.8039L52.6068 85.9134L52.5531 85.9091Z" fill="#22A599"/>
<path opacity="0.3" d="M54.6584 85.8297L55.4463 85.7996L54.7615 81.2959L53.9951 81.4762L54.6584 85.8297Z" fill="#323232"/>
<path opacity="0.6" d="M81.2921 105.143H81.2814C81.2745 105.142 81.268 105.14 81.2622 105.136C81.2564 105.132 81.2515 105.127 81.2477 105.121C81.2439 105.115 81.2413 105.109 81.2401 105.102C81.2388 105.095 81.239 105.088 81.2406 105.081C81.2685 104.942 84.2073 91.1515 84.5829 89.2731C84.7268 88.5519 84.7804 87.1737 84.7375 85.1709C84.7375 85.1566 84.7432 85.143 84.7532 85.1329C84.7633 85.1228 84.7769 85.1172 84.7912 85.1172C84.805 85.1172 84.8184 85.1225 84.8284 85.1321C84.8384 85.1417 84.8443 85.1548 84.8448 85.1687C84.8878 87.178 84.8341 88.5669 84.6881 89.2946C84.3125 91.1729 81.3737 104.965 81.3436 105.103C81.3411 105.114 81.3346 105.125 81.3252 105.132C81.3158 105.14 81.3041 105.144 81.2921 105.143Z" fill="#323232"/>
<path opacity="0.6" d="M54.8201 107.213C54.8113 107.213 54.8026 107.211 54.7947 107.207C54.7869 107.203 54.7801 107.197 54.775 107.19C54.7385 107.134 50.9475 101.522 49.6445 99.1761C48.3007 96.7611 47.442 85.1884 47.4034 84.6968C47.4027 84.6827 47.4075 84.6689 47.4166 84.6581C47.4258 84.6474 47.4387 84.6405 47.4527 84.6389C47.4598 84.6383 47.4669 84.6391 47.4736 84.6412C47.4804 84.6434 47.4866 84.6469 47.492 84.6515C47.4974 84.6561 47.5018 84.6617 47.505 84.668C47.5082 84.6743 47.5102 84.6812 47.5107 84.6882C47.5107 84.8084 48.4123 96.7289 49.7389 99.1246C51.0377 101.467 54.8265 107.067 54.8652 107.129C54.8692 107.135 54.872 107.142 54.8734 107.149C54.8748 107.156 54.8748 107.163 54.8734 107.17C54.872 107.177 54.8693 107.184 54.8653 107.19C54.8613 107.196 54.8561 107.201 54.8502 107.205C54.8409 107.21 54.8306 107.213 54.8201 107.213Z" fill="#323232"/>
<path opacity="0.6" d="M17.6975 90.1597C17.6853 90.1593 17.6736 90.1548 17.6643 90.1468C17.655 90.1389 17.6487 90.128 17.6464 90.116C17.6442 90.1039 17.6461 90.0915 17.6519 90.0807C17.6577 90.0699 17.6669 90.0615 17.6782 90.0567C20.5848 88.8674 29.9142 86.622 32.0909 86.2764C34.8451 85.8342 44.2561 83.5115 44.3505 83.4857C44.3574 83.4841 44.3646 83.4839 44.3716 83.4851C44.3786 83.4863 44.3852 83.4889 44.3912 83.4927C44.3972 83.4965 44.4024 83.5014 44.4065 83.5072C44.4105 83.513 44.4134 83.5196 44.4149 83.5265C44.4169 83.5333 44.4174 83.5404 44.4164 83.5474C44.4155 83.5543 44.4132 83.561 44.4095 83.5671C44.4059 83.5731 44.4011 83.5783 44.3954 83.5824C44.3897 83.5865 44.3832 83.5894 44.3763 83.5909C44.2818 83.6145 34.8666 85.9372 32.1059 86.3816C29.9829 86.7229 20.5526 88.9962 17.7233 90.1554C17.7153 90.1595 17.7063 90.161 17.6975 90.1597Z" fill="#323232"/>
<path opacity="0.8" d="M111.584 73.6645C111.376 73.8511 111.25 74.1126 111.234 74.3917C111.218 74.6708 111.313 74.945 111.499 75.1543L112.664 76.423C112.799 76.5648 112.97 76.6678 113.158 76.7214L127.45 80.6863C127.7 80.753 127.957 80.7869 128.215 80.7872H131.055C130.907 80.6884 130.754 80.5982 130.597 80.5145L116.809 73.2566C116.643 73.1741 116.515 73.0286 116.456 72.8523C116.396 72.676 116.409 72.4832 116.492 72.3164L112.014 73.437C111.855 73.479 111.708 73.5568 111.584 73.6645Z" fill="white"/>
<path d="M57.8984 82.8008C57.7696 82.8781 56.252 84.4473 56.252 84.4473L56.5482 86.3922L58.4566 84.4215L57.8984 82.8008Z" fill="#263238"/>
<path d="M60.1841 86.8563C60.0229 86.9359 59.8368 86.9483 59.6666 86.8907C59.4963 86.8331 59.3559 86.7104 59.276 86.5494L56.2428 80.4142C56.2035 80.3346 56.1802 80.248 56.1743 80.1593C56.1685 80.0707 56.1801 79.9818 56.2086 79.8977C56.2371 79.8135 56.2819 79.7359 56.3405 79.669C56.399 79.6022 56.4701 79.5476 56.5498 79.5083C56.6295 79.4686 56.7163 79.4451 56.8052 79.4391C56.894 79.433 56.9832 79.4446 57.0676 79.4731C57.152 79.5016 57.2299 79.5465 57.2968 79.6053C57.3638 79.664 57.4185 79.7354 57.4578 79.8153L60.4846 85.9505C60.5645 86.1105 60.5778 86.2957 60.5215 86.4655C60.4651 86.6353 60.3438 86.7758 60.1841 86.8563Z" fill="#263238"/>
<path d="M63.4883 79.4714C63.4883 79.4714 64.9909 85.4649 65.8689 85.6967C67.4661 86.1067 72.9529 85.6473 72.8456 85.4713L72.6138 82.715C72.6138 82.715 67.0818 83.6295 67.1247 83.5329L65.0446 78.8682L63.4883 79.4714Z" fill="#EBB373"/>
<path d="M64.8679 79.2308C64.8679 79.2308 65.3616 78.7714 65.3745 78.2133C65.3874 77.6551 65.5484 77.2151 65.5291 76.8008C65.5098 76.3865 65.1642 76.8265 65.0268 77.097C64.8894 77.3675 64.7305 77.6766 64.5438 77.5392C64.357 77.4018 63.5413 75.5858 63.2558 75.4269C62.9703 75.2681 63.0153 75.6029 63.0153 75.6029C63.0153 75.6029 62.8007 75.1736 62.6096 75.2037C62.5581 75.2037 62.4551 75.3174 62.5216 75.5299C62.6654 76.0108 63.0218 77.0047 63.0218 77.0047C63.0025 76.9467 62.4744 75.7532 62.3778 75.5836C62.2425 75.3689 62.0687 75.3282 61.9484 75.4097C61.7703 75.5257 62.3778 77.0283 62.3563 77.1099C62.3563 77.1099 62.0365 76.2341 61.766 76.1911C61.4955 76.1482 61.6651 76.7128 61.9098 77.1807C62.1245 77.6101 62.4615 78.5095 62.732 78.9238C63.0647 79.4326 63.4017 79.7009 63.9663 79.6151C64.2949 79.5666 64.6054 79.4343 64.8679 79.2308Z" fill="#EBB373"/>
<path opacity="0.3" d="M63.4883 76.7622C63.4827 76.7625 63.4772 76.761 63.4726 76.7579C63.4679 76.7548 63.4644 76.7503 63.4625 76.745C63.3359 76.3801 63.1921 76.0173 63.0332 75.6717C63.0315 75.6684 63.0305 75.6647 63.0303 75.6609C63.0301 75.6572 63.0308 75.6534 63.0322 75.6499C63.0336 75.6465 63.0358 75.6433 63.0386 75.6408C63.0414 75.6382 63.0447 75.6363 63.0482 75.6352C63.0513 75.6338 63.0547 75.633 63.0581 75.6328C63.0615 75.6327 63.0649 75.6333 63.0681 75.6345C63.0713 75.6357 63.0742 75.6375 63.0767 75.6398C63.0792 75.6421 63.0812 75.645 63.0826 75.6481C63.2414 76.0023 63.3874 76.3651 63.5119 76.7321C63.5133 76.7354 63.514 76.7389 63.514 76.7424C63.514 76.7459 63.5132 76.7493 63.5118 76.7526C63.5104 76.7558 63.5084 76.7587 63.5058 76.7611C63.5032 76.7635 63.5002 76.7653 63.4969 76.7665L63.4883 76.7622Z" fill="#323232"/>
<path opacity="0.3" d="M62.468 77.4814C62.4645 77.4828 62.4609 77.4836 62.4572 77.4836C62.4535 77.4836 62.4499 77.4828 62.4465 77.4814C62.4419 77.476 62.4395 77.4692 62.4395 77.4621C62.4395 77.455 62.4419 77.4482 62.4465 77.4428C62.8408 77.1204 63.3204 76.9197 63.8268 76.8653C63.8305 76.865 63.8341 76.8655 63.8376 76.8666C63.8411 76.8677 63.8444 76.8696 63.8472 76.872C63.85 76.8743 63.8523 76.8773 63.8539 76.8806C63.8556 76.8838 63.8566 76.8874 63.8568 76.8911C63.8571 76.8945 63.8568 76.8979 63.8557 76.9011C63.8547 76.9044 63.853 76.9074 63.8508 76.9099C63.8486 76.9125 63.846 76.9147 63.8429 76.9162C63.8399 76.9178 63.8366 76.9187 63.8332 76.919C63.3367 76.9717 62.8666 77.1687 62.4808 77.4857L62.468 77.4814Z" fill="#323232"/>
<path opacity="0.3" d="M64.0803 78.8621C64.0748 78.8621 64.0694 78.8605 64.0648 78.8574C64.0602 78.8544 64.0566 78.85 64.0545 78.8449C63.9751 78.6479 63.9668 78.4293 64.0311 78.2268C64.0953 78.0242 64.2281 77.8504 64.4066 77.7351C64.409 77.7327 64.4118 77.7308 64.4149 77.7295C64.4181 77.7282 64.4214 77.7275 64.4248 77.7275C64.4282 77.7275 64.4316 77.7282 64.4347 77.7295C64.4378 77.7308 64.4407 77.7327 64.4431 77.7351C64.4455 77.7375 64.4474 77.7404 64.4487 77.7435C64.45 77.7466 64.4506 77.75 64.4506 77.7534C64.4506 77.7568 64.45 77.7601 64.4487 77.7632C64.4474 77.7664 64.4455 77.7692 64.4431 77.7716C64.2752 77.8799 64.1504 78.0433 64.09 78.2338C64.0297 78.4242 64.0376 78.6297 64.1125 78.8149C64.1155 78.8215 64.1158 78.8289 64.1134 78.8357C64.111 78.8425 64.106 78.8481 64.0996 78.8514L64.0803 78.8621Z" fill="#323232"/>
<path d="M79.1562 82.2939C78.1515 80.9672 76.5566 81.1003 75.5197 81.2828L73.4675 81.6198C73.4019 81.63 73.3372 81.6458 73.2743 81.667L72.8063 81.8109L68.4121 83.2191L69.4726 86.0312L70.9087 85.8552L70.6683 86.2437L72.0765 86.1536L79.7637 85.7522V84.1937C79.7728 83.5112 79.5596 82.8444 79.1562 82.2939Z" fill="#263238"/>
<path d="M78.7398 84.5076C78.7398 84.5076 77.7759 90.9712 77.0933 91.656C75.4661 93.2917 69.4404 88.7923 69.4404 88.7923L69.6272 87.0556L74.8307 89.2023L75.8053 83.7197L78.7398 84.5076Z" fill="#EBB373"/>
<path d="M79.5323 84.0677C79.4851 84.2265 79.0708 88.7367 79.0708 88.7367L74.6572 88.3245C74.6572 88.3245 74.8869 87.073 75.2197 84.8899C75.5696 82.6079 75.7713 81.4552 76.9026 81.2706C79.0429 80.9121 79.5323 84.0677 79.5323 84.0677Z" fill="#263238"/>
<path d="M78.0535 73.8559C78.719 75.0236 78.9508 75.7213 79.011 76.8419C79.0818 78.1492 79.0217 79.3041 78.7297 79.6325C78.3476 80.0619 74.2089 80.4912 71.8883 80.3903C71.8046 80.3903 71.7359 79.6519 71.7359 79.6519C71.7359 79.6519 71.4075 80.371 71.3066 80.3645C70.6733 80.3366 70.2676 80.313 70.2676 80.313C70.2676 80.313 70.7935 79.2397 71.4354 75.3371C71.7488 73.4351 73.6636 72.6752 74.7906 72.5314C76.6625 72.2995 78.0535 73.8559 78.0535 73.8559Z" fill="#263238"/>
<path d="M72.5387 77.5312C71.9312 76.4815 71.3279 73.6522 73.8589 72.7806C77.0166 71.6901 78.4291 73.7037 78.7017 75.7001C78.9744 77.6965 77.8431 79.2035 75.7608 79.0532C73.6785 78.9029 72.9573 78.2589 72.5387 77.5312Z" fill="#263238"/>
<path d="M76.922 77.6729L75.0566 79.3902L74.7045 79.7723C74.8085 80.0339 74.8806 80.307 74.9192 80.5859C74.9459 80.8801 74.8625 81.1739 74.6852 81.4102L74.2666 82.3633C75.2004 81.6313 77.3278 81.2385 77.3278 81.2385C76.973 80.0853 76.8354 78.8763 76.922 77.6729Z" fill="#EBB373"/>
<path opacity="0.2" d="M74.919 80.6888C75.4213 80.4205 75.9924 79.9418 75.9451 79.3622C75.9337 79.1496 75.8969 78.9392 75.8356 78.7354L74.7773 80.0062C74.8488 80.228 74.8963 80.4569 74.919 80.6888Z" fill="#323232"/>
<path d="M77.5163 75.777C77.263 77.6016 77.1943 78.3766 76.2047 79.2932C74.7171 80.6714 72.5554 80.0832 72.2613 78.2521C71.9973 76.6013 72.4545 73.8965 74.2877 73.2117C74.6764 73.0518 75.1008 72.9986 75.5169 73.0575C75.933 73.1164 76.3259 73.2853 76.655 73.5467C76.984 73.8082 77.2374 74.1527 77.3888 74.5448C77.5402 74.9368 77.5842 75.3622 77.5163 75.777Z" fill="#EBB373"/>
<path d="M75.1892 76.3246C75.1698 76.5092 75.0496 76.6552 74.9208 76.6509C74.792 76.6466 74.7062 76.4964 74.719 76.3117C74.7319 76.1271 74.8586 75.9812 74.9874 75.9854C75.1162 75.9897 75.2085 76.14 75.1892 76.3246Z" fill="#263238"/>
<path d="M73.2879 76.206C73.2686 76.382 73.1505 76.5216 73.0239 76.5194C72.8972 76.5173 72.8092 76.3692 72.8264 76.1953C72.8435 76.0214 72.9637 75.8797 73.0904 75.8819C73.2171 75.884 73.3051 76.0257 73.2879 76.206Z" fill="#263238"/>
<path d="M75.4791 75.6593C75.4668 75.662 75.454 75.6618 75.4417 75.6589C75.4295 75.6559 75.418 75.6502 75.4083 75.6421C75.316 75.5701 75.2083 75.5203 75.0937 75.4965C74.9791 75.4726 74.8605 75.4755 74.7471 75.5048C74.7359 75.5091 74.7238 75.5112 74.7118 75.5107C74.6997 75.5102 74.6879 75.5073 74.677 75.502C74.6662 75.4968 74.6565 75.4894 74.6486 75.4803C74.6407 75.4711 74.6348 75.4605 74.6312 75.449C74.6258 75.4245 74.63 75.399 74.6427 75.3775C74.6555 75.3559 74.6759 75.3401 74.6999 75.333C74.8426 75.2929 74.9928 75.287 75.1382 75.3157C75.2837 75.3445 75.4203 75.407 75.5371 75.4983C75.5462 75.5062 75.5535 75.5159 75.5585 75.5268C75.5635 75.5378 75.566 75.5496 75.566 75.5616C75.566 75.5737 75.5635 75.5855 75.5585 75.5965C75.5535 75.6074 75.5462 75.6171 75.5371 75.625C75.5223 75.6427 75.5018 75.6549 75.4791 75.6593Z" fill="#263238"/>
<path d="M72.6803 75.2835C72.6607 75.2731 72.646 75.2553 72.6395 75.2341C72.6336 75.2111 72.6371 75.1866 72.6492 75.1661C72.6612 75.1456 72.6809 75.1307 72.7039 75.1246C72.842 75.0796 72.9886 75.0671 73.1323 75.0879C73.276 75.1088 73.413 75.1625 73.5325 75.2448C73.5412 75.2525 73.5482 75.2619 73.5529 75.2725C73.5577 75.283 73.5601 75.2945 73.5601 75.306C73.5601 75.3176 73.5577 75.329 73.5529 75.3396C73.5482 75.3501 73.5412 75.3596 73.5325 75.3672C73.5145 75.3832 73.4912 75.392 73.4671 75.392C73.4429 75.392 73.4196 75.3832 73.4016 75.3672C73.3058 75.3039 73.197 75.2631 73.0832 75.2478C72.9695 75.2326 72.8537 75.2433 72.7447 75.2792C72.7244 75.2881 72.7016 75.2897 72.6803 75.2835Z" fill="#263238"/>
<path d="M76.0605 74.0602C75.4509 74.6441 75.6312 76.9689 77.2541 77.3467C79.1582 76.999 77.8852 72.3235 76.0605 74.0602Z" fill="#263238"/>
<path d="M73.6914 77.9342C73.8064 78.1565 73.9054 78.3868 73.9876 78.6232L74.1186 78.6018C74.7068 78.4923 74.9451 78.2454 75.0288 78.0071C75.0675 77.8896 75.0778 77.7645 75.0588 77.6422C75.0495 77.5727 75.0307 77.5048 75.003 77.4404C74.7261 77.6851 74.183 77.829 73.891 77.8934C73.7687 77.9234 73.6914 77.9342 73.6914 77.9342Z" fill="#263238"/>
<path d="M73.8906 77.8934L73.9829 78.0952C74.5389 77.99 74.9146 77.8419 75.0563 77.6422C75.0469 77.5727 75.0282 77.5048 75.0005 77.4404C74.7257 77.6851 74.1826 77.829 73.8906 77.8934Z" fill="white"/>
<path d="M74.1182 78.6024C74.7064 78.493 74.9446 78.2461 75.0284 78.0078C74.8055 78.0538 74.5926 78.1389 74.3994 78.259C74.2717 78.3408 74.1732 78.4611 74.1182 78.6024Z" fill="#DC5753"/>
<path d="M73.807 76.0967C73.6044 76.5265 73.3484 76.9289 73.0449 77.2945C73.2596 77.5307 73.6889 77.4319 73.6889 77.4319L73.807 76.0967Z" fill="#E4873E"/>
<path d="M74.627 75.8799L75.0434 76.0001C74.8416 76.2062 74.627 75.8799 74.627 75.8799Z" fill="#263238"/>
<path d="M72.751 75.7773L73.1653 75.8976C72.9656 76.0993 72.751 75.7773 72.751 75.7773Z" fill="#263238"/>
<path d="M74.3199 72.8083C73.5836 73.023 72.7592 74.2358 72.6025 74.7124C73.6222 74.9271 76.4386 74.092 76.4386 74.092C76.4386 74.092 78.2655 74.6888 77.3703 73.7078C76.4751 72.7267 74.3199 72.8083 74.3199 72.8083Z" fill="#263238"/>
<path d="M78.0014 77.2797C77.7904 77.6074 77.4588 77.8388 77.0783 77.9237C76.5889 78.0224 76.3742 77.2303 76.561 76.7537C76.6485 76.5383 76.8104 76.3615 77.0171 76.2551C77.2239 76.1488 77.4619 76.1201 77.688 76.1741C78.1388 76.3008 78.2676 76.8675 78.0014 77.2797Z" fill="#EBB373"/>
<path d="M69.5011 80.1395L69.4453 80.0472C70.1322 79.635 70.787 78.0315 71.066 77.3467C71.3455 76.5829 71.542 75.7912 71.6521 74.9854L71.7594 75.0047C71.6461 75.815 71.4468 76.6109 71.1648 77.3789C70.8578 78.1388 70.2181 79.708 69.5011 80.1395Z" fill="#263238"/>
<path d="M76.935 77.8812C76.9317 77.9487 76.9484 78.0157 76.9832 78.0736C77.0179 78.1316 77.0691 78.1779 77.1302 78.2067C77.1913 78.2356 77.2596 78.2456 77.3264 78.2356C77.3932 78.2256 77.4556 78.196 77.5056 78.1505C77.5555 78.1051 77.5909 78.0458 77.6072 77.9802C77.6234 77.9147 77.6199 77.8457 77.5969 77.7822C77.574 77.7186 77.5327 77.6633 77.4783 77.6232C77.4239 77.5832 77.3588 77.5601 77.2913 77.5571C77.2466 77.5548 77.2019 77.5614 77.1597 77.5764C77.1175 77.5915 77.0787 77.6148 77.0456 77.6449C77.0125 77.6751 76.9856 77.7115 76.9667 77.752C76.9477 77.7926 76.9369 77.8365 76.935 77.8812Z" fill="#22A599"/>
<path opacity="0.1" d="M76.9109 77.2799C76.9038 77.2794 76.897 77.2774 76.8906 77.2742C76.8843 77.271 76.8787 77.2666 76.8741 77.2612C76.8696 77.2558 76.8661 77.2496 76.8639 77.2428C76.8617 77.2361 76.8609 77.229 76.8615 77.2219C76.8692 77.1299 76.8977 77.0407 76.9448 76.9612C76.9919 76.8817 77.0564 76.8139 77.1334 76.7628C77.2105 76.7118 77.2981 76.6789 77.3896 76.6666C77.4812 76.6543 77.5744 76.6629 77.6622 76.6917C77.6757 76.6966 77.6867 76.7064 77.6931 76.7192C77.6995 76.732 77.7007 76.7467 77.6966 76.7604C77.6944 76.7672 77.6909 76.7735 77.6862 76.779C77.6816 76.7844 77.6759 76.7889 77.6695 76.7921C77.6631 76.7953 77.6561 76.7971 77.6489 76.7976C77.6418 76.7981 77.6346 76.7971 77.6279 76.7948C77.5561 76.7708 77.4799 76.7634 77.405 76.773C77.33 76.7827 77.2581 76.8091 77.1948 76.8504C77.1314 76.8917 77.0782 76.9467 77.0391 77.0114C77 77.0761 76.9759 77.1488 76.9688 77.2241C76.9692 77.2317 76.9679 77.2393 76.9651 77.2463C76.9622 77.2534 76.9579 77.2598 76.9525 77.2651C76.947 77.2704 76.9404 77.2744 76.9333 77.277C76.9261 77.2795 76.9185 77.2805 76.9109 77.2799Z" fill="#323232"/>
<path d="M71.6754 88.2574L69.6275 87.0552L69.0693 86.3404C69.0693 86.3404 68.494 85.662 68.0304 85.617C67.7976 85.6095 67.5664 85.6581 67.3563 85.7586C67.3563 85.7586 66.8196 86.0978 67.1416 86.6173C67.1416 86.6173 66.6114 86.8899 66.9721 87.476C66.9721 87.476 66.4633 87.4867 66.8991 88.0191C67.067 88.2205 67.2735 88.3861 67.5066 88.5063C67.7396 88.6265 67.9943 88.6988 68.2558 88.7189C68.5579 88.7474 68.8627 88.7205 69.1552 88.6395L71.4156 90.125L71.6754 88.2574Z" fill="#EBB373"/>
<path d="M75.0439 86.0057L75.4131 83.6895L74.2861 86.0315L75.0439 86.0057Z" fill="#323232"/>
<path d="M70.9095 85.8561L71.8304 83.9863L70.0615 85.9613L70.9095 85.8561Z" fill="#323232"/>
</svg>
