<svg width="20" height="21" viewBox="0 0 20 21" fill="none" xmlns="http://www.w3.org/2000/svg">
<path fill-rule="evenodd" clip-rule="evenodd" d="M10 18.5C14.4183 18.5 18 14.9183 18 10.5C18 6.08172 14.4183 2.5 10 2.5C5.58172 2.5 2 6.08172 2 10.5C2 14.9183 5.58172 18.5 10 18.5ZM11 6.5C11 5.94772 10.5523 5.5 10 5.5C9.44772 5.5 9 5.94772 9 6.5V10.5C9 10.7652 9.10536 11.0196 9.29289 11.2071L12.1213 14.0355C12.5118 14.4261 13.145 14.4261 13.5355 14.0355C13.9261 13.645 13.9261 13.0118 13.5355 12.6213L11 10.0858V6.5Z" fill="#707A94"/>
</svg>
