<svg width="20" height="21" viewBox="0 0 20 21" fill="none" xmlns="http://www.w3.org/2000/svg">
<path d="M10.7071 2.86907C10.3166 2.47854 9.68342 2.47854 9.29289 2.86907L2.29289 9.86907C1.90237 10.2596 1.90237 10.8928 2.29289 11.2833C2.68342 11.6738 3.31658 11.6738 3.70711 11.2833L4 10.9904V17.5762C4 18.1285 4.44772 18.5762 5 18.5762H7C7.55228 18.5762 8 18.1285 8 17.5762V15.5762C8 15.0239 8.44772 14.5762 9 14.5762H11C11.5523 14.5762 12 15.0239 12 15.5762V17.5762C12 18.1285 12.4477 18.5762 13 18.5762H15C15.5523 18.5762 16 18.1285 16 17.5762V10.9904L16.2929 11.2833C16.6834 11.6738 17.3166 11.6738 17.7071 11.2833C18.0976 10.8928 18.0976 10.2596 17.7071 9.86907L10.7071 2.86907Z" fill="#707A94"/>
</svg>
