<svg width="20" height="21" viewBox="0 0 20 21" fill="none" xmlns="http://www.w3.org/2000/svg">
<path d="M10 2.57617C9.44772 2.57617 9 3.02389 9 3.57617V4.57617C9 5.12846 9.44772 5.57617 10 5.57617C10.5523 5.57617 11 5.12846 11 4.57617V3.57617C11 3.02389 10.5523 2.57617 10 2.57617Z" fill="#707A94"/>
<path fill-rule="evenodd" clip-rule="evenodd" d="M4 4.57617H7C7 6.23303 8.34315 7.57617 10 7.57617C11.6569 7.57617 13 6.23303 13 4.57617H16C17.1046 4.57617 18 5.4716 18 6.57617V15.5762C18 16.6807 17.1046 17.5762 16 17.5762H4C2.89543 17.5762 2 16.6807 2 15.5762V6.57617C2 5.4716 2.89543 4.57617 4 4.57617ZM6.5 11.5762C7.32843 11.5762 8 10.9046 8 10.0762C8 9.24774 7.32843 8.57617 6.5 8.57617C5.67157 8.57617 5 9.24774 5 10.0762C5 10.9046 5.67157 11.5762 6.5 11.5762ZM8.95048 15.5762C8.98327 15.4146 9.00049 15.2474 9.00049 15.0762C9.00049 13.6955 7.8812 12.5762 6.50049 12.5762C5.11978 12.5762 4.00049 13.6955 4.00049 15.0762C4.00049 15.2474 4.0177 15.4146 4.0505 15.5762H8.95048ZM12 9.57617C11.4477 9.57617 11 10.0239 11 10.5762C11 11.1285 11.4477 11.5762 12 11.5762H15C15.5523 11.5762 16 11.1285 16 10.5762C16 10.0239 15.5523 9.57617 15 9.57617H12ZM11 13.5762C11 13.0239 11.4477 12.5762 12 12.5762H14C14.5523 12.5762 15 13.0239 15 13.5762C15 14.1285 14.5523 14.5762 14 14.5762H12C11.4477 14.5762 11 14.1285 11 13.5762Z" fill="#707A94"/>
</svg>
