<svg width="20" height="20" viewBox="0 0 20 20" fill="none" xmlns="http://www.w3.org/2000/svg">
<rect width="20" height="20" rx="10" fill="#DBDFE9"/>
<path fill-rule="evenodd" clip-rule="evenodd" d="M5.43451 5.43451C5.74693 5.12209 6.25346 5.12209 6.56588 5.43451L10.0002 8.86882L13.4345 5.43451C13.7469 5.12209 14.2535 5.12209 14.5659 5.43451C14.8783 5.74693 14.8783 6.25346 14.5659 6.56588L11.1316 10.0002L14.5659 13.4345C14.8783 13.7469 14.8783 14.2535 14.5659 14.5659C14.2535 14.8783 13.7469 14.8783 13.4345 14.5659L10.0002 11.1316L6.56588 14.5659C6.25346 14.8783 5.74693 14.8783 5.43451 14.5659C5.12209 14.2535 5.12209 13.7469 5.43451 13.4345L8.86882 10.0002L5.43451 6.56588C5.12209 6.25346 5.12209 5.74693 5.43451 5.43451Z" fill="#707A94"/>
</svg>
