<svg width="20" height="21" viewBox="0 0 20 21" fill="none" xmlns="http://www.w3.org/2000/svg">
<g id="Icon/Solid/information-circle">
<path id="Icon" fill-rule="evenodd" clip-rule="evenodd" d="M18 10.25C18 14.6683 14.4183 18.25 10 18.25C5.58172 18.25 2 14.6683 2 10.25C2 5.83172 5.58172 2.25 10 2.25C14.4183 2.25 18 5.83172 18 10.25ZM11 6.25C11 6.80228 10.5523 7.25 10 7.25C9.44772 7.25 9 6.80228 9 6.25C9 5.69772 9.44772 5.25 10 5.25C10.5523 5.25 11 5.69772 11 6.25ZM9 9.25C8.44772 9.25 8 9.69772 8 10.25C8 10.8023 8.44772 11.25 9 11.25V14.25C9 14.8023 9.44772 15.25 10 15.25H11C11.5523 15.25 12 14.8023 12 14.25C12 13.6977 11.5523 13.25 11 13.25V10.25C11 9.69772 10.5523 9.25 10 9.25H9Z" fill="#707A94"/>
</g>
</svg>
