<svg width="20" height="20" viewBox="0 0 20 20" fill="none" xmlns="http://www.w3.org/2000/svg">
<path d="M10 20C15.5228 20 20 15.5228 20 10C20 4.47715 15.5228 0 10 0C4.47715 0 0 4.47715 0 10C0 15.5228 4.47715 20 10 20Z" fill="#D80027"/>
<path d="M14.8905 10L12.8922 10.9399L13.9563 12.8754L11.7863 12.4602L11.5114 14.6522L9.99993 13.0401L8.48852 14.6522L8.21356 12.4602L6.04372 12.8753L7.10778 10.9399L5.10946 10L7.10778 9.06013L6.04372 7.12466L8.21348 7.53989L8.4886 5.34782L9.99993 6.95997L11.5115 5.34782L11.7863 7.53989L13.9564 7.12466L12.8923 9.06025L14.8905 10Z" fill="#FFDA44"/>
<path d="M9.99996 13.043C11.6808 13.043 13.0434 11.6804 13.0434 9.99953C13.0434 8.31867 11.6808 6.95605 9.99996 6.95605C8.31909 6.95605 6.95648 8.31867 6.95648 9.99953C6.95648 11.6804 8.31909 13.043 9.99996 13.043Z" fill="#D80027"/>
<path d="M8.47826 9.99998C8.40494 9.99998 8.33255 10.0037 8.26111 10.0108C8.26373 10.4324 8.41623 10.8182 8.6681 11.1179C8.80248 10.7563 9.0031 10.4266 9.25611 10.1444C9.01447 10.0515 8.75232 9.99998 8.47826 9.99998Z" fill="#FFDA44"/>
<path d="M9.41505 11.638C9.59787 11.7033 9.7947 11.7391 10 11.7391C10.2053 11.7391 10.4022 11.7033 10.585 11.638C10.4853 11.2469 10.2796 10.8978 10 10.6234C9.72045 10.8977 9.5147 11.2469 9.41505 11.638Z" fill="#FFDA44"/>
<path d="M11.5061 9.13069C11.2054 8.61093 10.6438 8.26085 10 8.26085C9.35627 8.26085 8.79466 8.61089 8.49396 9.13069C9.04216 9.13347 9.55623 9.28253 10 9.53991C10.4438 9.28253 10.9578 9.13347 11.5061 9.13069Z" fill="#FFDA44"/>
<path d="M10.7438 10.1444C10.9969 10.4266 11.1975 10.7563 11.3319 11.118C11.5837 10.8182 11.7362 10.4324 11.7388 10.0109C11.6674 10.0037 11.595 10 11.5217 10C11.2477 9.99999 10.9856 10.0515 10.7438 10.1444Z" fill="#FFDA44"/>
</svg>
