<svg width="20" height="21" viewBox="0 0 20 21" fill="none" xmlns="http://www.w3.org/2000/svg">
<path d="M7.33301 9.57617H9.33301V11.5762H7.33301V9.57617Z" fill="#707A94"/>
<path d="M6.33301 12.9092H8.33301V14.9092H6.33301V12.9092Z" fill="#707A94"/>
<path d="M10 10.9092H12V12.9092H10V10.9092Z" fill="#707A94"/>
<path d="M4 10.9098V16.5765H3V17.9098C3 18.8305 3.746 19.5765 4.66667 19.5765H14.6667C15.5873 19.5765 16.3333 18.8305 16.3333 17.9098V16.5765H15.3333V10.9098C15.3333 10.5418 15.0347 10.2432 14.6667 10.2432H13V11.5765H14V16.5765H5.33333V11.5765H6.33333V10.2432H4.66667C4.29867 10.2432 4 10.5418 4 10.9098ZM8.5 17.5765H10.8333C11.1093 17.5765 11.3333 17.8005 11.3333 18.0765C11.3333 18.3525 11.1093 18.5765 10.8333 18.5765H8.5C8.224 18.5765 8 18.3525 8 18.0765C8 17.8005 8.224 17.5765 8.5 17.5765Z" fill="#707A94"/>
<path d="M14.9997 6.24251C14.8817 6.24251 14.7653 6.24951 14.6503 6.26018C14.4873 3.83085 12.4703 1.90918 9.99967 1.90918C7.76401 1.90918 5.89767 3.48218 5.44167 5.58151C5.40534 5.58051 5.36967 5.57585 5.33301 5.57585C3.12401 5.57585 1.33301 7.36685 1.33301 9.57585C1.33301 10.9132 1.99201 12.0942 2.99967 12.8202V10.5758C2.99967 9.83951 3.59667 9.24251 4.33301 9.24251H6.33301C6.33301 8.87451 6.63167 8.57585 6.99967 8.57585H7.99967V7.07585C7.99967 6.79985 8.22367 6.57585 8.49967 6.57585C8.77567 6.57585 8.99967 6.79985 8.99967 7.07585V8.57585H9.66634C10.0343 8.57585 10.333 8.87451 10.333 9.24251H11.333V8.07585C11.333 7.79985 11.557 7.57585 11.833 7.57585C12.109 7.57585 12.333 7.79985 12.333 8.07585V9.24251H14.9997C15.736 9.24251 16.333 9.83951 16.333 10.5758V13.3218C17.698 12.7882 18.6663 11.4632 18.6663 9.90918C18.6663 7.88418 17.0247 6.24251 14.9997 6.24251ZM8.99967 5.07585C8.99967 5.35185 8.77567 5.57585 8.49967 5.57585C8.22367 5.57585 7.99967 5.35185 7.99967 5.07585V3.74251C7.99967 3.46651 8.22367 3.24251 8.49967 3.24251C8.77567 3.24251 8.99967 3.46651 8.99967 3.74251V5.07585ZM12.333 6.07585C12.333 6.35185 12.109 6.57585 11.833 6.57585C11.557 6.57585 11.333 6.35185 11.333 6.07585V4.74251C11.333 4.46651 11.557 4.24251 11.833 4.24251C12.109 4.24251 12.333 4.46651 12.333 4.74251V6.07585Z" fill="#707A94"/>
</svg>
