<svg width="49" height="20" viewBox="0 0 49 20" fill="none" xmlns="http://www.w3.org/2000/svg">
<path fill-rule="evenodd" clip-rule="evenodd" d="M16.6661 4.99878C19.6744 4.95797 22.4153 3.81021 24.5 1.94434C26.5847 3.81021 29.3256 4.95797 32.3339 4.99878C32.4431 5.64956 32.5 6.31809 32.5 6.99991C32.5 12.2248 29.1608 16.6697 24.5 18.317C19.8392 16.6697 16.5 12.2248 16.5 6.99991C16.5 6.31809 16.5569 5.64956 16.6661 4.99878ZM28.2071 8.70698C28.5976 8.31646 28.5976 7.6833 28.2071 7.29277C27.8166 6.90225 27.1834 6.90225 26.7929 7.29277L23.5 10.5857L22.2071 9.29277C21.8166 8.90225 21.1834 8.90225 20.7929 9.29277C20.4024 9.6833 20.4024 10.3165 20.7929 10.707L22.7929 12.707C23.1834 13.0975 23.8166 13.0975 24.2071 12.707L28.2071 8.70698Z" fill="#22A599"/>
</svg>
