<svg width="20" height="21" viewBox="0 0 20 21" fill="none" xmlns="http://www.w3.org/2000/svg">
<path d="M4.16667 18C3.70833 18 3.31583 17.8367 2.98917 17.51C2.6625 17.1833 2.49945 16.7911 2.5 16.3333V4.66667C2.5 4.20833 2.66333 3.81583 2.99 3.48917C3.31667 3.1625 3.70889 2.99945 4.16667 3H9.16667C9.40278 3 9.60084 3.08 9.76084 3.24C9.92084 3.4 10.0006 3.59778 10 3.83333C10 4.06945 9.92 4.2675 9.76 4.4275C9.6 4.5875 9.40222 4.66722 9.16667 4.66667H4.16667V16.3333H9.16667C9.40278 16.3333 9.60084 16.4133 9.76084 16.5733C9.92084 16.7333 10.0006 16.9311 10 17.1667C10 17.4028 9.92 17.6008 9.76 17.7608C9.6 17.9208 9.40222 18.0006 9.16667 18H4.16667ZM14.3125 11.3333H8.33334C8.09722 11.3333 7.89917 11.2533 7.73917 11.0933C7.57917 10.9333 7.49945 10.7356 7.5 10.5C7.5 10.2639 7.58 10.0658 7.74 9.90583C7.9 9.74583 8.09778 9.66611 8.33334 9.66667H14.3125L12.75 8.10417C12.5972 7.95139 12.5208 7.76389 12.5208 7.54167C12.5208 7.31945 12.5972 7.125 12.75 6.95833C12.9028 6.79167 13.0972 6.70472 13.3333 6.6975C13.5694 6.69028 13.7708 6.77028 13.9375 6.9375L16.9167 9.91667C17.0833 10.0833 17.1667 10.2778 17.1667 10.5C17.1667 10.7222 17.0833 10.9167 16.9167 11.0833L13.9375 14.0625C13.7708 14.2292 13.5728 14.3092 13.3433 14.3025C13.1139 14.2958 12.9161 14.2089 12.75 14.0417C12.5972 13.875 12.5242 13.6769 12.5308 13.4475C12.5375 13.2181 12.6175 13.0272 12.7708 12.875L14.3125 11.3333Z" fill="#707A94"/>
</svg>
