<svg width="16" height="16" viewBox="0 0 16 16" fill="none" xmlns="http://www.w3.org/2000/svg">
<path d="M8.00002 2C7.26669 2 6.66669 2.6 6.66669 3.33333C6.66669 4.06667 7.26669 4.66667 8.00002 4.66667C8.73335 4.66667 9.33335 4.06667 9.33335 3.33333C9.33335 2.6 8.73335 2 8.00002 2ZM8.00002 11.3333C7.26669 11.3333 6.66669 11.9333 6.66669 12.6667C6.66669 13.4 7.26669 14 8.00002 14C8.73335 14 9.33335 13.4 9.33335 12.6667C9.33335 11.9333 8.73335 11.3333 8.00002 11.3333ZM8.00002 6.66667C7.26669 6.66667 6.66669 7.26667 6.66669 8C6.66669 8.73333 7.26669 9.33333 8.00002 9.33333C8.73335 9.33333 9.33335 8.73333 9.33335 8C9.33335 7.26667 8.73335 6.66667 8.00002 6.66667Z" fill="#323232"/>
</svg>
