<svg width="20" height="21" viewBox="0 0 20 21" fill="none" xmlns="http://www.w3.org/2000/svg">
<path fill-rule="evenodd" clip-rule="evenodd" d="M5 2.57617C3.89543 2.57617 3 3.4716 3 4.57617V18.5762L6.5 16.5762L10 18.5762L13.5 16.5762L17 18.5762V4.57617C17 3.4716 16.1046 2.57617 15 2.57617H5ZM7.5 5.57617C6.67157 5.57617 6 6.24774 6 7.07617C6 7.9046 6.67157 8.57617 7.5 8.57617C8.32843 8.57617 9 7.9046 9 7.07617C9 6.24774 8.32843 5.57617 7.5 5.57617ZM13.7071 5.86907C13.3166 5.47854 12.6834 5.47854 12.2929 5.86907L6.29289 11.8691C5.90237 12.2596 5.90237 12.8928 6.29289 13.2833C6.68342 13.6738 7.31658 13.6738 7.70711 13.2833L13.7071 7.28328C14.0976 6.89275 14.0976 6.25959 13.7071 5.86907ZM12.5 10.5762C11.6716 10.5762 11 11.2477 11 12.0762C11 12.9046 11.6716 13.5762 12.5 13.5762C13.3284 13.5762 14 12.9046 14 12.0762C14 11.2477 13.3284 10.5762 12.5 10.5762Z" fill="#707A94"/>
</svg>
