<svg width="31" height="31" viewBox="0 0 31 31" fill="none" xmlns="http://www.w3.org/2000/svg">
<rect x="0.5" y="0.5" width="30" height="30" rx="15" fill="#FF4B55"/>
<path fill-rule="evenodd" clip-rule="evenodd" d="M9.79289 9.79289C10.1834 9.40237 10.8166 9.40237 11.2071 9.79289L15.5 14.0858L19.7929 9.79289C20.1834 9.40237 20.8166 9.40237 21.2071 9.79289C21.5976 10.1834 21.5976 10.8166 21.2071 11.2071L16.9142 15.5L21.2071 19.7929C21.5976 20.1834 21.5976 20.8166 21.2071 21.2071C20.8166 21.5976 20.1834 21.5976 19.7929 21.2071L15.5 16.9142L11.2071 21.2071C10.8166 21.5976 10.1834 21.5976 9.79289 21.2071C9.40237 20.8166 9.40237 20.1834 9.79289 19.7929L14.0858 15.5L9.79289 11.2071C9.40237 10.8166 9.40237 10.1834 9.79289 9.79289Z" fill="#F1F2F3"/>
</svg>
