<svg width="20" height="20" viewBox="0 0 20 20" fill="none" xmlns="http://www.w3.org/2000/svg">
<path d="M4.75744 4.75325C7.23072 2.36829 10.9115 2.46335 13.2006 4.75325C15.3896 6.94297 15.5234 10.41 13.6021 12.7559L17 16.1554L16.1557 17L12.7574 13.6009C10.4123 15.5229 6.94641 15.389 4.75744 13.1993C2.46832 10.9094 2.36068 7.06442 4.75744 4.75325ZM12.3563 5.59786C10.4911 3.73201 7.46696 3.73201 5.60175 5.59786C3.73654 7.4637 3.73654 10.4888 5.60175 12.3547C7.46696 14.2205 10.4911 14.2205 12.3563 12.3547C14.2215 10.4888 14.2215 7.4637 12.3563 5.59786Z" fill="#C5A4A4"/>
<path d="M4.75744 4.75325C7.23072 2.36829 10.9115 2.46335 13.2006 4.75325C15.3896 6.94297 15.5234 10.41 13.6021 12.7559L17 16.1554L16.1557 17L12.7574 13.6009C10.4123 15.5229 6.94641 15.389 4.75744 13.1993C2.46832 10.9094 2.36068 7.06442 4.75744 4.75325ZM12.3563 5.59786C10.4911 3.73201 7.46696 3.73201 5.60175 5.59786C3.73654 7.4637 3.73654 10.4888 5.60175 12.3547C7.46696 14.2205 10.4911 14.2205 12.3563 12.3547C14.2215 10.4888 14.2215 7.4637 12.3563 5.59786Z" fill="#707A94"/>
</svg>
