<svg width="20" height="21" viewBox="0 0 20 21" fill="none" xmlns="http://www.w3.org/2000/svg">
<path d="M18 3.57617C18 3.2296 17.8205 2.90773 17.5257 2.72552C17.2309 2.54332 16.8628 2.52675 16.5528 2.68175L8.76393 6.57617H5C3.34315 6.57617 2 7.91932 2 9.57617C2 11.233 3.34315 12.5762 5 12.5762H5.27925L7.05132 17.8924C7.18744 18.3007 7.56958 18.5762 8.00001 18.5762H9.00001C9.55229 18.5762 10 18.1285 10 17.5762V13.1942L16.5528 16.4706C16.8628 16.6256 17.2309 16.609 17.5257 16.4268C17.8205 16.2446 18 15.9228 18 15.5762V3.57617Z" fill="#707A94"/>
</svg>
