<svg width="20" height="21" viewBox="0 0 20 21" fill="none" xmlns="http://www.w3.org/2000/svg">
<path fill-rule="evenodd" clip-rule="evenodd" d="M17.7071 9.86906C18.0976 10.2596 18.0976 10.8928 17.7071 11.2833L10.7071 18.2833C10.3166 18.6738 9.68342 18.6738 9.29289 18.2833L2.29289 11.2833C2.0976 11.088 1.99997 10.832 2 10.576V5.57617C2 3.91932 3.34315 2.57617 5 2.57617H10.0003C10.2561 2.57624 10.5119 2.67387 10.7071 2.86906L17.7071 9.86906ZM5 6.57617C5.55228 6.57617 6 6.12846 6 5.57617C6 5.02389 5.55228 4.57617 5 4.57617C4.44772 4.57617 4 5.02389 4 5.57617C4 6.12846 4.44772 6.57617 5 6.57617Z" fill="#707A94"/>
</svg>
