<svg width="20" height="21" viewBox="0 0 20 21" fill="none" xmlns="http://www.w3.org/2000/svg">
<path d="M3 4.57617C3 4.02389 3.44772 3.57617 4 3.57617H16C16.5523 3.57617 17 4.02389 17 4.57617V6.57617C17 7.12846 16.5523 7.57617 16 7.57617H4C3.44772 7.57617 3 7.12846 3 6.57617V4.57617Z" fill="#707A94"/>
<path d="M3 10.5762C3 10.0239 3.44772 9.57617 4 9.57617H10C10.5523 9.57617 11 10.0239 11 10.5762V16.5762C11 17.1285 10.5523 17.5762 10 17.5762H4C3.44772 17.5762 3 17.1285 3 16.5762V10.5762Z" fill="#707A94"/>
<path d="M14 9.57617C13.4477 9.57617 13 10.0239 13 10.5762V16.5762C13 17.1285 13.4477 17.5762 14 17.5762H16C16.5523 17.5762 17 17.1285 17 16.5762V10.5762C17 10.0239 16.5523 9.57617 16 9.57617H14Z" fill="#707A94"/>
</svg>
