<svg width="18" height="16" viewBox="0 0 18 16" fill="none" xmlns="http://www.w3.org/2000/svg">
<path d="M12 3.57617C12 5.23303 10.6569 6.57617 9 6.57617C7.34315 6.57617 6 5.23303 6 3.57617C6 1.91932 7.34315 0.576172 9 0.576172C10.6569 0.576172 12 1.91932 12 3.57617Z" fill="#707A94"/>
<path d="M17 5.57617C17 6.68074 16.1046 7.57617 15 7.57617C13.8954 7.57617 13 6.68074 13 5.57617C13 4.4716 13.8954 3.57617 15 3.57617C16.1046 3.57617 17 4.4716 17 5.57617Z" fill="#707A94"/>
<path d="M13 12.5762C13 10.367 11.2091 8.57617 9 8.57617C6.79086 8.57617 5 10.367 5 12.5762V15.5762H13V12.5762Z" fill="#707A94"/>
<path d="M5 5.57617C5 6.68074 4.10457 7.57617 3 7.57617C1.89543 7.57617 1 6.68074 1 5.57617C1 4.4716 1.89543 3.57617 3 3.57617C4.10457 3.57617 5 4.4716 5 5.57617Z" fill="#707A94"/>
<path d="M15 15.5762V12.5762C15 11.522 14.7282 10.5314 14.2507 9.6705C14.4902 9.60892 14.7413 9.57617 15 9.57617C16.6569 9.57617 18 10.9193 18 12.5762V15.5762H15Z" fill="#707A94"/>
<path d="M3.74926 9.6705C3.27185 10.5314 3 11.522 3 12.5762V15.5762H0V12.5762C0 10.9193 1.34315 9.57617 3 9.57617C3.25871 9.57617 3.50977 9.60892 3.74926 9.6705Z" fill="#707A94"/>
</svg>
