<svg width="36" height="36" viewBox="0 0 36 36" fill="none" xmlns="http://www.w3.org/2000/svg">
<path d="M33 18C33 26.286 26.2845 33 18 33C9.7155 33 3 26.286 3 18C3 9.717 9.7155 3 18 3C26.2845 3 33 9.717 33 18Z" fill="#FF4B55"/>
<path fill-rule="evenodd" clip-rule="evenodd" d="M19.3052 18.9464C19.3052 19.6694 18.7157 20.2589 17.9927 20.2589C17.2697 20.2589 16.6802 19.6694 16.6802 18.9464V12.3164C16.6802 11.5934 17.2697 11.0039 17.9927 11.0039C18.7157 11.0039 19.3052 11.5934 19.3052 12.3164V18.9464ZM16.6877 23.7056C16.6877 22.9826 17.2742 22.3931 17.9927 22.3931C18.7322 22.3931 19.3202 22.9826 19.3202 23.7056C19.3202 24.4286 18.7322 25.0181 18.0077 25.0181C17.2802 25.0181 16.6877 24.4286 16.6877 23.7056Z" fill="white"/>
</svg>
