<svg width="28" height="26" viewBox="0 0 28 26" fill="none" xmlns="http://www.w3.org/2000/svg">
<g clip-path="url(#clip0_2518_9375)">
<path fill-rule="evenodd" clip-rule="evenodd" d="M9.94844 12.6305C11.0164 11.6346 12.7023 11.6607 13.7375 12.6893L19.6822 18.5957C20.7303 19.6371 20.7181 21.3134 19.6549 22.34C18.5917 23.3666 16.8802 23.3546 15.8321 22.3133L11.7524 18.2599L5.83189 23.7812C4.75064 24.7896 3.03958 24.7484 2.01011 23.6894C0.980645 22.6304 1.02261 20.9545 2.10385 19.9461L9.94844 12.6305Z" fill="#DB1010"/>
<path fill-rule="evenodd" clip-rule="evenodd" d="M13.2842 0.208233C14.7464 0.503095 15.6878 1.90319 15.3868 3.33544L15.1571 4.42801C14.8561 5.86025 13.4266 6.78226 11.9643 6.48743C10.5021 6.19255 9.56068 4.79247 9.86173 3.3602L10.0914 2.26765C10.3924 0.835404 11.8219 -0.0866273 13.2842 0.208233Z" fill="#DB1010"/>
<path fill-rule="evenodd" clip-rule="evenodd" d="M1.36134 3.69022C2.45409 2.69387 4.16459 2.75382 5.18181 3.82412L7.91076 6.6954C8.92798 7.76571 8.86678 9.44105 7.77406 10.4374C6.6813 11.4337 4.97083 11.3738 3.95357 10.3035L1.22463 7.43224C0.207387 6.36192 0.268595 4.68658 1.36134 3.69022Z" fill="#DB1010"/>
<path fill-rule="evenodd" clip-rule="evenodd" d="M26.8464 0.821964C27.8758 1.88099 27.8338 3.5569 26.7526 4.56526L19.8309 11.0202C18.7497 12.0285 17.0386 11.9874 16.0091 10.9284C14.9797 9.86934 15.0216 8.19341 16.1029 7.18509L23.0246 0.730153C24.1058 -0.278171 25.8169 -0.237066 26.8464 0.821964Z" fill="#DB1010"/>
</g>
<defs>
<clipPath id="clip0_2518_9375">
<rect width="27" height="26" fill="white" transform="translate(0.5)"/>
</clipPath>
</defs>
</svg>
