<svg width="20" height="20" viewBox="0 0 20 20" fill="none" xmlns="http://www.w3.org/2000/svg">
<path d="M4.16667 17.5C3.70833 17.5 3.31583 17.3367 2.98917 17.01C2.6625 16.6833 2.49945 16.2911 2.5 15.8333V4.16667C2.5 3.70833 2.66333 3.31583 2.99 2.98917C3.31667 2.6625 3.70889 2.49945 4.16667 2.5H9.16667C9.40278 2.5 9.60084 2.58 9.76084 2.74C9.92084 2.9 10.0006 3.09778 10 3.33333C10 3.56945 9.92 3.7675 9.76 3.9275C9.6 4.0875 9.40222 4.16722 9.16667 4.16667H4.16667V15.8333H9.16667C9.40278 15.8333 9.60084 15.9133 9.76084 16.0733C9.92084 16.2333 10.0006 16.4311 10 16.6667C10 16.9028 9.92 17.1008 9.76 17.2608C9.6 17.4208 9.40222 17.5006 9.16667 17.5H4.16667ZM14.3125 10.8333H8.33334C8.09722 10.8333 7.89917 10.7533 7.73917 10.5933C7.57917 10.4333 7.49945 10.2356 7.5 10C7.5 9.76389 7.58 9.56583 7.74 9.40583C7.9 9.24583 8.09778 9.16611 8.33334 9.16667H14.3125L12.75 7.60417C12.5972 7.45139 12.5208 7.26389 12.5208 7.04167C12.5208 6.81945 12.5972 6.625 12.75 6.45833C12.9028 6.29167 13.0972 6.20472 13.3333 6.1975C13.5694 6.19028 13.7708 6.27028 13.9375 6.4375L16.9167 9.41667C17.0833 9.58333 17.1667 9.77778 17.1667 10C17.1667 10.2222 17.0833 10.4167 16.9167 10.5833L13.9375 13.5625C13.7708 13.7292 13.5728 13.8092 13.3433 13.8025C13.1139 13.7958 12.9161 13.7089 12.75 13.5417C12.5972 13.375 12.5242 13.1769 12.5308 12.9475C12.5375 12.7181 12.6175 12.5272 12.7708 12.375L14.3125 10.8333Z" fill="#22A599"/>
</svg>
