<svg width="20" height="20" viewBox="0 0 20 20" fill="none" xmlns="http://www.w3.org/2000/svg">
<g clip-path="url(#clip0_2570_21860)">
<path d="M12 1.66663C11 7.66663 4.66663 9.66663 4.66663 9.66663L9.66663 14.3333C9.66663 14.3333 17.6666 12 17.6666 5.33329L12 1.66663ZM12 10.6666C11.0793 10.6666 10.3333 9.92063 10.3333 8.99996C10.3333 8.07929 11.0793 7.33329 12 7.33329C12.9206 7.33329 13.6666 8.07929 13.6666 8.99996C13.6666 9.92063 12.9206 10.6666 12 10.6666Z" fill="#22A599"/>
<path d="M9.94663 15.2933C9.85429 15.3203 9.75996 15.3333 9.66663 15.3333C9.41663 15.3333 9.17229 15.2399 8.98463 15.0646L8.43029 14.5469C7.41129 15.0979 6.66663 15.3333 6.66663 15.3333L11.6666 19.9999C11.6666 19.9999 19.6666 17.6666 19.6666 10.9999L17.55 9.63062C16.7346 11.0766 15.5726 12.2019 14.3983 13.0536C15.218 13.2556 15.8013 14.0583 15.6396 14.9716C15.524 15.6229 15.0093 16.1593 14.362 16.2956C13.2836 16.5219 12.3333 15.7053 12.3333 14.6666C12.3333 14.5346 12.3523 14.4083 12.3816 14.2849C11.0826 14.9513 10.0656 15.2583 9.94663 15.2933Z" fill="#22A599"/>
<path d="M6.66671 0C6.65237 0 6.63871 0.001 6.62504 0.00266667L3.95837 0.336C3.79404 0.356333 3.66671 0.496667 3.66671 0.666667C3.66671 0.758667 3.70371 0.842 3.76437 0.902333L4.45971 1.59767L1.52937 4.528C1.40837 4.64867 1.33337 4.81567 1.33337 5C1.33337 5.368 1.63204 5.66667 2.00004 5.66667C2.18437 5.66667 2.35104 5.59167 2.47204 5.471L5.40237 2.54033L6.09771 3.23567C6.15804 3.296 6.24137 3.33333 6.33337 3.33333C6.50337 3.33333 6.64371 3.206 6.66404 3.04167L6.99737 0.375C6.99937 0.361333 7.00004 0.347667 7.00004 0.333333C7.00004 0.149 6.85104 0 6.66671 0Z" fill="#22A599"/>
<path d="M6.00004 6.33329C6.00004 5.96529 5.70137 5.66663 5.33337 5.66663C5.14904 5.66663 4.98237 5.74163 4.86137 5.86229L1.93104 8.79296L1.23571 8.09763C1.17537 8.03729 1.09204 7.99996 1.00004 7.99996C0.830041 7.99996 0.689707 8.12729 0.669374 8.29163L0.336041 10.9583C0.334041 10.972 0.333374 10.9856 0.333374 11C0.333374 11.1843 0.482374 11.3333 0.666707 11.3333C0.681041 11.3333 0.694707 11.3323 0.708374 11.3306L3.37504 10.9973C3.53937 10.977 3.66671 10.8366 3.66671 10.6666C3.66671 10.5746 3.62971 10.4913 3.56904 10.431L2.87371 9.73563L5.80404 6.80529C5.92504 6.68463 6.00004 6.51763 6.00004 6.33329Z" fill="#22A599"/>
</g>
<defs>
<clipPath id="clip0_2570_21860">
<rect width="20" height="20" fill="white"/>
</clipPath>
</defs>
</svg>
