<svg width="20" height="20" viewBox="0 0 20 20" fill="none" xmlns="http://www.w3.org/2000/svg">
<path d="M3.83333 5.00004C4.84586 5.00004 5.66667 4.17923 5.66667 3.16671C5.66667 2.15419 4.84586 1.33337 3.83333 1.33337C2.82081 1.33337 2 2.15419 2 3.16671C2 4.17923 2.82081 5.00004 3.83333 5.00004Z" fill="#22A599"/>
<path d="M1.00008 8.50041C1.00008 6.9356 2.26861 5.66667 3.83341 5.66667C5.39822 5.66667 6.66675 6.93519 6.66675 8.5V10L5.00008 10C5.00008 10 3.58741 10 2.66675 10L1.00008 10C1.00008 9.69838 1.00008 9.12932 1.00008 8.50041Z" fill="#22A599"/>
<path d="M8.16671 14C9.17923 14 10 13.1792 10 12.1667C10 11.1542 9.17923 10.3334 8.16671 10.3334C7.15419 10.3334 6.33337 11.1542 6.33337 12.1667C6.33337 13.1792 7.15419 14 8.16671 14Z" fill="#22A599"/>
<path d="M8.16671 14.6667C6.6019 14.6667 5.33337 15.9356 5.33337 17.5004C5.33337 18.1293 5.33337 18.6984 5.33337 19L7.00004 19H9.33337H11V17.5C11 15.9352 9.73151 14.6667 8.16671 14.6667Z" fill="#22A599"/>
<path d="M15.8333 8.33333C17.0299 8.33333 18 7.36328 18 6.16667C18 4.97005 17.0299 4 15.8333 4C14.6367 4 13.6666 4.97005 13.6666 6.16667C13.6666 7.36328 14.6367 8.33333 15.8333 8.33333Z" fill="#22A599"/>
<path d="M15.8333 9C14.0844 9 12.6666 10.4178 12.6666 12.1667V15L14.3333 15L17.3333 15L19 15V12.1667C19 10.4178 17.5822 9 15.8333 9Z" fill="#22A599"/>
<path d="M12.7916 4.09504C12.2793 3.79604 10.5306 2.33337 7.16663 2.33337C6.89063 2.33337 6.66663 2.55737 6.66663 2.83337C6.66663 3.10937 6.89063 3.33337 7.16663 3.33337C9.02663 3.33337 10.689 3.81004 12.1986 4.89671C12.2826 4.96071 12.3863 5.00004 12.5 5.00004C12.776 5.00004 13 4.77604 13 4.50004C13 4.33304 12.9176 4.18571 12.7916 4.09504Z" fill="#22A599"/>
<path d="M11.3417 7.96667C11.5313 7.896 11.6667 7.71433 11.6667 7.5C11.6667 7.224 11.4427 7 11.1667 7C11.1297 7 11.0937 7.00467 11.059 7.01233C9.98 7.336 9.01633 7.844 8.209 8.42833C8.08267 8.519 8 8.666 8 8.83333C8 9.10933 8.224 9.33333 8.5 9.33333C8.61333 9.33333 8.71767 9.29567 8.80167 9.23167C9.55833 8.687 10.4247 8.23467 11.3417 7.96667Z" fill="#22A599"/>
</svg>
