<svg width="20" height="20" viewBox="0 0 20 20" fill="none" xmlns="http://www.w3.org/2000/svg">
<path d="M7.33337 9H9.33337V11H7.33337V9Z" fill="#22A599"/>
<path d="M6.33337 12.3334H8.33337V14.3334H6.33337V12.3334Z" fill="#22A599"/>
<path d="M10 10.3334H12V12.3334H10V10.3334Z" fill="#22A599"/>
<path d="M4 10.3333V16H3V17.3333C3 18.254 3.746 19 4.66667 19H14.6667C15.5873 19 16.3333 18.254 16.3333 17.3333V16H15.3333V10.3333C15.3333 9.96529 15.0347 9.66663 14.6667 9.66663H13V11H14V16H5.33333V11H6.33333V9.66663H4.66667C4.29867 9.66663 4 9.96529 4 10.3333ZM8.5 17H10.8333C11.1093 17 11.3333 17.224 11.3333 17.5C11.3333 17.776 11.1093 18 10.8333 18H8.5C8.224 18 8 17.776 8 17.5C8 17.224 8.224 17 8.5 17Z" fill="#22A599"/>
<path d="M15 5.66671C14.882 5.66671 14.7657 5.67371 14.6507 5.68437C14.4877 3.25504 12.4707 1.33337 10 1.33337C7.76437 1.33337 5.89804 2.90637 5.44204 5.00571C5.40571 5.00471 5.37004 5.00004 5.33337 5.00004C3.12437 5.00004 1.33337 6.79104 1.33337 9.00004C1.33337 10.3374 1.99237 11.5184 3.00004 12.2444V10C3.00004 9.26371 3.59704 8.66671 4.33337 8.66671H6.33337C6.33337 8.29871 6.63204 8.00004 7.00004 8.00004H8.00004V6.50004C8.00004 6.22404 8.22404 6.00004 8.50004 6.00004C8.77604 6.00004 9.00004 6.22404 9.00004 6.50004V8.00004H9.66671C10.0347 8.00004 10.3334 8.29871 10.3334 8.66671H11.3334V7.50004C11.3334 7.22404 11.5574 7.00004 11.8334 7.00004C12.1094 7.00004 12.3334 7.22404 12.3334 7.50004V8.66671H15C15.7364 8.66671 16.3334 9.26371 16.3334 10V12.746C17.6984 12.2124 18.6667 10.8874 18.6667 9.33337C18.6667 7.30837 17.025 5.66671 15 5.66671ZM9.00004 4.50004C9.00004 4.77604 8.77604 5.00004 8.50004 5.00004C8.22404 5.00004 8.00004 4.77604 8.00004 4.50004V3.16671C8.00004 2.89071 8.22404 2.66671 8.50004 2.66671C8.77604 2.66671 9.00004 2.89071 9.00004 3.16671V4.50004ZM12.3334 5.50004C12.3334 5.77604 12.1094 6.00004 11.8334 6.00004C11.5574 6.00004 11.3334 5.77604 11.3334 5.50004V4.16671C11.3334 3.89071 11.5574 3.66671 11.8334 3.66671C12.1094 3.66671 12.3334 3.89071 12.3334 4.16671V5.50004Z" fill="#22A599"/>
</svg>
