<svg width="20" height="21" viewBox="0 0 20 21" fill="none" xmlns="http://www.w3.org/2000/svg">
<path fill-rule="evenodd" clip-rule="evenodd" d="M4 4.57617C4 3.4716 4.89543 2.57617 6 2.57617H14C15.1046 2.57617 16 3.4716 16 4.57617V16.5762C16.5523 16.5762 17 17.0239 17 17.5762C17 18.1285 16.5523 18.5762 16 18.5762H13C12.4477 18.5762 12 18.1285 12 17.5762V15.5762C12 15.0239 11.5523 14.5762 11 14.5762H9C8.44772 14.5762 8 15.0239 8 15.5762V17.5762C8 18.1285 7.55228 18.5762 7 18.5762H4C3.44772 18.5762 3 18.1285 3 17.5762C3 17.0239 3.44772 16.5762 4 16.5762V4.57617ZM7 5.57617H9V7.57617H7V5.57617ZM9 9.57617H7V11.5762H9V9.57617ZM11 5.57617H13V7.57617H11V5.57617ZM13 9.57617H11V11.5762H13V9.57617Z" fill="#707A94"/>
</svg>
