<svg width="20" height="21" viewBox="0 0 20 21" fill="none" xmlns="http://www.w3.org/2000/svg">
<g clip-path="url(#clip0_2507_561)">
<path d="M12.0003 2.24316C11.0003 8.24316 4.66699 10.2432 4.66699 10.2432L9.66699 14.9098C9.66699 14.9098 17.667 12.5765 17.667 5.90983L12.0003 2.24316ZM12.0003 11.2432C11.0797 11.2432 10.3337 10.4972 10.3337 9.5765C10.3337 8.65583 11.0797 7.90983 12.0003 7.90983C12.921 7.90983 13.667 8.65583 13.667 9.5765C13.667 10.4972 12.921 11.2432 12.0003 11.2432Z" fill="#707A94"/>
<path d="M9.94699 15.8697C9.85466 15.8967 9.76033 15.9097 9.66699 15.9097C9.41699 15.9097 9.17266 15.8164 8.98499 15.641L8.43066 15.1234C7.41166 15.6744 6.66699 15.9097 6.66699 15.9097L11.667 20.5764C11.667 20.5764 19.667 18.243 19.667 11.5764L17.5503 10.207C16.735 11.653 15.573 12.7784 14.3987 13.63C15.2183 13.832 15.8017 14.6347 15.64 15.548C15.5243 16.1994 15.0097 16.7357 14.3623 16.872C13.284 17.0984 12.3337 16.2817 12.3337 15.243C12.3337 15.111 12.3527 14.9847 12.382 14.8614C11.083 15.5277 10.066 15.8347 9.94699 15.8697Z" fill="#707A94"/>
<path d="M6.66634 0.576172C6.65201 0.576172 6.63834 0.577172 6.62467 0.578839L3.95801 0.912172C3.79367 0.932505 3.66634 1.07284 3.66634 1.24284C3.66634 1.33484 3.70334 1.41817 3.76401 1.47851L4.45934 2.17384L1.52901 5.10417C1.40801 5.22484 1.33301 5.39184 1.33301 5.57617C1.33301 5.94417 1.63167 6.24284 1.99967 6.24284C2.18401 6.24284 2.35067 6.16784 2.47167 6.04717L5.40201 3.1165L6.09734 3.81184C6.15767 3.87217 6.24101 3.9095 6.33301 3.9095C6.50301 3.9095 6.64334 3.78217 6.66367 3.61784L6.99701 0.951172C6.99901 0.937505 6.99967 0.923839 6.99967 0.909505C6.99967 0.725172 6.85067 0.576172 6.66634 0.576172Z" fill="#707A94"/>
<path d="M5.99967 6.90983C5.99967 6.54183 5.70101 6.24316 5.33301 6.24316C5.14867 6.24316 4.98201 6.31816 4.86101 6.43883L1.93067 9.3695L1.23534 8.67416C1.17501 8.61383 1.09167 8.5765 0.999674 8.5765C0.829674 8.5765 0.689341 8.70383 0.669008 8.86816L0.335674 11.5348C0.333674 11.5485 0.333008 11.5622 0.333008 11.5765C0.333008 11.7608 0.482008 11.9098 0.666341 11.9098C0.680674 11.9098 0.694341 11.9088 0.708008 11.9072L3.37467 11.5738C3.53901 11.5535 3.66634 11.4132 3.66634 11.2432C3.66634 11.1512 3.62934 11.0678 3.56867 11.0075L2.87334 10.3122L5.80367 7.38183C5.92467 7.26116 5.99967 7.09416 5.99967 6.90983Z" fill="#707A94"/>
</g>
<defs>
<clipPath id="clip0_2507_561">
<rect width="20" height="20" fill="white" transform="translate(0 0.576172)"/>
</clipPath>
</defs>
</svg>
