<svg width="20" height="21" viewBox="0 0 20 21" fill="none" xmlns="http://www.w3.org/2000/svg">
<path d="M3.83333 5.57585C4.84586 5.57585 5.66667 4.75504 5.66667 3.74251C5.66667 2.72999 4.84586 1.90918 3.83333 1.90918C2.82081 1.90918 2 2.72999 2 3.74251C2 4.75504 2.82081 5.57585 3.83333 5.57585Z" fill="#707A94"/>
<path d="M1.00033 9.07658C1.00033 7.51177 2.26885 6.24284 3.83366 6.24284C5.39847 6.24284 6.66699 7.51137 6.66699 9.07617V10.5762L5.00033 10.5762C5.00033 10.5762 3.58766 10.5762 2.66699 10.5762L1.00033 10.5762C1.00033 10.2746 1.00033 9.70549 1.00033 9.07658Z" fill="#707A94"/>
<path d="M8.16634 14.5758C9.17886 14.5758 9.99967 13.755 9.99967 12.7425C9.99967 11.73 9.17886 10.9092 8.16634 10.9092C7.15382 10.9092 6.33301 11.73 6.33301 12.7425C6.33301 13.755 7.15382 14.5758 8.16634 14.5758Z" fill="#707A94"/>
<path d="M8.16634 15.2428C6.60153 15.2428 5.33301 16.5118 5.33301 18.0766C5.33301 18.7055 5.33301 19.2746 5.33301 19.5762L6.99967 19.5762H9.33301H10.9997V18.0762C10.9997 16.5114 9.73115 15.2428 8.16634 15.2428Z" fill="#707A94"/>
<path d="M15.8337 8.90951C17.0303 8.90951 18.0003 7.93946 18.0003 6.74284C18.0003 5.54622 17.0303 4.57617 15.8337 4.57617C14.637 4.57617 13.667 5.54622 13.667 6.74284C13.667 7.93946 14.637 8.90951 15.8337 8.90951Z" fill="#707A94"/>
<path d="M15.8337 9.57617C14.0848 9.57617 12.667 10.9939 12.667 12.7428V15.5762L14.3337 15.5762L17.3337 15.5762L19.0003 15.5762V12.7428C19.0003 10.9939 17.5826 9.57617 15.8337 9.57617Z" fill="#707A94"/>
<path d="M12.792 4.67085C12.2797 4.37185 10.531 2.90918 7.16699 2.90918C6.89099 2.90918 6.66699 3.13318 6.66699 3.40918C6.66699 3.68518 6.89099 3.90918 7.16699 3.90918C9.02699 3.90918 10.6893 4.38585 12.199 5.47251C12.283 5.53651 12.3867 5.57585 12.5003 5.57585C12.7763 5.57585 13.0003 5.35185 13.0003 5.07585C13.0003 4.90885 12.918 4.76151 12.792 4.67085Z" fill="#707A94"/>
<path d="M11.3417 8.54284C11.5313 8.47217 11.6667 8.29051 11.6667 8.07617C11.6667 7.80017 11.4427 7.57617 11.1667 7.57617C11.1297 7.57617 11.0937 7.58084 11.059 7.58851C9.98 7.91217 9.01633 8.42017 8.209 9.00451C8.08267 9.09517 8 9.24217 8 9.40951C8 9.68551 8.224 9.90951 8.5 9.90951C8.61333 9.90951 8.71767 9.87184 8.80167 9.80784C9.55833 9.26317 10.4247 8.81084 11.3417 8.54284Z" fill="#707A94"/>
</svg>
